<?xml version="1.0" encoding="UTF-8" standalone="no"?>
<!-- Uploaded to: SVG Repo, www.svgrepo.com, Generator: SVG Repo Mixer Tools -->

<svg
   fill="#000000"
   width="800px"
   height="800px"
   viewBox="0 0 32 32"
   version="1.1"
   id="svg1"
   sodipodi:docname="quote-svgrepo-com.svg"
   inkscape:version="1.4 (e7c3feb100, 2024-10-09)"
   xmlns:inkscape="http://www.inkscape.org/namespaces/inkscape"
   xmlns:sodipodi="http://sodipodi.sourceforge.net/DTD/sodipodi-0.dtd"
   xmlns="http://www.w3.org/2000/svg"
   xmlns:svg="http://www.w3.org/2000/svg">
  <defs
     id="defs1" />
  <sodipodi:namedview
     id="namedview1"
     pagecolor="#ffffff"
     bordercolor="#000000"
     borderopacity="0.25"
     inkscape:showpageshadow="2"
     inkscape:pageopacity="0.0"
     inkscape:pagecheckerboard="0"
     inkscape:deskcolor="#d1d1d1"
     inkscape:zoom="0.5"
     inkscape:cx="266"
     inkscape:cy="342"
     inkscape:window-width="1920"
     inkscape:window-height="1011"
     inkscape:window-x="0"
     inkscape:window-y="0"
     inkscape:window-maximized="1"
     inkscape:current-layer="svg1" />
  <title
     id="title1">quote</title>
  <path
     d="M 14.643,8.309 13.83,7.059 c -5.625,3.781 -8.75,8.375 -8.75,12.156 0,3.656 2.688,5.375 4.969,5.375 2.875,0 4.906,-2.438 4.906,-5 0,-2.156 -1.375,-4 -3.219,-4.688 -0.531,-0.188 -1.031,-0.344 -1.031,-1.25 0,-1.156 0.844,-2.875 3.938,-5.344 z m 12.406,0 -0.813,-1.25 c -5.563,3.781 -8.75,8.375 -8.75,12.156 0,3.656 2.75,5.375 5.031,5.375 2.906,0 4.969,-2.438 4.969,-5 0,-2.156 -1.406,-4 -3.313,-4.688 -0.531,-0.188 -1,-0.344 -1,-1.25 0,-1.156 0.875,-2.875 3.875,-5.344 z"
     id="path1" />
</svg>
