<svg xmlns="http://www.w3.org/2000/svg"  viewBox="0 0 24 24" width="24px" height="24px"><path d="M 8 3 C 5.243 3 3 5.243 3 8 L 3 16 C 3 18.757 5.243 21 8 21 L 16 21 C 18.757 21 21 18.757 21 16 L 21 8 C 21 5.243 18.757 3 16 3 L 8 3 z M 17.5 6 C 17.776 6 18 6.224 18 6.5 C 18 6.776 17.776 7 17.5 7 C 17.224 7 17 6.776 17 6.5 C 17 6.224 17.224 6 17.5 6 z M 12 7 C 14.757 7 17 9.243 17 12 C 17 14.757 14.757 17 12 17 C 9.243 17 7 14.757 7 12 C 7 9.243 9.243 7 12 7 z M 12 8 A 4 4 0 0 0 12 16 A 4 4 0 0 0 12 8 z"/></svg>