<?xml version="1.0" encoding="UTF-8" standalone="no"?>
<!-- Created with Inkscape (http://www.inkscape.org/) -->

<svg
   width="114.01561mm"
   height="124.40216mm"
   viewBox="0 0 114.01561 124.40216"
   version="1.1"
   id="svg1"
   sodipodi:docname="at-the-office-pana-tablet.svg"
   xmlns:inkscape="http://www.inkscape.org/namespaces/inkscape"
   xmlns:sodipodi="http://sodipodi.sourceforge.net/DTD/sodipodi-0.dtd"
   xmlns="http://www.w3.org/2000/svg"
   xmlns:svg="http://www.w3.org/2000/svg">
  <sodipodi:namedview
     id="namedview1"
     pagecolor="#ffffff"
     bordercolor="#000000"
     borderopacity="0.25"
     inkscape:showpageshadow="2"
     inkscape:pageopacity="0.0"
     inkscape:pagecheckerboard="0"
     inkscape:deskcolor="#d1d1d1"
     inkscape:document-units="mm">
    <inkscape:page
       x="0"
       y="0"
       width="114.01561"
       height="124.40216"
       id="page2"
       margin="0"
       bleed="0" />
  </sodipodi:namedview>
  <defs
     id="defs1" />
  <g
     inkscape:label="Layer 1"
     inkscape:groupmode="layer"
     id="layer1"
     transform="translate(-53.919159,-61.552502)">
    <g
       id="freepik--background-complete--inject-17"
       transform="matrix(0.26458333,0,0,0.26458333,2.875787,60.44125)">
      <polygon
         points="295.29,465.62 330.68,465.62 369.71,465.62 369.71,441.42 295.29,441.42 "
         style="fill:#f5f5f5"
         id="polygon1" />
      <polygon
         points="292.17,441.42 372.31,441.42 372.31,434.66 330.68,434.66 292.17,434.66 "
         style="fill:#e0e0e0"
         id="polygon2" />
      <polygon
         points="372.31,434.66 330.68,434.66 330.68,440.8 332.24,465.62 369.71,465.62 369.71,441.42 372.31,441.42 "
         style="fill:#e0e0e0"
         id="polygon3" />
      <rect
         x="305.70001"
         y="445.32001"
         width="15.09"
         height="3.6400001"
         style="fill:#e0e0e0"
         id="rect3" />
      <rect
         x="303.76001"
         y="453.51999"
         width="19.379999"
         height="7.6900001"
         style="fill:#ffffff"
         id="rect4" />
      <polygon
         points="302.13,434.68 337.52,434.68 376.55,434.68 376.55,410.48 302.13,410.48 "
         style="fill:#f5f5f5"
         id="polygon4" />
      <polygon
         points="299.01,410.48 379.15,410.48 379.15,403.71 337.52,403.71 299.01,403.71 "
         style="fill:#e0e0e0"
         id="polygon5" />
      <polygon
         points="379.15,403.71 337.52,403.71 337.52,409.85 339.08,434.68 376.55,434.68 376.55,410.48 379.15,410.48 "
         style="fill:#e0e0e0"
         id="polygon6" />
      <rect
         x="312.54001"
         y="414.38"
         width="15.09"
         height="3.6400001"
         style="fill:#e0e0e0"
         id="rect6" />
      <rect
         x="310.60001"
         y="422.57999"
         width="19.379999"
         height="7.6900001"
         style="fill:#ffffff"
         id="rect7" />
      <rect
         x="355.82001"
         y="158.33"
         width="77.5"
         height="69.339996"
         style="fill:#fafafa"
         id="rect23" />
      <path
         d="m 433.32,227.67 c 0,0 0,-0.44 0,-1.29 0,-0.85 0,-2.09 0,-3.71 0,-3.26 0,-8 0,-14.08 0,-12.11 -0.06,-29.42 -0.09,-50.26 l 0.17,0.18 h -77.49 v 0 l 0.21,-0.21 c 0,25.23 0,49 0,69.34 l -0.18,-0.18 56.06,0.09 h 15.81 4.18 v 0 h -4.15 -15.77 l -56.17,0.09 h -0.18 v -0.18 c 0,-20.37 0,-44.11 0,-69.34 v -0.2 h 0.22 77.49 0.18 v 0.17 c 0,20.88 -0.07,38.23 -0.09,50.37 0,6.05 0,10.79 -0.05,14 0,1.61 0,2.84 0,3.68 0,0.84 -0.15,1.53 -0.15,1.53 z"
         style="fill:#e0e0e0"
         id="path24" />
      <path
         d="m 385.54,170.65 c 0,0.12 -4.08,0.21 -9.11,0.21 -5.03,0 -9.11,-0.09 -9.11,-0.21 0,-0.12 4.07,-0.2 9.11,-0.2 5.04,0 9.11,0.09 9.11,0.2 z"
         style="fill:#e0e0e0"
         id="path25" />
      <path
         d="m 418.38,175.86 c 0,0.11 -11.21,0.21 -25,0.21 -13.79,0 -25,-0.1 -25,-0.21 0,-0.11 11.2,-0.21 25,-0.21 13.8,0 25,0.09 25,0.21 z"
         style="fill:#e0e0e0"
         id="path26" />
      <rect
         x="367.45001"
         y="184.67999"
         width="3.27"
         height="3.27"
         style="fill:#e0e0e0"
         id="rect26" />
      <rect
         x="375.48999"
         y="184.67999"
         width="3.27"
         height="3.27"
         style="fill:#e0e0e0"
         id="rect27" />
      <rect
         x="383.67001"
         y="184.53"
         width="3.27"
         height="3.27"
         style="fill:#e0e0e0"
         id="rect28" />
      <rect
         x="391.56"
         y="184.67999"
         width="3.27"
         height="3.27"
         style="fill:#e0e0e0"
         id="rect29" />
      <rect
         x="399.60001"
         y="184.67999"
         width="3.27"
         height="3.27"
         style="fill:#e0e0e0"
         id="rect30" />
      <rect
         x="407.64001"
         y="184.67999"
         width="3.27"
         height="3.27"
         style="fill:#e0e0e0"
         id="rect31" />
      <rect
         x="415.67001"
         y="184.67999"
         width="3.27"
         height="3.27"
         style="fill:#ebebeb"
         id="rect32" />
      <rect
         x="367.45001"
         y="191.62"
         width="3.27"
         height="3.27"
         style="fill:#ebebeb"
         id="rect33" />
      <rect
         x="375.48999"
         y="191.62"
         width="3.27"
         height="3.27"
         style="fill:#e0e0e0"
         id="rect34" />
      <rect
         x="383.51999"
         y="191.62"
         width="3.27"
         height="3.27"
         style="fill:#ebebeb"
         id="rect35" />
      <rect
         x="391.56"
         y="191.62"
         width="3.27"
         height="3.27"
         style="fill:#e0e0e0"
         id="rect36" />
      <rect
         x="399.60001"
         y="191.62"
         width="3.27"
         height="3.27"
         style="fill:#e0e0e0"
         id="rect37" />
      <rect
         x="407.78"
         y="191.47"
         width="3.27"
         height="3.27"
         style="fill:#e0e0e0"
         id="rect38" />
      <rect
         x="415.67001"
         y="191.62"
         width="3.27"
         height="3.27"
         style="fill:#e0e0e0"
         id="rect39" />
      <rect
         x="367.45001"
         y="198.56"
         width="3.27"
         height="3.27"
         style="fill:#e0e0e0"
         id="rect40" />
      <rect
         x="375.64001"
         y="198.41"
         width="3.27"
         height="3.27"
         style="fill:#e0e0e0"
         id="rect41" />
      <rect
         x="383.51999"
         y="198.56"
         width="3.27"
         height="3.27"
         style="fill:#e0e0e0"
         id="rect42" />
      <rect
         x="391.56"
         y="198.56"
         width="3.27"
         height="3.27"
         style="fill:#ebebeb"
         id="rect43" />
      <rect
         x="399.60001"
         y="198.56"
         width="3.27"
         height="3.27"
         style="fill:#e0e0e0"
         id="rect44" />
      <rect
         x="407.64001"
         y="198.56"
         width="3.27"
         height="3.27"
         style="fill:#e0e0e0"
         id="rect45" />
      <rect
         x="415.67001"
         y="198.56"
         width="3.27"
         height="3.27"
         style="fill:#e0e0e0"
         id="rect46" />
      <rect
         x="367.45001"
         y="205.5"
         width="3.27"
         height="3.27"
         style="fill:#e0e0e0"
         id="rect47" />
      <rect
         x="375.48999"
         y="205.5"
         width="3.27"
         height="3.27"
         style="fill:#e0e0e0"
         id="rect48" />
      <rect
         x="383.51999"
         y="205.5"
         width="3.27"
         height="3.27"
         style="fill:#e0e0e0"
         id="rect49" />
      <rect
         x="391.70999"
         y="205.35001"
         width="3.27"
         height="3.27"
         style="fill:#e0e0e0"
         id="rect50" />
      <rect
         x="399.60001"
         y="205.5"
         width="3.27"
         height="3.27"
         style="fill:#e0e0e0"
         id="rect51" />
      <rect
         x="407.64001"
         y="205.5"
         width="3.27"
         height="3.27"
         style="fill:#ebebeb"
         id="rect52" />
      <rect
         x="415.67001"
         y="205.5"
         width="3.27"
         height="3.27"
         style="fill:#e0e0e0"
         id="rect53" />
      <rect
         x="367.45001"
         y="212.44"
         width="3.27"
         height="3.27"
         style="fill:#e0e0e0"
         id="rect54" />
      <rect
         x="375.48999"
         y="212.44"
         width="3.27"
         height="3.27"
         style="fill:#ebebeb"
         id="rect55" />
      <rect
         x="383.51999"
         y="212.44"
         width="3.27"
         height="3.27"
         style="fill:#e0e0e0"
         id="rect56" />
      <rect
         x="391.56"
         y="212.44"
         width="3.27"
         height="3.27"
         style="fill:#e0e0e0"
         id="rect57" />
      <rect
         x="399.60001"
         y="212.44"
         width="3.27"
         height="3.27"
         style="fill:#e0e0e0"
         id="rect58" />
      <rect
         x="407.78"
         y="212.3"
         width="3.27"
         height="3.27"
         style="fill:#e0e0e0"
         id="rect59" />
      <rect
         x="415.67001"
         y="212.44"
         width="3.27"
         height="3.27"
         style="fill:#e0e0e0"
         id="rect60" />
      <path
         d="m 619.57497,210.52 c 0,0 0,-0.76 0,-2.2 0,-1.44 0,-3.59 0,-6.38 0,-5.6 0,-13.79 0,-24.23 0,-20.87 -0.07,-50.75 -0.12,-86.78 l 0.22,0.21 h -150.3 v 0 l 0.26,-0.26 c 0,43.17 0,84 0,119.59 l -0.23,-0.23 108.58,0.11 30.76,0.07 h 8.15 2.1 v 0 h -2.08 -8.1 l -30.71,0.06 -108.73,0.11 h -0.23 v -0.23 c 0,-35.61 0,-76.42 0,-119.59 v -0.26 h 0.27 150.3 0.22 v 0.22 c 0,36.09 -0.09,66 -0.11,86.91 0,10.43 0,18.6 -0.06,24.18 0,2.78 0,4.9 0,6.34 0,1.44 -0.19,2.36 -0.19,2.36 z"
         style="fill:#e0e0e0"
         id="path60" />
      <rect
         x="488.69498"
         y="113.09"
         width="5.4400001"
         height="60.700001"
         style="fill:#e0e0e0"
         id="rect61" />
      <rect
         x="499.18497"
         y="133.71001"
         width="5.4400001"
         height="40.080002"
         style="fill:#ebebeb"
         id="rect62" />
      <rect
         x="509.68497"
         y="120.64"
         width="5.4400001"
         height="53.459999"
         style="fill:#e0e0e0"
         id="rect63" />
      <rect
         x="520.17493"
         y="115.44"
         width="5.4400001"
         height="58.360001"
         style="fill:#ebebeb"
         id="rect64" />
      <rect
         x="530.66492"
         y="134.94"
         width="5.4400001"
         height="38.849998"
         style="fill:#e0e0e0"
         id="rect65" />
      <rect
         x="541.16492"
         y="142.56"
         width="5.4400001"
         height="31.23"
         style="fill:#ebebeb"
         id="rect66" />
      <rect
         x="551.65497"
         y="119.32"
         width="5.4400001"
         height="54.470001"
         style="fill:#e0e0e0"
         id="rect67" />
      <rect
         x="562.14496"
         y="129.14"
         width="5.4400001"
         height="44.650002"
         style="fill:#ebebeb"
         id="rect68" />
      <rect
         x="572.64496"
         y="121.29"
         width="5.4400001"
         height="52.5"
         style="fill:#e0e0e0"
         id="rect69" />
      <rect
         x="583.13495"
         y="138.03"
         width="5.4400001"
         height="35.759998"
         style="fill:#ebebeb"
         id="rect70" />
      <rect
         x="593.62494"
         y="131.22"
         width="5.4400001"
         height="42.57"
         style="fill:#e0e0e0"
         id="rect71" />
      <path
         d="m 601.28497,178 c 0,0.12 -25.79,0.22 -57.58,0.22 -31.79,0 -57.58,-0.1 -57.58,-0.22 0,-0.12 25.77,-0.22 57.58,-0.22 31.81,0 57.58,0.12 57.58,0.22 z"
         style="fill:#e0e0e0"
         id="path71" />
      <path
         d="m 496.44497,182.8 a 37,37 0 0 1 -8.06,0 35.42,35.42 0 0 1 8.06,0 z"
         style="fill:#e0e0e0"
         id="path72" />
      <path
         d="m 509.82497,183 a 52.91,52.91 0 0 1 -9.64,0 52.91,52.91 0 0 1 9.64,0 z"
         style="fill:#e0e0e0"
         id="path73" />
      <path
         d="m 521.23497,183 a 52.91,52.91 0 0 1 -9.64,0 52.91,52.91 0 0 1 9.64,0 z"
         style="fill:#e0e0e0"
         id="path74" />
      <path
         d="m 532.65497,183 a 52.91,52.91 0 0 1 -9.64,0 52.91,52.91 0 0 1 9.64,0 z"
         style="fill:#e0e0e0"
         id="path75" />
      <path
         d="m 544.06497,183 a 52.91,52.91 0 0 1 -9.64,0 52.91,52.91 0 0 1 9.64,0 z"
         style="fill:#e0e0e0"
         id="path76" />
      <path
         d="m 555.50497,183 a 52.91,52.91 0 0 1 -9.64,0 52.91,52.91 0 0 1 9.64,0 z"
         style="fill:#e0e0e0"
         id="path77" />
      <path
         d="m 566.88497,183 a 52.91,52.91 0 0 1 -9.64,0 52.91,52.91 0 0 1 9.64,0 z"
         style="fill:#e0e0e0"
         id="path78" />
      <path
         d="m 578.29497,183 a 52.91,52.91 0 0 1 -9.64,0 52.91,52.91 0 0 1 9.64,0 z"
         style="fill:#e0e0e0"
         id="path79" />
      <path
         d="m 589.70497,183 a 52.91,52.91 0 0 1 -9.64,0 52.91,52.91 0 0 1 9.64,0 z"
         style="fill:#e0e0e0"
         id="path80" />
      <path
         d="m 601.12497,183 a 52.91,52.91 0 0 1 -9.64,0 52.91,52.91 0 0 1 9.64,0 z"
         style="fill:#e0e0e0"
         id="path81" />
      <rect
         x="464.45499"
         y="90.220001"
         width="159.39"
         height="4.4899998"
         style="fill:#ebebeb"
         id="rect81" />
      <polygon
         points="374.44,215.69 373.19,215.87 372.14,212.2 374.25,212.3 "
         style="fill:#e0e0e0"
         id="polygon81" />
      <polyline
         points="370.13 215.76 367.73 228.79 361.66 246.01 395.87 241.08 382.06 226.05 376.3 214.88 370.13 215.76"
         style="fill:#e0e0e0"
         id="polyline81" />
      <polygon
         points="387.62,79.22 373.62,79.22 329.94,93.89 428.63,93.89 "
         style="fill:#e0e0e0"
         id="polygon86" />
      <path
         d="m 385.88,92.89 a 21.29,21.29 0 0 0 -0.33,2.58 12.87,12.87 0 0 0 1.63,6.78 c 0.68,1.33 1.56,2.74 2.25,4.4 a 9.74,9.74 0 0 1 0.58,5.68 10.18,10.18 0 0 1 -3.08,5.49 9.39,9.39 0 0 1 -6.3,2.41 9.94,9.94 0 0 1 -6.39,-2.18 10,10 0 0 1 -2.84,-11.05 18.45,18.45 0 0 1 2.63,-4.21 17.14,17.14 0 0 0 2.14,-3.4 7.94,7.94 0 0 0 0.69,-2.92 5.44,5.44 0 0 0 -0.59,-2.49 2.16,2.16 0 0 1 0.36,0.58 4.89,4.89 0 0 1 0.43,1.91 7.86,7.86 0 0 1 -0.62,3 16.73,16.73 0 0 1 -2.12,3.51 18.32,18.32 0 0 0 -2.51,4.15 9.54,9.54 0 0 0 2.76,10.54 9.42,9.42 0 0 0 6.06,2.06 8.91,8.91 0 0 0 6,-2.26 9.82,9.82 0 0 0 3,-5.22 9.32,9.32 0 0 0 -0.51,-5.42 c -0.65,-1.62 -1.51,-3 -2.18,-4.39 a 12.75,12.75 0 0 1 -1.5,-7 10.9,10.9 0 0 1 0.31,-1.93 2.59,2.59 0 0 1 0.13,-0.62 z"
         style="fill:#e0e0e0"
         id="path87" />
      <path
         d="m 382.27,93.82 a 15.39,15.39 0 0 1 -0.27,1.84 50.23,50.23 0 0 0 -0.5,5 40.63,40.63 0 0 0 0.33,7.42 1.7,1.7 0 0 0 0.4,0.83 0.82,0.82 0 0 0 0.76,0.27 c 0.54,-0.11 0.83,-0.93 0.72,-1.58 a 3.12,3.12 0 0 0 -6.15,-0.09 1.4,1.4 0 0 0 0.82,1.57 1.24,1.24 0 0 0 1.42,-0.82 6,6 0 0 0 0.33,-2 c 0.05,-0.66 0.08,-1.3 0.09,-1.93 a 33.94,33.94 0 0 0 -0.15,-3.46 33.27,33.27 0 0 0 -0.84,-5 c -0.28,-1.15 -0.47,-1.79 -0.43,-1.8 a 2.14,2.14 0 0 1 0.19,0.44 c 0.12,0.29 0.27,0.73 0.44,1.31 a 29.72,29.72 0 0 1 1,5 33.82,33.82 0 0 1 0.21,3.51 q 0,0.94 -0.06,1.95 a 6.48,6.48 0 0 1 -0.35,2.11 2,2 0 0 1 -0.76,0.92 1.43,1.43 0 0 1 -1.26,0.18 1.9,1.9 0 0 1 -1.17,-2.1 3.63,3.63 0 0 1 7.17,0.08 2.41,2.41 0 0 1 -0.16,1.25 1.41,1.41 0 0 1 -1,0.89 1.32,1.32 0 0 1 -1.22,-0.42 2.19,2.19 0 0 1 -0.52,-1.07 38,38 0 0 1 -0.23,-7.54 38.77,38.77 0 0 1 0.67,-5 c 0.13,-0.59 0.23,-1 0.32,-1.34 a 1.54,1.54 0 0 1 0.2,-0.42 z"
         style="fill:#e0e0e0"
         id="path88" />
      <path
         d="m 380.63,4.2 a 4.48,4.48 0 0 1 0.05,0.76 c 0,0.54 0,1.26 0.05,2.16 0,1.93 0,4.63 0.08,7.94 0,6.76 0.05,16 0.08,26.21 0.03,10.21 -0.06,19.45 -0.08,26.21 0,3.31 -0.06,6 -0.08,8 0,0.89 0,1.61 -0.05,2.15 a 4.48,4.48 0 0 1 -0.05,0.76 3.44,3.44 0 0 1 -0.05,-0.76 c 0,-0.54 0,-1.26 -0.05,-2.15 0,-1.94 0,-4.64 -0.09,-8 0,-6.76 0,-16 -0.07,-26.21 -0.07,-10.21 0.05,-19.45 0.07,-26.21 0,-3.31 0.07,-6 0.09,-7.94 0,-0.9 0,-1.62 0.05,-2.16 a 3.44,3.44 0 0 1 0.05,-0.76 z"
         style="fill:#e0e0e0"
         id="path89" />
      <polygon
         points="387.62,79.22 373.62,79.22 376.32,67.09 385.32,67.09 "
         style="fill:#e0e0e0"
         id="polygon89" />
      <rect
         x="267.44611"
         y="67.403679"
         width="4.9099998"
         height="105.54"
         style="fill:#e0e0e0"
         id="rect89" />
      <rect
         x="196.23608"
         y="68.223679"
         width="70.459999"
         height="104.87"
         rx="0.07"
         style="fill:#f5f5f5"
         id="rect90" />
      <path
         d="m 267.44608,173.90368 h -72 a 0.07,0.07 0 0 1 -0.07,-0.07 V 67.473678 a 0.07,0.07 0 0 1 0.07,-0.07 h 72 a 0.08,0.08 0 0 1 0.07,0.07 V 173.83368 a 0.08,0.08 0 0 1 -0.07,0.07 z m -70.32,-1.63 h 68.68 a 0.07,0.07 0 0 0 0.07,-0.07 V 69.113678 a 0.08,0.08 0 0 0 -0.07,-0.08 h -68.68 a 0.08,0.08 0 0 0 -0.07,0.08 V 172.20368 a 0.07,0.07 0 0 0 0.07,0.07 z"
         style="fill:#ebebeb"
         id="path90" />
      <rect
         x="203.33609"
         y="74.69368"
         width="56.389999"
         height="91.860001"
         rx="0.07"
         style="fill:#fafafa"
         id="rect91" />
      <rect
         x="215.63608"
         y="100.73368"
         width="31.66"
         height="37.110001"
         rx="0.059999999"
         style="fill:#ebebeb"
         id="rect92" />
      <path
         d="m 244.79608,133.30368 c 0,0.12 -1.53,0.8 -4.5,0.46 a 11,11 0 0 1 -5.05,-2 10.3,10.3 0 0 1 -3.93,-6.18 8.88,8.88 0 0 1 3,-8.44 8,8 0 0 1 2.28,-1.34 6.11,6.11 0 0 1 2.85,-0.32 5,5 0 0 1 2.85,1.24 3.72,3.72 0 0 1 1.12,3.32 5.48,5.48 0 0 1 -1.56,2.85 10.39,10.39 0 0 1 -2.39,1.75 13.13,13.13 0 0 1 -5.69,1.63 11.27,11.27 0 0 1 -6.06,-1.38 11,11 0 0 1 -4.47,-4.63 9.46,9.46 0 0 1 -0.8,-6.48 9.67,9.67 0 0 1 3.42,-5.34 8.57,8.57 0 0 1 2.86,-1.44 7.15,7.15 0 0 1 3.22,-0.1 5.27,5.27 0 0 1 2.93,1.65 4.86,4.86 0 0 1 1.11,3.1 6,6 0 0 1 -0.77,3 7.87,7.87 0 0 1 -1.8,2.17 12.16,12.16 0 0 1 -4.49,2.39 11.54,11.54 0 0 1 -4.72,0.36 9.62,9.62 0 0 1 -4.11,-1.57 8.91,8.91 0 0 1 -3.92,-6.22 7.5,7.5 0 0 1 1.46,-5.32 6.36,6.36 0 0 1 2.68,-2.15 c 0.74,-0.28 1.17,-0.27 1.18,-0.2 0.01,0.07 -0.33,0.26 -0.93,0.66 a 7,7 0 0 0 -2.09,2.25 6.65,6.65 0 0 0 -0.86,4.55 7.49,7.49 0 0 0 3.49,4.89 8.63,8.63 0 0 0 7.2,0.68 10,10 0 0 0 3.6,-2 4.41,4.41 0 0 0 1.68,-3.37 2.43,2.43 0 0 0 -2.17,-2.39 4.69,4.69 0 0 0 -2.07,0.09 5.82,5.82 0 0 0 -2,1 7.12,7.12 0 0 0 -2.47,3.92 6.87,6.87 0 0 0 0.61,4.71 8.53,8.53 0 0 0 3.4,3.54 8.82,8.82 0 0 0 4.69,1.09 10.72,10.72 0 0 0 4.61,-1.26 8,8 0 0 0 1.84,-1.3 3.08,3.08 0 0 0 0.93,-1.52 1.3,1.3 0 0 0 -0.37,-1.22 2.74,2.74 0 0 0 -1.53,-0.67 3.71,3.71 0 0 0 -1.79,0.15 6,6 0 0 0 -1.68,0.91 7,7 0 0 0 -2.18,3 6.84,6.84 0 0 0 -0.36,3.45 8.9,8.9 0 0 0 3,5.35 10.74,10.74 0 0 0 4.34,2.16 c 2.78,0.6 4.39,0.27 4.41,0.52 z"
         style="fill:#e0e0e0"
         id="path92" />
    </g>
    <g
       id="freepik--Floor--inject-17"
       transform="matrix(0.1575109,0,0,0.24910317,51.36276,67.635501)">
      <path
         d="m 729.18,465 c 0,0.14 -159.61,0.26 -356.46,0.26 -196.85,0 -356.49,-0.09 -356.49,-0.26 0,-0.17 159.58,-0.26 356.49,-0.26 196.91,0 356.46,0.15 356.46,0.26 z"
         style="fill:#263238"
         id="path93" />
    </g>
    <g
       id="freepik--character-3--inject-17"
       transform="matrix(0.26458333,0,0,0.26458333,2.875787,60.44125)">
      <path
         d="m 519.93,182.8 v 0 c 2.11,-3.06 3.27,-5.35 4.76,-7.28 1.84,-2.38 2.44,-3.49 2,-3.81 -0.44,-0.32 -0.37,-0.28 -4.33,3.56 0,0 5.61,-5.54 3.45,-5.29 -0.95,0.11 -5.66,4.66 -5.66,4.66 4.12,-3.31 5.14,-5.21 4.61,-5.8 -0.77,-0.87 -6.44,4.71 -6.44,4.71 0,0 4.41,-4.17 5,-5.14 0.59,-0.97 -0.78,-0.73 -1.82,-0.22 -1.04,0.51 -7.44,4.86 -9.32,6 a 1.29,1.29 0 0 1 -1.93,-0.39 c -1.13,-3 -3.6,-4.71 -4.49,-4.86 a 1,1 0 0 0 -0.69,1.72 11.61,11.61 0 0 1 1.68,2.76 7.46,7.46 0 0 1 0.72,2.47 c 0.11,1 0.17,1.85 0.19,2.57 l -2.85,15.9 10,7 z"
         style="fill:#b78876"
         id="path94" />
      <path
         d="m 520,177.64 a 27.8,27.8 0 0 0 5.29,-5.4 29.4,29.4 0 0 0 -5.29,5.4 z"
         style="fill:#aa6550"
         id="path95" />
      <path
         d="m 518.37,176.28 a 17.18,17.18 0 0 0 3.16,-2.52 16.93,16.93 0 0 0 2.82,-2.89 32.48,32.48 0 0 0 -6,5.41 z"
         style="fill:#aa6550"
         id="path96" />
      <path
         d="m 516.68,174.85 a 29.38,29.38 0 0 0 5.72,-5 14.48,14.48 0 0 0 -3,2.33 14,14 0 0 0 -2.72,2.67 z"
         style="fill:#aa6550"
         id="path97" />
      <path
         d="m 451.1,133.85 a 14.74,14.74 0 0 1 15.9,13.81 c 0.41,6.85 0.79,14.26 0.74,18 -0.1,8 -8.11,9.26 -8.11,9.26 0,0 1.15,13.92 1,16.17 l -21.2,1 -1.92,-42.83 a 14.75,14.75 0 0 1 13.59,-15.37 z"
         style="fill:#b78876"
         id="path98" />
      <path
         d="m 459.61,174.79 a 18.57,18.57 0 0 1 -10.44,-3 c 0,0 2.47,5.76 10.46,5 z"
         style="fill:#aa6550"
         id="path99" />
      <path
         d="m 438.24,152 c -0.13,-0.06 -5.5,-1.63 -5.33,3.85 0.17,5.48 5.64,4.17 5.65,4 0.01,-0.17 -0.32,-7.85 -0.32,-7.85 z"
         style="fill:#b78876"
         id="path100" />
      <path
         d="m 436.82,157.81 c 0,0 -0.1,0.07 -0.26,0.15 a 0.92,0.92 0 0 1 -0.71,0 2.37,2.37 0 0 1 -1.16,-2.08 3.23,3.23 0 0 1 0.22,-1.38 1.12,1.12 0 0 1 0.7,-0.75 0.48,0.48 0 0 1 0.57,0.24 c 0.08,0.15 0.05,0.26 0.08,0.27 0.03,0.01 0.11,-0.1 0.06,-0.32 a 0.59,0.59 0 0 0 -0.23,-0.34 0.72,0.72 0 0 0 -0.53,-0.12 1.33,1.33 0 0 0 -1,0.88 3.34,3.34 0 0 0 -0.28,1.54 2.48,2.48 0 0 0 1.47,2.32 1,1 0 0 0 0.87,-0.17 c 0.19,-0.05 0.22,-0.23 0.2,-0.24 z"
         style="fill:#aa6550"
         id="path101" />
      <path
         d="m 464.94,152.75 a 1.15,1.15 0 0 1 -1.11,1.16 1.09,1.09 0 0 1 -1.17,-1 1.13,1.13 0 0 1 1.1,-1.16 1.1,1.1 0 0 1 1.18,1 z"
         style="fill:#263238"
         id="path102" />
      <path
         d="m 464.91,150.51 c -0.14,0.15 -1,-0.49 -2.24,-0.49 -1.24,0 -2.14,0.62 -2.27,0.47 -0.13,-0.15 0.08,-0.33 0.47,-0.62 a 3.15,3.15 0 0 1 1.82,-0.56 3,3 0 0 1 1.78,0.58 c 0.38,0.29 0.53,0.56 0.44,0.62 z"
         style="fill:#263238"
         id="path103" />
      <path
         d="m 452.84,152.75 a 1.16,1.16 0 0 1 -1.11,1.16 1.1,1.1 0 0 1 -1.18,-1 1.15,1.15 0 0 1 1.1,-1.16 1.11,1.11 0 0 1 1.19,1 z"
         style="fill:#263238"
         id="path104" />
      <path
         d="m 452.8,150.74 c -0.14,0.15 -1,-0.49 -2.24,-0.49 -1.24,0 -2.13,0.62 -2.26,0.47 -0.13,-0.15 0.07,-0.33 0.47,-0.62 a 3.14,3.14 0 0 1 1.81,-0.56 3,3 0 0 1 1.79,0.58 c 0.37,0.29 0.5,0.56 0.43,0.62 z"
         style="fill:#263238"
         id="path105" />
      <path
         d="m 457.27,159.87 a 8.35,8.35 0 0 1 2,-0.36 c 0.32,0 0.61,-0.09 0.67,-0.31 a 1.67,1.67 0 0 0 -0.21,-0.93 c -0.3,-0.76 -0.61,-1.56 -0.93,-2.39 a 40.75,40.75 0 0 1 -2.09,-6.27 41.2,41.2 0 0 1 2.59,6.08 c 0.31,0.84 0.6,1.65 0.89,2.41 a 1.84,1.84 0 0 1 0.16,1.24 0.79,0.79 0 0 1 -0.52,0.46 2.15,2.15 0 0 1 -0.53,0.07 7.79,7.79 0 0 1 -2.03,0 z"
         style="fill:#263238"
         id="path106" />
      <path
         d="m 453.65,160.72 c 0.2,0 0.2,1.33 1.35,2.28 1.15,0.95 2.56,0.8 2.57,1 0.01,0.2 -0.31,0.26 -0.92,0.27 a 3.33,3.33 0 0 1 -2.15,-0.75 2.93,2.93 0 0 1 -1,-1.9 c -0.09,-0.57 0.06,-0.9 0.15,-0.9 z"
         style="fill:#263238"
         id="path107" />
      <path
         d="m 453.12,145.92 c -0.12,0.33 -1.35,0.17 -2.79,0.35 -1.44,0.18 -2.62,0.57 -2.81,0.26 -0.08,-0.14 0.12,-0.45 0.59,-0.78 a 4.88,4.88 0 0 1 4.27,-0.47 c 0.53,0.22 0.79,0.48 0.74,0.64 z"
         style="fill:#263238"
         id="path108" />
      <path
         d="m 464.45,147 c -0.21,0.28 -1.06,0 -2.08,0 -1.02,0 -1.88,0.18 -2.08,-0.11 -0.09,-0.14 0,-0.42 0.42,-0.69 a 2.89,2.89 0 0 1 1.7,-0.45 2.82,2.82 0 0 1 1.66,0.56 c 0.36,0.21 0.48,0.5 0.38,0.69 z"
         style="fill:#263238"
         id="path109" />
      <path
         d="m 437.72,151.83 a 8.51,8.51 0 0 0 0,2.52 2.9,2.9 0 0 0 1.4,2 c 1.38,0.69 3.11,-0.37 3.72,-1.78 a 9.18,9.18 0 0 0 0.31,-4.55 22,22 0 0 1 0.09,-6.27 9,9 0 0 1 3,-5.37 5.68,5.68 0 0 1 5.9,-0.85 32.5,32.5 0 0 1 3.12,2.3 4.84,4.84 0 0 0 3.31,0.83 3.12,3.12 0 0 0 2.54,-2.11 3.38,3.38 0 0 0 -1.3,-3.36 7.66,7.66 0 0 0 -3.5,-1.41 18.85,18.85 0 0 0 -10.39,0.81 13.63,13.63 0 0 0 -7.55,7 c -1.59,3.75 -0.51,6.72 -0.74,10.89"
         style="fill:#263238"
         id="path110" />
      <path
         d="m 519.11,187.4 -13.11,-3.16 -8.65,23.46 -23.9,-21.38 v 0 c -2.55,-1.86 -6.93,-2.09 -10.26,-2.51 h -0.26 c -1.29,-0.15 -1.92,-0.34 -2.7,-0.43 -5.76,4.33 -15.62,4.61 -21.28,0.14 0,0 -4.29,1 -6.85,1.46 -8.07,1.55 -13.88,7.42 -15.5,12.85 l 10.11,23.3 1.93,22.13 -5.59,19.82 a 3.43,3.43 0 0 0 2.87,4.34 l 50.05,0.76 0.82,-0.4 a 9.32,9.32 0 0 0 1.34,-6.34 c -2.16,-9.48 -0.65,-37.76 -1.11,-46.44 9.82,9.54 20.65,17.45 28.56,12.55 6.59,-4.11 13.53,-40.15 13.53,-40.15 z"
         style="fill:#e0e0e0"
         id="path111" />
      <polygon
         points="439.33,182.94 439.34,182.94 "
         style="fill:#1f81da"
         id="polygon111" />
      <polygon
         points="449.41,180.94 452.49,186.36 454.4,180.41 460.38,178.35 462.94,183.67 458.55,189.88 450.32,191.55 437.34,184.94 438.5,176.93 "
         style="fill:#e0e0e0"
         id="polygon112" />
      <path
         d="m 452.68,187.6 c 0,0 -0.16,-0.09 -0.41,-0.33 a 11.92,11.92 0 0 1 -1,-1.08 16.07,16.07 0 0 1 -2.63,-4.53 h 0.4 l -2.52,6.34 c -0.44,1.09 -0.87,2.14 -1.27,3.14 l -0.13,0.33 -0.26,-0.25 c -2.2,-2.13 -4.1,-4 -5.44,-5.33 l -1.56,-1.59 a 3.25,3.25 0 0 1 -0.52,-0.62 3.41,3.41 0 0 1 0.64,0.5 l 1.65,1.49 c 1.4,1.28 3.34,3.1 5.57,5.21 l -0.39,0.08 1.25,-3.14 c 0.94,-2.3 1.82,-4.45 2.58,-6.33 l 0.21,-0.52 0.19,0.53 a 18,18 0 0 0 2.43,4.53 c 0.74,0.97 1.25,1.53 1.21,1.57 z"
         style="fill:#263238"
         id="path112" />
      <path
         d="m 462.94,183.67 a 8.1,8.1 0 0 1 -1.28,1.76 17.79,17.79 0 0 1 -4.17,3.68 l -0.24,0.14 -0.1,-0.27 c -0.36,-1 -0.77,-2 -1.21,-3.11 -0.66,-1.63 -1.27,-3.18 -1.75,-4.56 h 0.43 c -0.36,1.81 -0.81,3.29 -1.08,4.33 a 9.36,9.36 0 0 1 -0.47,1.64 6.3,6.3 0 0 1 0.22,-1.7 c 0.2,-1.06 0.58,-2.56 0.89,-4.35 l 0.14,-0.79 0.29,0.76 c 0.5,1.36 1.13,2.89 1.79,4.53 0.44,1.09 0.84,2.15 1.19,3.13 l -0.34,-0.12 a 19.69,19.69 0 0 0 4.19,-3.46 18,18 0 0 1 1.5,-1.61 z"
         style="fill:#263238"
         id="path113" />
      <path
         d="m 456.63,269.14 c 0,0 0,-0.29 0.06,-0.83 0.06,-0.54 0.15,-1.38 0.25,-2.39 0.1,-1.01 0.22,-2.3 0.33,-3.77 0.05,-0.74 0.1,-1.53 0.16,-2.36 0.06,-0.83 0.07,-1.72 0.11,-2.65 0.17,-3.71 0.16,-8.14 0.07,-13.06 -0.09,-4.92 -0.4,-10.31 -0.78,-16 -0.82,-11.33 -1.94,-21.55 -2.78,-28.94 -0.42,-3.66 -0.76,-6.64 -1,-8.76 -0.11,-1 -0.19,-1.79 -0.26,-2.38 a 4.79,4.79 0 0 1 -0.05,-0.84 4.93,4.93 0 0 1 0.15,0.83 c 0.09,0.58 0.2,1.37 0.35,2.37 0.29,2.06 0.7,5 1.16,8.74 0.93,7.38 2.1,17.61 2.92,28.94 0.39,5.67 0.64,11.08 0.74,16 0.1,4.92 0,9.36 -0.17,13.08 -0.05,0.93 -0.1,1.81 -0.14,2.65 -0.04,0.84 -0.15,1.62 -0.21,2.36 -0.13,1.48 -0.24,2.75 -0.41,3.78 -0.17,1.03 -0.26,1.79 -0.34,2.37 a 4.8,4.8 0 0 1 -0.16,0.86 z"
         style="fill:#263238"
         id="path114" />
      <path
         d="m 497.08,216.76 a 22.71,22.71 0 0 1 -0.25,-4.76 22.65,22.65 0 0 1 0.25,-4.75 22.65,22.65 0 0 1 0.25,4.75 22.71,22.71 0 0 1 -0.25,4.76 z"
         style="fill:#263238"
         id="path115" />
      <path
         d="m 500.42,217.36 c 0,0.45 -0.67,-0.82 -2.14,-4.9 a 21.86,21.86 0 0 1 -1.32,-5.18 42.73,42.73 0 0 1 1.79,5 46.25,46.25 0 0 1 1.67,5.08 z"
         style="fill:#263238"
         id="path116" />
      <path
         d="m 468.12,436.66 -0.76,18.17 c 0,0 18.21,6.88 18.4,10.25 l -35.28,-0.21 v -28.36 z"
         style="fill:#1f81da"
         id="path117" />
      <path
         d="m 456.46,453.24 a 1.45,1.45 0 0 0 -1,1.64 1.39,1.39 0 0 0 1.62,1 1.52,1.52 0 0 0 1.06,-1.74 1.45,1.45 0 0 0 -1.8,-0.87"
         style="fill:#e0e0e0"
         id="path118" />
      <g
         style="opacity:0.6"
         id="g119">
        <path
           d="m 450.48,464.87 0.11,-2.86 33.79,1.27 c 0,0 1.56,0.69 1.38,1.8 z"
           style="fill:#ffffff"
           id="path119" />
      </g>
      <path
         d="m 467.93,454.66 c 0,0.17 -0.87,0.24 -1.72,0.79 -0.85,0.55 -1.3,1.27 -1.46,1.2 -0.16,-0.07 0.1,-1.06 1.15,-1.71 1.05,-0.65 2.1,-0.44 2.03,-0.28 z"
         style="fill:#263238"
         id="path120" />
      <path
         d="m 471.62,456.21 c 0,0.17 -0.7,0.46 -1.29,1.18 -0.59,0.72 -0.77,1.5 -0.94,1.49 -0.17,-0.01 -0.27,-1 0.48,-1.87 0.75,-0.87 1.75,-0.96 1.75,-0.8 z"
         style="fill:#263238"
         id="path121" />
      <path
         d="m 473.7,460.65 c -0.16,0 -0.39,-0.83 0.06,-1.77 0.45,-0.94 1.25,-1.31 1.33,-1.16 0.08,0.15 -0.43,0.64 -0.79,1.42 -0.36,0.78 -0.43,1.5 -0.6,1.51 z"
         style="fill:#263238"
         id="path122" />
      <path
         d="m 467.65,450.5 c -0.08,0.15 -0.87,-0.09 -1.84,0 -0.97,0.09 -1.73,0.37 -1.82,0.22 -0.09,-0.15 0.64,-0.76 1.79,-0.82 1.15,-0.06 1.95,0.46 1.87,0.6 z"
         style="fill:#263238"
         id="path123" />
      <path
         d="m 467.73,446.83 a 3.35,3.35 0 0 1 -1.76,0 8.08,8.08 0 0 1 -1.85,-0.58 9.08,9.08 0 0 1 -1,-0.54 2.37,2.37 0 0 1 -0.53,-0.42 0.76,0.76 0 0 1 -0.08,-0.92 1,1 0 0 1 0.76,-0.39 2.13,2.13 0 0 1 0.66,0.1 5.93,5.93 0 0 1 1.1,0.38 6.08,6.08 0 0 1 1.62,1.08 c 0.82,0.76 1.09,1.41 1,1.44 -0.09,0.03 -0.47,-0.48 -1.3,-1.12 a 7.14,7.14 0 0 0 -1.57,-0.89 6.27,6.27 0 0 0 -1,-0.32 c -0.38,-0.1 -0.69,-0.11 -0.79,0.06 -0.1,0.17 0,0.09 0,0.2 a 1.65,1.65 0 0 0 0.39,0.3 7.44,7.44 0 0 0 0.93,0.54 10.23,10.23 0 0 0 1.7,0.67 11.26,11.26 0 0 1 1.72,0.41 z"
         style="fill:#263238"
         id="path124" />
      <path
         d="m 467.51,447.08 a 2.88,2.88 0 0 1 -0.46,-1.71 5.84,5.84 0 0 1 0.25,-1.94 5.75,5.75 0 0 1 0.46,-1.07 1.44,1.44 0 0 1 1.13,-0.88 0.84,0.84 0 0 1 0.74,0.49 2.61,2.61 0 0 1 0.17,0.65 3.65,3.65 0 0 1 0,1.19 4.06,4.06 0 0 1 -0.77,1.82 c -0.69,0.91 -1.41,1.12 -1.43,1.06 -0.02,-0.06 0.55,-0.42 1.08,-1.29 a 4.17,4.17 0 0 0 0.57,-1.66 3.51,3.51 0 0 0 0,-1 c -0.05,-0.38 -0.19,-0.68 -0.33,-0.64 -0.14,0.04 -0.47,0.27 -0.62,0.57 a 5.85,5.85 0 0 0 -0.44,1 6.2,6.2 0 0 0 -0.36,1.76 c -0.08,0.97 0.1,1.62 0.01,1.65 z"
         style="fill:#263238"
         id="path125" />
      <path
         d="m 407.26,431.32 -5.73,22.74 -9.72,16.68 a 2.41,2.41 0 0 0 1,3.37 v 0 a 2.41,2.41 0 0 0 2.2,0 c 4.36,-2.35 20.37,-11.09 20.7,-12.78 0.38,-2 7.64,-23.59 7.64,-23.59 z"
         style="fill:#1f81da"
         id="path126" />
      <g
         style="opacity:0.6"
         id="g127">
        <path
           d="m 392.82,474.11 23.32,-14.35 -0.26,1 a 3.6,3.6 0 0 1 -1.45,2 c -1.91,1.29 -7.23,4.74 -19.34,11.34 a 2.43,2.43 0 0 1 -2.27,0 z"
           style="fill:#ffffff"
           id="path127" />
      </g>
      <g
         style="opacity:0.6"
         id="g128">
        <path
           d="m 413.52,451.19 a 1.44,1.44 0 0 0 -0.89,1.72 1.4,1.4 0 0 0 1.7,0.9 1.52,1.52 0 0 0 0.93,-1.83 1.44,1.44 0 0 0 -1.87,-0.74"
           style="fill:#ffffff"
           id="path128" />
      </g>
      <path
         d="m 400.72,465.66 a 7.5,7.5 0 0 0 -1.5,-2.31 7.15,7.15 0 0 0 -2.46,-1.21 c 0,-0.07 0.33,-0.16 0.88,-0.09 a 3.86,3.86 0 0 1 3.06,2.72 c 0.14,0.54 0.08,0.89 0.02,0.89 z"
         style="fill:#263238"
         id="path129" />
      <path
         d="m 398.27,468.24 c -0.13,0.07 -0.66,-0.87 -1.73,-1.53 a 18.86,18.86 0 0 0 -2.13,-0.89 2.68,2.68 0 0 1 2.4,0.46 c 1.19,0.72 1.59,1.93 1.46,1.96 z"
         style="fill:#263238"
         id="path130" />
      <path
         d="m 404.79,462.61 a 25.34,25.34 0 0 0 -2.52,-2.54 25.77,25.77 0 0 0 -3.14,-1.71 6.58,6.58 0 0 1 5.66,4.25 z"
         style="fill:#263238"
         id="path131" />
      <path
         d="m 407.11,455.84 c -0.1,0.12 -1.21,-0.75 -2.81,-1.26 -1.6,-0.51 -3,-0.47 -3,-0.62 a 4.64,4.64 0 0 1 3.17,0.13 4.7,4.7 0 0 1 2.64,1.75 z"
         style="fill:#263238"
         id="path132" />
      <path
         d="m 409,449.21 a 12,12 0 0 0 -2.89,-1.39 11.51,11.51 0 0 0 -3.21,-0.07 c 0,-0.06 0.3,-0.28 0.91,-0.43 a 5.15,5.15 0 0 1 2.42,0 5.21,5.21 0 0 1 2.15,1.09 c 0.43,0.42 0.62,0.76 0.62,0.8 z"
         style="fill:#263238"
         id="path133" />
      <path
         d="m 406.46,446.57 a 1.93,1.93 0 0 1 0.2,-0.86 6,6 0 0 1 1.3,-2 2.66,2.66 0 0 1 1.48,-1 1,1 0 0 1 1,0.5 1.55,1.55 0 0 1 0.07,1.12 3.38,3.38 0 0 1 -3.7,2.23 3.94,3.94 0 0 1 -3.18,-3 1.36,1.36 0 0 1 0.24,-1.12 1,1 0 0 1 1.09,-0.22 3.34,3.34 0 0 1 1.27,1.19 6.74,6.74 0 0 1 1.06,2.18 2.1,2.1 0 0 1 0.13,0.88 10.94,10.94 0 0 0 -1.48,-2.84 3.08,3.08 0 0 0 -1.14,-1 0.5,0.5 0 0 0 -0.59,0.12 0.89,0.89 0 0 0 -0.11,0.74 3.5,3.5 0 0 0 2.78,2.58 2.94,2.94 0 0 0 3.18,-1.85 1.14,1.14 0 0 0 0,-0.78 0.53,0.53 0 0 0 -0.55,-0.29 2.47,2.47 0 0 0 -1.26,0.78 9,9 0 0 0 -1.79,2.64 z"
         style="fill:#263238"
         id="path134" />
      <polygon
         points="446.04,189.23 447.89,184.58 450.37,185.87 449.9,190.04 "
         style="fill:#1f81da"
         id="polygon134" />
      <g
         style="opacity:0.4"
         id="g135">
        <polygon
           points="446.04,189.23 447.89,184.58 450.37,185.87 449.9,190.04 "
           id="polygon135" />
      </g>
      <polygon
         points="454.7,189.51 453.57,185.61 455.44,183.97 457.16,188.33 "
         style="fill:#1f81da"
         id="polygon136" />
      <polygon
         points="449.67,240.37 458,248.61 462.04,237.66 454.04,190.8 450.83,191.06 "
         style="fill:#1f81da"
         id="polygon137" />
      <path
         d="m 450.88,184.35 c 0.57,-0.07 1.35,-0.22 2,-0.35 a 1.36,1.36 0 0 1 1.49,0.68 l 1.05,1.94 a 1.4,1.4 0 0 1 0.14,0.92 l -0.42,2.17 A 1.37,1.37 0 0 1 454,190.8 l -2.38,0.48 a 1.38,1.38 0 0 1 -1.5,-0.73 L 449,188.21 a 1.43,1.43 0 0 1 0,-1.18 l 0.83,-1.87 a 1.37,1.37 0 0 1 1.05,-0.81 z"
         style="fill:#1f81da"
         id="path137" />
      <path
         d="m 454.34,184.87 a 4.84,4.84 0 0 1 -0.63,0.79 c -0.41,0.47 -1,1.11 -1.63,1.81 -0.63,0.7 -1.24,1.32 -1.67,1.76 a 5.16,5.16 0 0 1 -0.74,0.7 4.84,4.84 0 0 1 0.63,-0.79 c 0.41,-0.47 1,-1.11 1.64,-1.81 0.64,-0.7 1.23,-1.32 1.67,-1.77 a 5.78,5.78 0 0 1 0.73,-0.69 z"
         style="fill:#263238"
         id="path138" />
      <path
         d="m 451.91,187.14 a 5.71,5.71 0 0 1 -1.15,-1 5.38,5.38 0 0 1 -1,-1.11 5.89,5.89 0 0 1 1.15,1 6.78,6.78 0 0 1 1,1.11 z"
         style="fill:#263238"
         id="path139" />
      <path
         d="m 454.69,190.3 a 26.33,26.33 0 0 1 0.59,-2.85 2.81,2.81 0 0 0 -0.59,-1.85 1.58,1.58 0 0 1 -0.29,-0.81 c 0,0 0.12,0.3 0.41,0.74 0.13,0.22 0.32,0.48 0.48,0.8 a 1.9,1.9 0 0 1 0.19,1.15 c -0.16,0.81 -0.38,1.49 -0.51,2 a 3.93,3.93 0 0 1 -0.28,0.82 z"
         style="fill:#263238"
         id="path140" />
      <path
         d="m 476,268 -3.5,181 a 2.22,2.22 0 0 1 -2.24,2.18 l -21.09,-0.19 a 2.23,2.23 0 0 1 -2.2,-2.27 L 450.22,293 422.79,447.64 a 4,4 0 0 1 -4.05,3.28 l -17.69,-0.61 a 4,4 0 0 1 -3.79,-4.59 L 425,267.3 Z"
         style="fill:#263238"
         id="path141" />
      <path
         d="m 409.62,441.34 c 0,0 0,-0.15 0.05,-0.43 l 0.19,-1.24 c 0.18,-1.12 0.44,-2.73 0.78,-4.78 0.69,-4.17 1.69,-10.17 2.93,-17.57 2.47,-14.85 5.88,-35.33 9.65,-57.95 3.77,-22.62 7.06,-43.15 9.4,-58 1.15,-7.41 2.09,-13.41 2.74,-17.59 0.32,-2.06 0.58,-3.66 0.75,-4.78 l 0.21,-1.24 c 0.05,-0.28 0.09,-0.42 0.09,-0.42 a 3.35,3.35 0 0 1 0,0.42 c 0,0.31 -0.09,0.72 -0.16,1.25 -0.15,1.12 -0.38,2.73 -0.66,4.8 C 435,288 434.07,294 433,301.42 c -2.25,14.87 -5.51,35.39 -9.25,58 -3.74,22.61 -7.23,43.11 -9.8,57.93 -1.3,7.39 -2.35,13.37 -3.08,17.54 -0.38,2.05 -0.67,3.65 -0.87,4.76 -0.1,0.53 -0.18,0.94 -0.24,1.24 -0.06,0.3 -0.14,0.45 -0.14,0.45 z"
         style="fill:#455a64"
         id="path142" />
      <path
         d="m 463.67,442 c -0.14,0 0.1,-36.84 0.53,-82.27 0.43,-45.43 0.89,-82.27 1,-82.27 0.11,0 -0.1,36.83 -0.53,82.28 -0.43,45.45 -0.87,82.26 -1,82.26 z"
         style="fill:#455a64"
         id="path143" />
      <path
         d="m 473.12,442.63 c 0,0.14 -5.75,0.25 -12.84,0.25 -7.09,0 -12.84,-0.11 -12.84,-0.25 0,-0.14 5.75,-0.24 12.84,-0.24 7.09,0 12.84,0.11 12.84,0.24 z"
         style="fill:#455a64"
         id="path144" />
      <path
         d="m 424.05,441.65 a 3.69,3.69 0 0 1 -1,0.1 l -2.81,0.1 -9.26,0.22 c -3.62,0.08 -6.9,0.11 -9.27,0.09 -1.19,0 -2.15,0 -2.81,-0.07 a 3.63,3.63 0 0 1 -1,-0.09 4.35,4.35 0 0 1 1,-0.1 l 2.81,-0.09 9.27,-0.23 c 3.62,-0.07 6.9,-0.1 9.27,-0.08 1.19,0 2.15,0 2.81,0.06 a 4.7,4.7 0 0 1 0.99,0.09 z"
         style="fill:#455a64"
         id="path145" />
      <path
         d="m 453.9,270.18 a 18.82,18.82 0 0 1 -0.07,3.13 c -0.11,1.93 -0.29,4.6 -0.53,7.53 -0.13,1.47 -0.21,2.87 -0.39,4.16 a 8,8 0 0 1 -1.12,3.27 4.64,4.64 0 0 1 -1.71,1.59 1.58,1.58 0 0 1 -0.82,0.24 5.21,5.21 0 0 0 2.22,-2 8.08,8.08 0 0 0 1,-3.14 c 0.15,-1.25 0.21,-2.66 0.34,-4.13 0.24,-2.94 0.48,-5.59 0.68,-7.52 a 19.67,19.67 0 0 1 0.4,-3.13 z"
         style="fill:#455a64"
         id="path146" />
      <g
         style="opacity:0.3"
         id="g147">
        <path
           d="m 426.69,252.93 a 9.45,9.45 0 0 0 8.22,2.36 c 2.07,-0.42 4,-1.55 6.15,-1.41 2.31,0.15 4.22,1.77 6.33,2.72 3.93,1.79 8.52,1.22 12.7,0.1 1.92,-0.51 3.92,-1.2 5.16,-2.76 a 9.24,9.24 0 0 0 1.59,-4.28 44.11,44.11 0 0 0 0.62,-8.51 8.13,8.13 0 0 0 -1.37,-5.06 5.79,5.79 0 0 0 -3.81,-1.92 14.73,14.73 0 0 0 -4.34,0.24 71.73,71.73 0 0 0 -31.48,13.5"
           id="path147" />
      </g>
      <path
         d="m 447,243.53 c 0,0 -26.5,11.84 -29.19,12.47 -8.94,2 -19.16,-6.48 -16.32,-16.1 1.05,-3.58 15.3,-43.18 15.3,-43.18 l 13.56,18.73 -5.74,19.18 15,-1 z"
         style="fill:#e0e0e0"
         id="path148" />
      <path
         d="m 438.41,233.75 a 5.12,5.12 0 0 1 -1.05,0.15 l -2.9,0.24 c -2.46,0.19 -5.91,0.43 -9.84,0.68 h -0.33 l 0.1,-0.32 0.88,-3 c 1.34,-4.48 2.58,-8.52 3.5,-11.45 l 1.11,-3.45 a 7.65,7.65 0 0 1 0.47,-1.25 7.49,7.49 0 0 1 -0.3,1.3 c -0.25,0.91 -0.57,2.09 -1,3.5 -0.84,2.94 -2,7 -3.37,11.48 -0.3,1 -0.6,2 -0.89,3 l -0.23,-0.3 c 3.92,-0.23 7.38,-0.41 9.85,-0.52 l 2.9,-0.11 a 5.47,5.47 0 0 1 1.1,0.05 z"
         style="fill:#263238"
         id="path149" />
      <path
         d="m 444,245.08 c 0.05,0.12 -5.76,2.62 -13,5.6 -7.24,2.98 -13.11,5.29 -13.16,5.17 -0.05,-0.12 5.76,-2.63 13,-5.6 7.24,-2.97 13.16,-5.25 13.16,-5.17 z"
         style="fill:#263238"
         id="path150" />
      <path
         d="m 440.82,232.87 -2.09,-10.17 a 1.31,1.31 0 0 1 1.29,-1.57 l 26.32,0.13 a 1.31,1.31 0 0 1 1.29,1.46 L 464.91,246 a 1.83,1.83 0 0 1 -1.82,1.61 l -17.16,-0.14 a 1.83,1.83 0 0 1 -1.75,-1.37 z"
         style="fill:#455a64"
         id="path151" />
      <path
         d="m 438.5,227.52 v 0 a 2.77,2.77 0 0 1 2.59,1.76 5.93,5.93 0 0 0 1.76,2.82 c 1.29,0.7 3.52,1.27 4.7,0.69 1.18,-0.58 5.87,-4.8 6.69,-4.33 0.82,0.47 1.53,1.52 0.71,2.46 -0.82,0.94 -5.17,3.76 -4.35,4.7 0.82,0.94 10,-3.19 11.4,-2.83 1.4,0.36 2.23,1.23 1.41,1.8 -0.82,0.57 -7.05,2.91 -7.4,3.74 0,0 9.4,-2.47 9.75,-1.88 0.35,0.59 0.94,1.52 0,1.88 -0.94,0.36 -9.05,2.46 -9.75,2.82 a 17.29,17.29 0 0 1 -3.63,1 c -0.25,0 -2.09,0.62 -3.78,1.2 a 8.3,8.3 0 0 1 -5.85,-0.15 l -0.95,-0.39 a 3.74,3.74 0 0 1 -2.32,-3.68 l 0.2,-3.2 -1,-2.65 z"
         style="fill:#b78876"
         id="path152" />
      <path
         d="m 454.3,225.05 a 1,1 0 1 1 -1,-1 1,1 0 0 1 1,1 z"
         style="fill:#fafafa"
         id="path153" />
    </g>
    <g
       id="freepik--Desk--inject-17"
       transform="matrix(0.26458333,0,0,0.26458333,2.875787,60.44125)">
      <path
         d="m 567.5,307.35 h -78.86 v -2.94 h 75.93 a 2.94,2.94 0 0 1 2.93,2.94 z"
         style="fill:#455a64"
         id="path154" />
      <rect
         x="488.64001"
         y="261.01999"
         width="60.419998"
         height="45.700001"
         rx="3.3399999"
         style="fill:#455a64"
         id="rect154" />
      <rect
         x="491.16"
         y="263.20001"
         width="55.380001"
         height="40.700001"
         style="fill:#fafafa"
         id="rect155" />
      <path
         d="m 546.53,303.9 v -0.75 c 0,-0.5 0,-1.23 0,-2.18 0,-1.9 0,-4.69 0,-8.25 0,-7.11 0,-17.28 0,-29.52 l 0.06,0.05 h -55.37 v 0 l 0.08,-0.07 c 0,14.78 0,28.7 0,40.7 l -0.07,-0.06 h 40.05 11.33 -11.28 -40.1 -0.07 v -0.06 c 0,-12 0,-25.92 0,-40.7 v -0.07 h 55.44 v 0.06 c 0,12.26 0,22.44 0,29.56 0,3.55 0,6.33 0,8.23 0,0.95 0,1.68 0,2.17 0,0.49 -0.07,0.89 -0.07,0.89 z"
         style="fill:#263238"
         id="path155" />
      <path
         d="m 538.25,274.15 h -0.75 -2.16 -8 -27.3 l 0.07,-0.07 v 18.79 l -0.07,-0.07 h 27.11 8 v 0 h -8 L 500,293 h -0.07 v -18.92 h 0.07 27.3 8 2.91 z"
         style="fill:#e0e0e0"
         id="path156" />
      <path
         d="m 538.25,277.31 c 0,0 -8.57,0.07 -19.13,0.07 -10.56,0 -19.12,0 -19.12,-0.07 0,-0.07 8.56,-0.06 19.12,-0.06 10.56,0 19.13,0.03 19.13,0.06 z"
         style="fill:#e0e0e0"
         id="path157" />
      <path
         d="m 538,279.83 c 0,0 -8.56,0.07 -19.12,0.07 -10.56,0 -19.13,0 -19.13,-0.07 0,-0.07 8.56,-0.06 19.13,-0.06 10.57,0 19.12,0.03 19.12,0.06 z"
         style="fill:#e0e0e0"
         id="path158" />
      <path
         d="m 538.25,282.49 c 0,0 -8.57,0.07 -19.13,0.07 -10.56,0 -19.12,0 -19.12,-0.07 0,-0.07 8.56,-0.07 19.12,-0.07 10.56,0 19.13,0.03 19.13,0.07 z"
         style="fill:#e0e0e0"
         id="path159" />
      <path
         d="m 538.25,285.08 c 0,0 -8.57,0.07 -19.13,0.07 -10.56,0 -19.12,0 -19.12,-0.07 0,-0.07 8.56,-0.07 19.12,-0.07 10.56,0 19.13,-0.01 19.13,0.07 z"
         style="fill:#e0e0e0"
         id="path160" />
      <path
         d="m 538.25,287.67 c 0,0 -8.57,0.07 -19.13,0.07 -10.56,0 -19.12,0 -19.12,-0.07 0,-0.07 8.56,-0.07 19.12,-0.07 10.56,0 19.13,0.03 19.13,0.07 z"
         style="fill:#e0e0e0"
         id="path161" />
      <path
         d="m 500,290.26 c 0,0 8.56,-0.07 19.12,-0.07 10.56,0 19.13,0 19.13,0.07 0,0.07 -8.56,0.06 -19.13,0.06 -10.57,0 -19.12,-0.03 -19.12,-0.06 z"
         style="fill:#e0e0e0"
         id="path162" />
      <path
         d="m 507.57,293.23 c 0,0 -0.06,-4.27 -0.06,-9.54 0,-5.27 0,-9.54 0.06,-9.54 0.06,0 0.07,4.27 0.07,9.54 0,5.27 -0.03,9.54 -0.07,9.54 z"
         style="fill:#e0e0e0"
         id="path163" />
      <path
         d="m 515.24,293.23 c 0,0 -0.07,-4.27 -0.07,-9.54 0,-5.27 0,-9.54 0.07,-9.54 0.07,0 0.07,4.27 0.07,9.54 0,5.27 -0.03,9.54 -0.07,9.54 z"
         style="fill:#e0e0e0"
         id="path164" />
      <path
         d="m 522.91,293.23 c 0,0 -0.07,-4.27 -0.07,-9.54 0,-5.27 0,-9.54 0.07,-9.54 0.07,0 0.07,4.27 0.07,9.54 0,5.27 0.02,9.54 -0.07,9.54 z"
         style="fill:#e0e0e0"
         id="path165" />
      <path
         d="m 530.58,293.23 c 0,0 -0.07,-4.27 -0.07,-9.54 0,-5.27 0,-9.54 0.07,-9.54 0.07,0 0.07,4.27 0.07,9.54 0,5.27 -0.03,9.54 -0.07,9.54 z"
         style="fill:#e0e0e0"
         id="path166" />
      <path
         d="m 538.25,293.23 c 0,0 -0.07,-4.27 -0.07,-9.54 0,-5.27 0,-9.54 0.07,-9.54 0.07,0 0.07,4.27 0.07,9.54 0,5.27 -0.03,9.54 -0.07,9.54 z"
         style="fill:#e0e0e0"
         id="path167" />
      <path
         d="m 538.25,277.31 a 2.21,2.21 0 0 1 -0.29,0.23 l -0.86,0.61 -3.21,2.21 c -2.73,1.88 -6.56,4.48 -10.9,7.42 h -0.06 -0.06 l -3.26,-1.09 -4.41,-1.49 h 0.12 l -7.69,5.15 v 0 l -5.55,1.92 -1.52,0.51 -0.4,0.13 h -0.14 a 0.5,0.5 0 0 1 0.13,-0.06 l 0.39,-0.16 1.5,-0.56 5.52,-2 v 0 l 7.66,-5.2 h 0.05 0.06 l 4.42,1.49 3.25,1.1 h -0.11 c 4.35,-2.94 8.19,-5.51 10.95,-7.34 l 3.26,-2.15 0.88,-0.57 a 2.46,2.46 0 0 1 0.27,-0.15 z"
         style="fill:#1f81da"
         id="path168" />
      <circle
         cx="507.57001"
         cy="290.26001"
         r="0.47"
         style="fill:#1f81da"
         id="circle168" />
      <circle
         cx="515.23999"
         cy="285.07999"
         r="0.47"
         style="fill:#1f81da"
         id="circle169" />
      <circle
         cx="522.90997"
         cy="287.62"
         r="0.47"
         style="fill:#1f81da"
         id="circle170" />
      <circle
         cx="530.65997"
         cy="282.51001"
         r="0.47"
         style="fill:#1f81da"
         id="circle171" />
      <path
         d="m 538.25,290.26 -0.15,-0.08 -0.41,-0.26 -1.55,-1 -5.62,-3.7 h 0.12 l -7.64,5.14 -0.1,0.07 -0.08,-0.1 -4,-5.43 c -1.25,-1.7 -2.48,-3.35 -3.63,-4.92 h 0.2 l -7.7,7.74 v 0 0 l -5.7,1.85 -1.56,0.49 -0.41,0.12 h -0.14 c 0,0 0,0 0.13,-0.06 l 0.4,-0.15 1.54,-0.54 5.67,-1.94 v 0 l 7.65,-7.79 0.11,-0.11 0.09,0.12 3.64,4.92 c 1.41,1.89 2.76,3.73 4,5.44 h -0.18 l 7.68,-5.11 h 0.06 0.06 l 5.57,3.78 1.52,1.05 0.39,0.28 z"
         style="fill:#455a64"
         id="path171" />
      <circle
         cx="515.23999"
         cy="279.89999"
         r="0.47"
         style="fill:#455a64"
         id="circle172" />
      <circle
         cx="507.57001"
         cy="287.67001"
         r="0.47"
         style="fill:#455a64"
         id="circle173" />
      <circle
         cx="522.90997"
         cy="290.26001"
         r="0.47"
         style="fill:#455a64"
         id="circle174" />
      <circle
         cx="530.58002"
         cy="285.54999"
         r="0.47"
         style="fill:#455a64"
         id="circle175" />
      <path
         d="m 504.37,295.08 a 2,2 0 0 1 -0.74,0.07 2,2 0 0 1 -0.74,-0.07 2.31,2.31 0 0 1 0.74,-0.07 2.26,2.26 0 0 1 0.74,0.07 z"
         style="fill:#e0e0e0"
         id="path175" />
      <path
         d="m 512.21,295.08 a 3.95,3.95 0 0 1 -1.48,0 3.95,3.95 0 0 1 1.48,0 z"
         style="fill:#e0e0e0"
         id="path176" />
      <path
         d="m 520.05,295.08 a 3.95,3.95 0 0 1 -1.48,0 3.95,3.95 0 0 1 1.48,0 z"
         style="fill:#e0e0e0"
         id="path177" />
      <path
         d="m 527.89,295.08 a 2,2 0 0 1 -0.74,0.07 2,2 0 0 1 -0.74,-0.07 2.26,2.26 0 0 1 0.74,-0.07 2.31,2.31 0 0 1 0.74,0.07 z"
         style="fill:#e0e0e0"
         id="path178" />
      <path
         d="m 535.72,295.08 a 2,2 0 0 1 -0.74,0.07 1.94,1.94 0 0 1 -0.73,-0.07 2.22,2.22 0 0 1 0.75,-0.08 2.26,2.26 0 0 1 0.72,0.08 z"
         style="fill:#e0e0e0"
         id="path179" />
      <path
         d="m 498.92,292.84 a 1.63,1.63 0 0 1 -0.6,0.06 1.56,1.56 0 0 1 -0.59,-0.06 1.27,1.27 0 0 1 0.59,-0.07 1.33,1.33 0 0 1 0.6,0.07 z"
         style="fill:#e0e0e0"
         id="path180" />
      <path
         d="m 498.92,289.83 a 1.63,1.63 0 0 1 -0.6,0.06 1.56,1.56 0 0 1 -0.59,-0.06 1.27,1.27 0 0 1 0.59,-0.07 1.33,1.33 0 0 1 0.6,0.07 z"
         style="fill:#e0e0e0"
         id="path181" />
      <path
         d="m 498.92,286.82 a 1.63,1.63 0 0 1 -0.6,0.06 1.56,1.56 0 0 1 -0.59,-0.06 1.27,1.27 0 0 1 0.59,-0.07 1.33,1.33 0 0 1 0.6,0.07 z"
         style="fill:#e0e0e0"
         id="path182" />
      <path
         d="m 498.92,283.81 a 1.63,1.63 0 0 1 -0.6,0.06 1.56,1.56 0 0 1 -0.59,-0.06 1.27,1.27 0 0 1 0.59,-0.07 1.33,1.33 0 0 1 0.6,0.07 z"
         style="fill:#e0e0e0"
         id="path183" />
      <path
         d="m 498.92,280.8 a 1.63,1.63 0 0 1 -0.6,0.06 1.56,1.56 0 0 1 -0.59,-0.06 1.27,1.27 0 0 1 0.59,-0.07 1.33,1.33 0 0 1 0.6,0.07 z"
         style="fill:#e0e0e0"
         id="path184" />
      <path
         d="m 498.92,277.79 a 1.63,1.63 0 0 1 -0.6,0.06 1.56,1.56 0 0 1 -0.59,-0.06 1.27,1.27 0 0 1 0.59,-0.07 1.33,1.33 0 0 1 0.6,0.07 z"
         style="fill:#e0e0e0"
         id="path185" />
      <path
         d="m 498.92,274.78 a 1.63,1.63 0 0 1 -0.6,0.06 1.56,1.56 0 0 1 -0.59,-0.06 1.27,1.27 0 0 1 0.59,-0.07 1.33,1.33 0 0 1 0.6,0.07 z"
         style="fill:#e0e0e0"
         id="path186" />
      <rect
         x="499.79999"
         y="267.64001"
         width="10.99"
         height="0.77999997"
         style="fill:#1f81da"
         id="rect186" />
      <path
         d="m 530.41,269.92 c 0,0 -6.87,0.07 -15.34,0.07 -8.47,0 -15.35,0 -15.35,-0.07 0,-0.07 6.87,-0.07 15.35,-0.07 8.48,0 15.34,0.03 15.34,0.07 z"
         style="fill:#263238"
         id="path187" />
      <path
         d="m 519.2,298.84 c 0,0 -4.19,0.07 -9.36,0.07 -5.17,0 -9.35,0 -9.35,-0.07 0,-0.07 4.18,-0.07 9.35,-0.07 5.17,0 9.36,0.03 9.36,0.07 z"
         style="fill:#263238"
         id="path188" />
      <path
         d="m 505,300.25 a 14.16,14.16 0 0 1 -2,0.07 14,14 0 0 1 -2,-0.07 17.36,17.36 0 0 1 2,-0.06 17.62,17.62 0 0 1 2,0.06 z"
         style="fill:#263238"
         id="path189" />
      <path
         d="m 536.16,298.59 c 0,0 -3,0.07 -6.65,0.07 -3.65,0 -6.65,0 -6.65,-0.07 0,-0.07 3,-0.07 6.65,-0.07 3.65,0 6.65,0.03 6.65,0.07 z"
         style="fill:#263238"
         id="path190" />
      <path
         d="m 528.93,299.51 a 36.08,36.08 0 0 1 -4.16,0 30.94,30.94 0 0 1 4.16,0 z"
         style="fill:#263238"
         id="path191" />
      <polygon
         points="209.69,465.03 202.05,465.03 218.57,318.89 232.59,323.83 "
         style="fill:#263238"
         id="polygon191" />
      <polygon
         points="209.69,465.03 202.05,465.03 218.57,318.89 232.59,323.83 "
         style="fill:#263238"
         id="polygon191-5"
         transform="matrix(-1,0,0,1,813.757,0.50562624)" />
      <rect
         x="334.29126"
         y="307.17999"
         width="241.14244"
         height="18.49"
         style="fill:#455a64;stroke-width:0.755258"
         id="rect191" />
      <path
         d="m 385.37751,307.46 a 1.1408276,2 0 0 1 -0.0798,0.2 l -0.251,0.55 a 4.9968248,8.76 0 0 1 -1.21497,1.7 6.7023621,11.75 0 0 1 -2.32729,1.37 16.302426,28.58 0 0 1 -3.25135,0.25 31.156001,54.62 0 0 1 -3.90734,-0.79 35.171715,61.66 0 0 0 -4.45494,-0.93 c -3.16009,-0.2 -6.59398,1.25 -10.02787,3.41 -3.43389,2.16 -6.65672,4.61 -9.73126,6.1 a 26.621212,46.67 0 0 1 -4.43781,1.54 18.532744,32.49 0 0 1 -3.94156,0 13.490286,23.65 0 0 1 -5.40752,-3 8.4991658,14.9 0 0 1 -1.67132,-2.19 c 0,0 0.0457,0 0.11979,0.13 l 0.31943,0.42 a 11.24856,19.72 0 0 0 1.28913,1.46 13.627186,23.89 0 0 0 5.3733,2.84 18.253242,32 0 0 0 3.89592,-0.05 26.883603,47.13 0 0 0 4.38649,-1.57 c 3.05172,-1.51 6.27455,-4 9.69704,-6.13 3.42247,-2.13 6.91911,-3.62 10.13054,-3.4 a 34.795241,61 0 0 1 4.48916,1 32.32535,56.67 0 0 0 3.87882,0.84 16.199752,28.4 0 0 0 3.21713,-0.17 6.9590483,12.2 0 0 0 2.28165,-1.25 6.1946938,10.86 0 0 0 1.62568,-2.33 z"
         style="fill:#263238;stroke-width:0.755258"
         id="path192" />
      <path
         d="m 358.99587,307.74 a 6.6738413,11.7 0 0 1 -0.73013,1.09 16.775869,29.41 0 0 1 -2.1961,2.48 19.194424,33.65 0 0 1 -3.5993,2.57 19.827584,34.76 0 0 1 -4.70022,1.29 17.996555,31.55 0 0 1 -8.4079,-3 5.3447772,9.37 0 0 1 -2.02497,-2.91 2.9319269,5.14 0 0 1 -0.33654,-1.12 c -0.0456,-0.27 -0.0685,-0.41 -0.057,-0.42 a 5.9208952,10.38 0 0 0 0.48486,1.42 5.5330138,9.7 0 0 0 2.03067,2.7 18.715277,32.81 0 0 0 8.29952,2.85 19.337027,33.9 0 0 0 8.20826,-3.69 19.639347,34.43 0 0 0 2.2246,-2.32 5.7897,10.15 0 0 1 0.8043,-0.94 z"
         style="fill:#263238;stroke-width:0.755258"
         id="path193" />
      <path
         d="m 415.58091,319.45 0.37077,0.24 a 7.483829,13.12 0 0 0 1.11231,0.52 6.5825752,11.54 0 0 0 4.22106,-1.16 v 0.24 a 10.050691,17.62 0 0 0 -5.23069,-3.58 10.193294,17.87 0 0 0 -6.80504,3.1 1.1408276,2 0 0 0 -0.53048,1.2 0.7358338,1.29 0 0 0 0.45062,1.19 3.14298,5.51 0 0 0 0.93548,0.58 l 1.02674,0.41 c 1.38041,0.54 2.80644,1.07 4.28381,1.45 a 25.47468,44.66 0 0 0 4.56332,0.54 17.158046,30.08 0 0 0 2.33869,-0.39 c 0.38788,-0.12 0.77576,-0.25 1.14083,-0.43 a 6.0121614,10.54 0 0 0 1.14082,-0.64 3.6962813,6.48 0 0 0 1.46027,-1.85 1.6599041,2.91 0 0 0 0.2795,-2.84 2.7265779,4.78 0 0 0 -1.14083,-2.24 9.2007743,16.13 0 0 0 -1.59716,-1.37 22.017972,38.6 0 0 0 -6.72518,-2.42 27.727815,48.61 0 0 0 -11.40828,3.11 28.058655,49.19 0 0 0 -6.87918,6.59 c -0.73584,1 -1.30624,1.78 -1.66561,2.36 l -0.42782,0.64 -0.14829,0.2 c 0,0 0.04,-0.09 0.13118,-0.24 l 0.405,-0.67 c 0.34795,-0.61 0.90696,-1.43 1.63138,-2.45 a 27.859009,48.84 0 0 1 18.40155,-10 22.09783,38.74 0 0 1 6.78792,2.44 9.2407033,16.2 0 0 1 1.65421,1.42 3.017489,5.29 0 0 1 1.26632,2.49 1.9679276,3.45 0 0 1 -0.32514,3.34 3.9928966,7 0 0 1 -1.57434,2 6.2745517,11 0 0 1 -1.17506,0.67 c -0.39358,0.18 -0.78717,0.31 -1.18645,0.43 a 16.781574,29.42 0 0 1 -2.37863,0.4 25.480384,44.67 0 0 1 -4.60324,-0.56 c -1.48307,-0.39 -2.91482,-0.93 -4.29521,-1.48 l -1.02675,-0.42 a 3.3768497,5.92 0 0 1 -1.01534,-0.63 1.3689931,2.4 0 0 1 -0.4221,-0.65 0.84421243,1.48 0 0 1 -0.15402,-1 1.3347683,2.34 0 0 1 0.63887,-1.52 10.387235,18.21 0 0 1 6.97616,-3.11 10.18759,17.86 0 0 1 5.31625,3.73 l 0.097,0.14 -0.10839,0.1 a 6.5939835,11.56 0 0 1 -4.31232,1.06 4.8028842,8.42 0 0 1 -1.49449,-0.94 z"
         style="fill:#263238;stroke-width:0.755258"
         id="path194" />
      <path
         d="m 446.61142,307.94 a 1.5401173,2.7 0 0 1 0.23387,0.93 3.8959262,6.83 0 0 1 0.15972,2.77 7.820373,13.71 0 0 1 -2.3444,8.07 11.893128,20.85 0 0 1 -2.19609,3.27 9.8909757,17.34 0 0 1 -2.11624,1.8 10.341602,18.13 0 0 1 -1.53441,0.67 2.4242586,4.25 0 0 1 -0.57041,0.09 c 0,-0.1 0.80999,-0.3 2.03638,-1.11 a 10.455685,18.33 0 0 0 2.04207,-1.85 12.691707,22.25 0 0 0 2.12765,-3.23 7.9857929,14 0 0 0 2.35581,-7.75 5.7954042,10.16 0 0 0 -0.19395,-3.66 z"
         style="fill:#263238;stroke-width:0.755258"
         id="path195" />
      <path
         d="m 489.91153,324.7 a 12.879944,22.58 0 0 0 -1.10659,-1.89 7.8260773,13.72 0 0 0 -3.77044,-3 8.3166334,14.58 0 0 0 -2.85207,0.14 12.463541,21.85 0 0 1 -3.36544,0.55 c -1.23781,-0.2 -2.35011,-1.51 -3.35404,-2.89 a 11.453909,20.08 0 0 0 -3.36544,-3.5 12.37798,21.7 0 0 0 -7.47812,-0.2 17.93381,31.44 0 0 0 -5.53302,4.91 30.745304,53.9 0 0 0 -3.20573,4.8 l -0.81569,1.42 a 2.8520689,5 0 0 1 -0.29661,0.48 1.6542,2.9 0 0 1 0.25098,-0.55 c 0.17112,-0.35 0.43352,-0.86 0.78148,-1.49 a 26.957756,47.26 0 0 1 3.16008,-4.95 17.739869,31.1 0 0 1 5.58436,-5.08 12.509174,21.93 0 0 1 7.65495,0.17 11.636442,20.4 0 0 1 3.42248,3.59 c 1.00393,1.37 2.04779,2.61 3.20573,2.81 a 12.492062,21.9 0 0 0 3.29698,-0.49 8.5562067,15 0 0 1 2.94334,-0.09 7.7747398,13.63 0 0 1 3.81037,3.19 5.0766827,8.9 0 0 1 1.03244,2.07 z"
         style="fill:#263238;stroke-width:0.755258"
         id="path196" />
      <path
         d="m 528.57418,307.36 a 1.9622235,3.44 0 0 1 -0.26239,0.63 12.452133,21.83 0 0 1 -0.8271,1.72 22.171984,38.87 0 0 1 -3.51946,5.48 28.395199,49.78 0 0 1 -6.10342,5.94 24.904266,43.66 0 0 1 -3.94155,2.2 20.095678,35.23 0 0 1 -4.4036,1 21.709949,38.06 0 0 1 -8.36227,-3 28.001613,49.09 0 0 1 -6.0749,-6 23.72351,41.59 0 0 1 -3.49664,-5.53 c -0.38789,-0.7 -0.63887,-1.32 -0.8271,-1.71 a 3.1144593,5.46 0 0 1 -0.2624,-0.63 2.8919979,5.07 0 0 1 0.31374,0.56 c 0.19964,0.37 0.46203,1 0.86132,1.65 a 25.896787,45.4 0 0 0 3.53656,5.37 28.440832,49.86 0 0 0 6.05209,5.89 21.727061,38.09 0 0 0 8.25389,3 20.010116,35.08 0 0 0 4.34656,-1 25.372006,44.48 0 0 0 3.90163,-2.15 28.800192,50.49 0 0 0 6.08631,-5.79 24.276811,42.56 0 0 0 3.55938,-5.32 c 0.39929,-0.67 0.65598,-1.28 0.86133,-1.65 a 2.6353117,4.62 0 0 1 0.30802,-0.66 z"
         style="fill:#263238;stroke-width:0.755258"
         id="path197" />
      <path
         d="m 523.05257,307.18 c 0,0 -0.0685,0.12 -0.20534,0.29 -0.1369,0.17 -0.34795,0.44 -0.62746,0.75 a 25.668621,45 0 0 1 -2.41285,2.39 26.056502,45.68 0 0 1 -3.81607,2.73 17.112414,30 0 0 1 -4.97971,1.49 20.534897,36 0 0 1 -8.84141,-3.92 19.924553,34.93 0 0 1 -2.39574,-2.46 c -0.27379,-0.32 -0.46774,-0.6 -0.60464,-0.79 a 0.91836619,1.61 0 0 1 -0.19964,-0.3 8.2881126,14.53 0 0 1 0.86702,0.92 25.959532,45.51 0 0 0 2.42426,2.3 21.304955,37.35 0 0 0 8.75015,3.73 17.334876,30.39 0 0 0 4.89985,-1.43 27.830489,48.79 0 0 0 3.80467,-2.6 c 1.04955,-0.87 1.88236,-1.66 2.44707,-2.24 a 7.5408708,13.22 0 0 1 0.88984,-0.86 z"
         style="fill:#263238;stroke-width:0.755258"
         id="path198" />
      <path
         d="m 547.56896,309.08 h -0.2795 l -0.80428,-0.08 -0.57042,-0.07 h -0.67879 c -0.48485,0 -1.04386,0 -1.6542,0 l -0.95829,0.1 -1.03246,0.21 c -0.71871,0.11 -1.47166,0.4 -2.28166,0.64 a 34.184899,59.93 0 0 0 -5.04245,2.63 36.072969,63.24 0 0 0 -4.72302,4.07 c -0.6788,0.78 -1.34618,1.45 -1.91659,2.22 l -0.84992,1.07 -0.71872,1.13 c -0.48486,0.65 -0.88414,1.32 -1.24351,1.9 l -0.50766,0.8 -0.39359,0.71 -0.57042,1 a 1.1408276,2 0 0 1 -0.21104,0.32 c 0,0 0.0513,-0.15 0.16542,-0.39 l 0.51907,-1 0.38217,-0.76 0.48486,-0.83 c 0.35365,-0.6 0.74724,-1.3 1.23209,-2 l 0.74154,-1.09 c 0.2681,-0.36 0.57042,-0.72 0.84421,-1.1 0.57042,-0.79 1.2378,-1.49 1.9166,-2.28 a 33.300757,58.38 0 0 1 4.75724,-4.14 32.707526,57.34 0 0 1 5.0938,-2.62 c 0.80998,-0.23 1.56863,-0.51 2.28165,-0.6 l 1.04386,-0.19 0.96971,-0.05 a 14.408652,25.26 0 0 1 1.66561,0 l 0.68449,0.05 0.57042,0.12 0.78717,0.19 a 0.75865032,1.33 0 0 1 0.29661,0.04 z"
         style="fill:#263238;stroke-width:0.755258"
         id="path199" />
      <path
         d="m 557.89345,305.45 c 0,0 0,0.13 0,0.35 a 4.4777483,7.85 0 0 1 -0.0513,1 8.0485387,14.11 0 0 1 -0.57043,3.55 11.830382,20.74 0 0 1 -4.50056,9.06 23.626539,41.42 0 0 1 -6.343,4.75 c -0.84991,0.42 -1.54011,0.72 -2.01926,0.92 a 4.5119731,7.91 0 0 1 -0.75295,0.25 3.6506483,6.4 0 0 1 0.71871,-0.45 l 1.99075,-1.08 a 25.577355,44.84 0 0 0 6.26315,-4.8 10.872088,19.06 0 0 0 5.26492,-13.55 z"
         style="fill:#263238;stroke-width:0.755258"
         id="path200" />
      <path
         d="m 494.24668,324.33 a 11.237152,19.7 0 0 0 -1.32906,-2.77 12.292417,21.55 0 0 0 -4.85993,-4.76 26.592691,46.62 0 0 0 -3.79325,-1.47 c -1.3804,-0.38 -2.85207,-0.69 -4.43211,-1.16 a 37.344991,65.47 0 0 1 -4.8143,-2.11 30.950653,54.26 0 0 0 -5.13373,-2.18 21.396222,37.51 0 0 0 -10.01075,2.42 36.420921,63.85 0 0 0 -4.06705,3.21 c -1.24921,1.12 -2.39004,2.22 -3.42249,3.25 -2.07631,2.06 -3.73051,3.81 -4.86562,5 l -1.31196,1.41 -0.34224,0.36 c -0.0799,0.08 -0.11979,0.12 -0.1255,0.11 a 0.49055587,0.86 0 0 1 0.10837,-0.15 l 0.32515,-0.41 c 0.29091,-0.35 0.71871,-0.85 1.28343,-1.49 1.14082,-1.27 2.75509,-3.07 4.81999,-5.18 1.03815,-1.05 2.17328,-2.17 3.42248,-3.31 a 35.451217,62.15 0 0 1 4.08987,-3.28 21.40763,37.53 0 0 1 10.13626,-2.48 31.304309,54.88 0 0 1 5.18506,2.2 37.647311,66 0 0 0 4.77436,2.13 c 1.55152,0.48 3.0403,0.8 4.42641,1.21 a 25.446159,44.61 0 0 1 3.81607,1.54 12.018619,21.07 0 0 1 4.87704,5 6.1775814,10.83 0 0 1 1.2435,2.91 z"
         style="fill:#263238;stroke-width:0.755258"
         id="path201" />
      <path
         d="m 439.93188,307.46 a 2.5098207,4.4 0 0 1 -0.0342,1.18 8.094172,14.19 0 0 1 -0.47344,3.12 10.193294,17.87 0 0 1 -3.70769,8.31 24.630468,43.18 0 0 1 -5.49309,4.43 c -0.73582,0.43 -1.33476,0.74 -1.75116,0.93 a 3.0460097,5.34 0 0 1 -0.66168,0.24 3.0802345,5.4 0 0 1 0.62745,-0.44 l 1.71124,-1.07 a 28.743151,50.39 0 0 0 5.40182,-4.52 10.592585,18.57 0 0 0 3.67347,-8 14.671043,25.72 0 0 0 0.70732,-4.18 z"
         style="fill:#263238;stroke-width:0.755258"
         id="path202" />
      <path
         d="m 383.95147,325.67 a 4.055642,7.11 0 0 1 0.57041,-1 c 0.38789,-0.62 0.97541,-1.46 1.71125,-2.46 a 49.580367,86.92 0 0 1 6.14906,-7 c 2.50411,-2.42 4.84851,-4.35 6.54834,-5.71 0.84992,-0.69 1.54012,-1.23 2.01927,-1.59 a 3.884518,6.81 0 0 1 0.75865,-0.51 4.1240918,7.23 0 0 1 -0.70731,0.69 l -1.98504,1.74 c -1.67132,1.45 -3.9929,3.43 -6.49131,5.84 a 59.836407,104.9 0 0 0 -6.16617,6.78 c -0.75865,1 -1.36329,1.76 -1.76829,2.33 a 4.4549318,7.81 0 0 1 -0.63886,0.89 z"
         style="fill:#263238;stroke-width:0.755258"
         id="path203" />
      <path
         d="m 395.32552,308.21 c 0,0.06 -0.57041,-0.12 -1.55723,0 a 10.991874,19.27 0 0 0 -4.02142,2.14 37.362103,65.5 0 0 0 -5.2307,6.15 26.415863,46.31 0 0 1 -3.14297,3.58 17.831135,31.26 0 0 1 -3.76473,2.54 34.983477,61.33 0 0 1 -7.70629,1.62 c -2.38433,0.12 -4.52338,0 -6.32019,0.17 a 31.891835,55.91 0 0 0 -4.22676,0.72 c -0.49056,0.16 -0.87274,0.29 -1.14083,0.4 a 2.1333476,3.74 0 0 1 -0.39929,0.13 1.5914545,2.79 0 0 1 0.38217,-0.23 c 0.25099,-0.14 0.63317,-0.3 1.14084,-0.5 a 27.704998,48.57 0 0 1 4.24387,-0.89 c 1.80251,-0.18 3.94727,-0.13 6.32019,-0.28 a 35.656566,62.51 0 0 0 7.63784,-1.65 17.648603,30.94 0 0 0 3.70198,-2.48 27.117472,47.54 0 0 0 3.12017,-3.52 36.06156,63.22 0 0 1 5.25921,-6.11 10.7523,18.85 0 0 1 4.10698,-2 6.8449656,12 0 0 1 1.14083,0.07 1.9222945,3.37 0 0 1 0.45633,0.14 z"
         style="fill:#263238;stroke-width:0.755258"
         id="path204" />
      <path
         d="m 545.70371,307.11 c 0,0.14 -10.07921,0.26 -22.50282,0.26 -12.42362,0 -22.51424,-0.12 -22.51424,-0.26 0,-0.14 10.07921,-0.26 22.51424,-0.26 12.43501,0 22.50282,0.15 22.50282,0.26 z"
         style="fill:#263238;stroke-width:0.755258"
         id="path205" />
      <rect
         x="343.39001"
         y="298.88"
         width="56.970001"
         height="8.5100002"
         style="fill:#263238"
         id="rect205" />
      <rect
         x="343.39001"
         y="300.85001"
         width="15.06"
         height="4.5799999"
         style="fill:#e0e0e0"
         id="rect206" />
      <rect
         x="348.47"
         y="290.37"
         width="56.970001"
         height="8.5100002"
         style="fill:#1f81da"
         id="rect207" />
      <rect
         x="366.81"
         y="292.41"
         width="38.639999"
         height="4.2600002"
         style="fill:#e0e0e0"
         id="rect208" />
      <rect
         x="339.95999"
         y="281.85999"
         width="56.970001"
         height="8.5100002"
         transform="rotate(180,368.45,286.11)"
         style="fill:#263238"
         id="rect209" />
      <rect
         x="381.87"
         y="283.82001"
         width="15.06"
         height="4.5799999"
         transform="rotate(180,389.405,286.11)"
         style="fill:#e0e0e0"
         id="rect210" />
    </g>
  </g>
</svg>
