<?xml version="1.0" encoding="UTF-8" standalone="no"?>
<!-- Created with Inkscape (http://www.inkscape.org/) -->

<svg
   width="65.399902mm"
   height="124.40215mm"
   viewBox="0 0 65.399902 124.40215"
   version="1.1"
   id="svg1"
   xmlns:inkscape="http://www.inkscape.org/namespaces/inkscape"
   xmlns:sodipodi="http://sodipodi.sourceforge.net/DTD/sodipodi-0.dtd"
   xmlns="http://www.w3.org/2000/svg"
   xmlns:svg="http://www.w3.org/2000/svg">
  <sodipodi:namedview
     id="namedview1"
     pagecolor="#ffffff"
     bordercolor="#000000"
     borderopacity="0.25"
     inkscape:showpageshadow="2"
     inkscape:pageopacity="0.0"
     inkscape:pagecheckerboard="0"
     inkscape:deskcolor="#d1d1d1"
     inkscape:document-units="mm">
    <inkscape:page
       x="0"
       y="0"
       width="65.399902"
       height="124.40215"
       id="page2"
       margin="0"
       bleed="0" />
  </sodipodi:namedview>
  <defs
     id="defs1" />
  <g
     inkscape:label="Layer 1"
     inkscape:groupmode="layer"
     id="layer1"
     transform="translate(-92.339587,-36.247918)">
    <g
       id="freepik--background-complete--inject-17"
       transform="matrix(0.26458333,0,0,0.26458333,5.0429573,35.136667)">
      <polygon
         points="330.68,465.62 369.71,465.62 369.71,441.42 295.29,441.42 295.29,465.62 "
         style="fill:#f5f5f5"
         id="polygon1"
         transform="translate(193.94983)" />
      <polygon
         points="372.31,441.42 372.31,434.66 330.68,434.66 292.17,434.66 292.17,441.42 "
         style="fill:#e0e0e0"
         id="polygon2"
         transform="translate(193.94983)" />
      <polygon
         points="369.71,465.62 369.71,441.42 372.31,441.42 372.31,434.66 330.68,434.66 330.68,440.8 332.24,465.62 "
         style="fill:#e0e0e0"
         id="polygon3"
         transform="translate(193.94983)" />
      <rect
         x="499.64984"
         y="445.32001"
         width="15.09"
         height="3.6400001"
         style="fill:#e0e0e0"
         id="rect3" />
      <rect
         x="497.70984"
         y="453.51999"
         width="19.379999"
         height="7.6900001"
         style="fill:#ffffff"
         id="rect4" />
      <polygon
         points="337.52,434.68 376.55,434.68 376.55,410.48 302.13,410.48 302.13,434.68 "
         style="fill:#f5f5f5"
         id="polygon4"
         transform="translate(193.94983)" />
      <polygon
         points="379.15,410.48 379.15,403.71 337.52,403.71 299.01,403.71 299.01,410.48 "
         style="fill:#e0e0e0"
         id="polygon5"
         transform="translate(193.94983)" />
      <polygon
         points="376.55,434.68 376.55,410.48 379.15,410.48 379.15,403.71 337.52,403.71 337.52,409.85 339.08,434.68 "
         style="fill:#e0e0e0"
         id="polygon6"
         transform="translate(193.94983)" />
      <rect
         x="506.48984"
         y="414.38"
         width="15.09"
         height="3.6400001"
         style="fill:#e0e0e0"
         id="rect6" />
      <rect
         x="504.54984"
         y="422.57999"
         width="19.379999"
         height="7.6900001"
         style="fill:#ffffff"
         id="rect7" />
      <rect
         x="355.82001"
         y="158.33"
         width="77.5"
         height="69.339996"
         style="fill:#fafafa"
         id="rect23" />
      <path
         d="m 433.32,227.67 c 0,0 0,-0.44 0,-1.29 0,-0.85 0,-2.09 0,-3.71 0,-3.26 0,-8 0,-14.08 0,-12.11 -0.06,-29.42 -0.09,-50.26 l 0.17,0.18 h -77.49 v 0 l 0.21,-0.21 c 0,25.23 0,49 0,69.34 l -0.18,-0.18 56.06,0.09 h 15.81 4.18 v 0 h -4.15 -15.77 l -56.17,0.09 h -0.18 v -0.18 c 0,-20.37 0,-44.11 0,-69.34 v -0.2 h 0.22 77.49 0.18 v 0.17 c 0,20.88 -0.07,38.23 -0.09,50.37 0,6.05 0,10.79 -0.05,14 0,1.61 0,2.84 0,3.68 0,0.84 -0.15,1.53 -0.15,1.53 z"
         style="fill:#e0e0e0"
         id="path24" />
      <path
         d="m 385.54,170.65 c 0,0.12 -4.08,0.21 -9.11,0.21 -5.03,0 -9.11,-0.09 -9.11,-0.21 0,-0.12 4.07,-0.2 9.11,-0.2 5.04,0 9.11,0.09 9.11,0.2 z"
         style="fill:#e0e0e0"
         id="path25" />
      <path
         d="m 418.38,175.86 c 0,0.11 -11.21,0.21 -25,0.21 -13.79,0 -25,-0.1 -25,-0.21 0,-0.11 11.2,-0.21 25,-0.21 13.8,0 25,0.09 25,0.21 z"
         style="fill:#e0e0e0"
         id="path26" />
      <rect
         x="367.45001"
         y="184.67999"
         width="3.27"
         height="3.27"
         style="fill:#e0e0e0"
         id="rect26" />
      <rect
         x="375.48999"
         y="184.67999"
         width="3.27"
         height="3.27"
         style="fill:#e0e0e0"
         id="rect27" />
      <rect
         x="383.67001"
         y="184.53"
         width="3.27"
         height="3.27"
         style="fill:#e0e0e0"
         id="rect28" />
      <rect
         x="391.56"
         y="184.67999"
         width="3.27"
         height="3.27"
         style="fill:#e0e0e0"
         id="rect29" />
      <rect
         x="399.60001"
         y="184.67999"
         width="3.27"
         height="3.27"
         style="fill:#e0e0e0"
         id="rect30" />
      <rect
         x="407.64001"
         y="184.67999"
         width="3.27"
         height="3.27"
         style="fill:#e0e0e0"
         id="rect31" />
      <rect
         x="415.67001"
         y="184.67999"
         width="3.27"
         height="3.27"
         style="fill:#ebebeb"
         id="rect32" />
      <rect
         x="367.45001"
         y="191.62"
         width="3.27"
         height="3.27"
         style="fill:#ebebeb"
         id="rect33" />
      <rect
         x="375.48999"
         y="191.62"
         width="3.27"
         height="3.27"
         style="fill:#e0e0e0"
         id="rect34" />
      <rect
         x="383.51999"
         y="191.62"
         width="3.27"
         height="3.27"
         style="fill:#ebebeb"
         id="rect35" />
      <rect
         x="391.56"
         y="191.62"
         width="3.27"
         height="3.27"
         style="fill:#e0e0e0"
         id="rect36" />
      <rect
         x="399.60001"
         y="191.62"
         width="3.27"
         height="3.27"
         style="fill:#e0e0e0"
         id="rect37" />
      <rect
         x="407.78"
         y="191.47"
         width="3.27"
         height="3.27"
         style="fill:#e0e0e0"
         id="rect38" />
      <rect
         x="415.67001"
         y="191.62"
         width="3.27"
         height="3.27"
         style="fill:#e0e0e0"
         id="rect39" />
      <rect
         x="367.45001"
         y="198.56"
         width="3.27"
         height="3.27"
         style="fill:#e0e0e0"
         id="rect40" />
      <rect
         x="375.64001"
         y="198.41"
         width="3.27"
         height="3.27"
         style="fill:#e0e0e0"
         id="rect41" />
      <rect
         x="383.51999"
         y="198.56"
         width="3.27"
         height="3.27"
         style="fill:#e0e0e0"
         id="rect42" />
      <rect
         x="391.56"
         y="198.56"
         width="3.27"
         height="3.27"
         style="fill:#ebebeb"
         id="rect43" />
      <rect
         x="399.60001"
         y="198.56"
         width="3.27"
         height="3.27"
         style="fill:#e0e0e0"
         id="rect44" />
      <rect
         x="407.64001"
         y="198.56"
         width="3.27"
         height="3.27"
         style="fill:#e0e0e0"
         id="rect45" />
      <rect
         x="415.67001"
         y="198.56"
         width="3.27"
         height="3.27"
         style="fill:#e0e0e0"
         id="rect46" />
      <rect
         x="367.45001"
         y="205.5"
         width="3.27"
         height="3.27"
         style="fill:#e0e0e0"
         id="rect47" />
      <rect
         x="375.48999"
         y="205.5"
         width="3.27"
         height="3.27"
         style="fill:#e0e0e0"
         id="rect48" />
      <rect
         x="383.51999"
         y="205.5"
         width="3.27"
         height="3.27"
         style="fill:#e0e0e0"
         id="rect49" />
      <rect
         x="391.70999"
         y="205.35001"
         width="3.27"
         height="3.27"
         style="fill:#e0e0e0"
         id="rect50" />
      <rect
         x="399.60001"
         y="205.5"
         width="3.27"
         height="3.27"
         style="fill:#e0e0e0"
         id="rect51" />
      <rect
         x="407.64001"
         y="205.5"
         width="3.27"
         height="3.27"
         style="fill:#ebebeb"
         id="rect52" />
      <rect
         x="415.67001"
         y="205.5"
         width="3.27"
         height="3.27"
         style="fill:#e0e0e0"
         id="rect53" />
      <rect
         x="367.45001"
         y="212.44"
         width="3.27"
         height="3.27"
         style="fill:#e0e0e0"
         id="rect54" />
      <rect
         x="375.48999"
         y="212.44"
         width="3.27"
         height="3.27"
         style="fill:#ebebeb"
         id="rect55" />
      <rect
         x="383.51999"
         y="212.44"
         width="3.27"
         height="3.27"
         style="fill:#e0e0e0"
         id="rect56" />
      <rect
         x="391.56"
         y="212.44"
         width="3.27"
         height="3.27"
         style="fill:#e0e0e0"
         id="rect57" />
      <rect
         x="399.60001"
         y="212.44"
         width="3.27"
         height="3.27"
         style="fill:#e0e0e0"
         id="rect58" />
      <rect
         x="407.78"
         y="212.3"
         width="3.27"
         height="3.27"
         style="fill:#e0e0e0"
         id="rect59" />
      <rect
         x="415.67001"
         y="212.44"
         width="3.27"
         height="3.27"
         style="fill:#e0e0e0"
         id="rect60" />
      <path
         d="m 572.66908,210.52 c 0,0 0,-0.76 0,-2.2 0,-1.44 0,-3.59 0,-6.38 0,-5.6 0,-13.79 0,-24.23 0,-20.87 -0.0482,-50.75 -0.0826,-86.78 l 0.1514,0.21 H 469.30325 v 0 l 0.17893,-0.26 c 0,43.17 0,84 0,119.59 l -0.15828,-0.23 74.72345,0.11 21.16866,0.07 h 5.60873 1.44519 v 0 h -1.43143 -5.57432 l -21.13425,0.06 -74.82668,0.11 h -0.15828 v -0.23 c 0,-35.61 0,-76.42 0,-119.59 v -0.26 h 0.18581 103.43465 0.1514 v 0.22 c 0,36.09 -0.0619,66 -0.0757,86.91 0,10.43 0,18.6 -0.0413,24.18 0,2.78 0,4.9 0,6.34 0,1.44 -0.13076,2.36 -0.13076,2.36 z"
         style="fill:#e0e0e0;stroke-width:0.829571"
         id="path60" />
      <rect
         x="488.69498"
         y="113.09"
         width="5.4400001"
         height="60.700001"
         style="fill:#e0e0e0"
         id="rect61" />
      <rect
         x="499.18497"
         y="133.71001"
         width="5.4400001"
         height="40.080002"
         style="fill:#ebebeb"
         id="rect62" />
      <rect
         x="509.68497"
         y="120.64"
         width="5.4400001"
         height="53.459999"
         style="fill:#e0e0e0"
         id="rect63" />
      <rect
         x="520.17493"
         y="115.44"
         width="5.4400001"
         height="58.360001"
         style="fill:#ebebeb"
         id="rect64" />
      <rect
         x="530.66492"
         y="134.94"
         width="5.4400001"
         height="38.849998"
         style="fill:#e0e0e0"
         id="rect65" />
      <rect
         x="541.16492"
         y="142.56"
         width="5.4400001"
         height="31.23"
         style="fill:#ebebeb"
         id="rect66" />
      <path
         d="m 553.6791,178 c 0,0.12 -15.1287,0.22 -33.77706,0.22 -18.64837,0 -33.77707,-0.1 -33.77707,-0.22 0,-0.12 15.11697,-0.22 33.77707,-0.22 18.6601,0 33.77706,0.12 33.77706,0.22 z"
         style="fill:#e0e0e0;stroke-width:0.765905"
         id="path71" />
      <path
         d="m 493.42078,182.8 a 37,37 0 0 1 -8.06,0 35.42,35.42 0 0 1 8.06,0 z"
         style="fill:#e0e0e0"
         id="path72" />
      <path
         d="m 506.80078,183 a 52.91,52.91 0 0 1 -9.64,0 52.91,52.91 0 0 1 9.64,0 z"
         style="fill:#e0e0e0"
         id="path73" />
      <path
         d="m 518.21078,183 a 52.91,52.91 0 0 1 -9.64,0 52.91,52.91 0 0 1 9.64,0 z"
         style="fill:#e0e0e0"
         id="path74" />
      <path
         d="m 529.63078,183 a 52.91,52.91 0 0 1 -9.64,0 52.91,52.91 0 0 1 9.64,0 z"
         style="fill:#e0e0e0"
         id="path75" />
      <path
         d="m 541.04078,183 a 52.91,52.91 0 0 1 -9.64,0 52.91,52.91 0 0 1 9.64,0 z"
         style="fill:#e0e0e0"
         id="path76" />
      <path
         d="m 552.48078,183 a 52.91,52.91 0 0 1 -9.64,0 52.91,52.91 0 0 1 9.64,0 z"
         style="fill:#e0e0e0"
         id="path77" />
      <rect
         x="464.45499"
         y="90.220001"
         width="112.66573"
         height="4.4899998"
         style="fill:#ebebeb;stroke-width:0.840747"
         id="rect81" />
      <polygon
         points="372.14,212.2 374.25,212.3 374.44,215.69 373.19,215.87 "
         style="fill:#e0e0e0"
         id="polygon81" />
      <polygon
         points="329.94,93.89 428.63,93.89 387.62,79.22 373.62,79.22 "
         style="fill:#e0e0e0"
         id="polygon86" />
      <path
         d="m 385.88,92.89 a 21.29,21.29 0 0 0 -0.33,2.58 12.87,12.87 0 0 0 1.63,6.78 c 0.68,1.33 1.56,2.74 2.25,4.4 a 9.74,9.74 0 0 1 0.58,5.68 10.18,10.18 0 0 1 -3.08,5.49 9.39,9.39 0 0 1 -6.3,2.41 9.94,9.94 0 0 1 -6.39,-2.18 10,10 0 0 1 -2.84,-11.05 18.45,18.45 0 0 1 2.63,-4.21 17.14,17.14 0 0 0 2.14,-3.4 7.94,7.94 0 0 0 0.69,-2.92 5.44,5.44 0 0 0 -0.59,-2.49 2.16,2.16 0 0 1 0.36,0.58 4.89,4.89 0 0 1 0.43,1.91 7.86,7.86 0 0 1 -0.62,3 16.73,16.73 0 0 1 -2.12,3.51 18.32,18.32 0 0 0 -2.51,4.15 9.54,9.54 0 0 0 2.76,10.54 9.42,9.42 0 0 0 6.06,2.06 8.91,8.91 0 0 0 6,-2.26 9.82,9.82 0 0 0 3,-5.22 9.32,9.32 0 0 0 -0.51,-5.42 c -0.65,-1.62 -1.51,-3 -2.18,-4.39 a 12.75,12.75 0 0 1 -1.5,-7 10.9,10.9 0 0 1 0.31,-1.93 2.59,2.59 0 0 1 0.13,-0.62 z"
         style="fill:#e0e0e0"
         id="path87" />
      <path
         d="m 382.27,93.82 a 15.39,15.39 0 0 1 -0.27,1.84 50.23,50.23 0 0 0 -0.5,5 40.63,40.63 0 0 0 0.33,7.42 1.7,1.7 0 0 0 0.4,0.83 0.82,0.82 0 0 0 0.76,0.27 c 0.54,-0.11 0.83,-0.93 0.72,-1.58 a 3.12,3.12 0 0 0 -6.15,-0.09 1.4,1.4 0 0 0 0.82,1.57 1.24,1.24 0 0 0 1.42,-0.82 6,6 0 0 0 0.33,-2 c 0.05,-0.66 0.08,-1.3 0.09,-1.93 a 33.94,33.94 0 0 0 -0.15,-3.46 33.27,33.27 0 0 0 -0.84,-5 c -0.28,-1.15 -0.47,-1.79 -0.43,-1.8 a 2.14,2.14 0 0 1 0.19,0.44 c 0.12,0.29 0.27,0.73 0.44,1.31 a 29.72,29.72 0 0 1 1,5 33.82,33.82 0 0 1 0.21,3.51 q 0,0.94 -0.06,1.95 a 6.48,6.48 0 0 1 -0.35,2.11 2,2 0 0 1 -0.76,0.92 1.43,1.43 0 0 1 -1.26,0.18 1.9,1.9 0 0 1 -1.17,-2.1 3.63,3.63 0 0 1 7.17,0.08 2.41,2.41 0 0 1 -0.16,1.25 1.41,1.41 0 0 1 -1,0.89 1.32,1.32 0 0 1 -1.22,-0.42 2.19,2.19 0 0 1 -0.52,-1.07 38,38 0 0 1 -0.23,-7.54 38.77,38.77 0 0 1 0.67,-5 c 0.13,-0.59 0.23,-1 0.32,-1.34 a 1.54,1.54 0 0 1 0.2,-0.42 z"
         style="fill:#e0e0e0"
         id="path88" />
      <path
         d="m 380.63,4.2 a 4.48,4.48 0 0 1 0.05,0.76 c 0,0.54 0,1.26 0.05,2.16 0,1.93 0,4.63 0.08,7.94 0,6.76 0.05,16 0.08,26.21 0.03,10.21 -0.06,19.45 -0.08,26.21 0,3.31 -0.06,6 -0.08,8 0,0.89 0,1.61 -0.05,2.15 a 4.48,4.48 0 0 1 -0.05,0.76 3.44,3.44 0 0 1 -0.05,-0.76 c 0,-0.54 0,-1.26 -0.05,-2.15 0,-1.94 0,-4.64 -0.09,-8 0,-6.76 0,-16 -0.07,-26.21 -0.07,-10.21 0.05,-19.45 0.07,-26.21 0,-3.31 0.07,-6 0.09,-7.94 0,-0.9 0,-1.62 0.05,-2.16 a 3.44,3.44 0 0 1 0.05,-0.76 z"
         style="fill:#e0e0e0"
         id="path89" />
      <polygon
         points="376.32,67.09 385.32,67.09 387.62,79.22 373.62,79.22 "
         style="fill:#e0e0e0"
         id="polygon89" />
    </g>
    <g
       id="freepik--Floor--inject-17"
       transform="matrix(0.09033251,0,0,0.24910317,91.318873,42.330918)">
      <path
         d="m 729.18,465 c 0,0.14 -159.61,0.26 -356.46,0.26 -196.85,0 -356.49,-0.09 -356.49,-0.26 0,-0.17 159.58,-0.26 356.49,-0.26 196.91,0 356.46,0.15 356.46,0.26 z"
         style="fill:#263238"
         id="path93" />
    </g>
    <g
       id="freepik--character-3--inject-17"
       transform="matrix(0.26458333,0,0,0.26458333,5.0429573,35.136667)">
      <path
         d="m 519.93,182.8 v 0 c 2.11,-3.06 3.27,-5.35 4.76,-7.28 1.84,-2.38 2.44,-3.49 2,-3.81 -0.44,-0.32 -0.37,-0.28 -4.33,3.56 0,0 5.61,-5.54 3.45,-5.29 -0.95,0.11 -5.66,4.66 -5.66,4.66 4.12,-3.31 5.14,-5.21 4.61,-5.8 -0.77,-0.87 -6.44,4.71 -6.44,4.71 0,0 4.41,-4.17 5,-5.14 0.59,-0.97 -0.78,-0.73 -1.82,-0.22 -1.04,0.51 -7.44,4.86 -9.32,6 a 1.29,1.29 0 0 1 -1.93,-0.39 c -1.13,-3 -3.6,-4.71 -4.49,-4.86 a 1,1 0 0 0 -0.69,1.72 11.61,11.61 0 0 1 1.68,2.76 7.46,7.46 0 0 1 0.72,2.47 c 0.11,1 0.17,1.85 0.19,2.57 l -2.85,15.9 10,7 z"
         style="fill:#b78876"
         id="path94" />
      <path
         d="m 520,177.64 a 27.8,27.8 0 0 0 5.29,-5.4 29.4,29.4 0 0 0 -5.29,5.4 z"
         style="fill:#aa6550"
         id="path95" />
      <path
         d="m 518.37,176.28 a 17.18,17.18 0 0 0 3.16,-2.52 16.93,16.93 0 0 0 2.82,-2.89 32.48,32.48 0 0 0 -6,5.41 z"
         style="fill:#aa6550"
         id="path96" />
      <path
         d="m 516.68,174.85 a 29.38,29.38 0 0 0 5.72,-5 14.48,14.48 0 0 0 -3,2.33 14,14 0 0 0 -2.72,2.67 z"
         style="fill:#aa6550"
         id="path97" />
      <path
         d="m 451.1,133.85 a 14.74,14.74 0 0 1 15.9,13.81 c 0.41,6.85 0.79,14.26 0.74,18 -0.1,8 -8.11,9.26 -8.11,9.26 0,0 1.15,13.92 1,16.17 l -21.2,1 -1.92,-42.83 a 14.75,14.75 0 0 1 13.59,-15.37 z"
         style="fill:#b78876"
         id="path98" />
      <path
         d="m 459.61,174.79 a 18.57,18.57 0 0 1 -10.44,-3 c 0,0 2.47,5.76 10.46,5 z"
         style="fill:#aa6550"
         id="path99" />
      <path
         d="m 438.24,152 c -0.13,-0.06 -5.5,-1.63 -5.33,3.85 0.17,5.48 5.64,4.17 5.65,4 0.01,-0.17 -0.32,-7.85 -0.32,-7.85 z"
         style="fill:#b78876"
         id="path100" />
      <path
         d="m 436.82,157.81 c 0,0 -0.1,0.07 -0.26,0.15 a 0.92,0.92 0 0 1 -0.71,0 2.37,2.37 0 0 1 -1.16,-2.08 3.23,3.23 0 0 1 0.22,-1.38 1.12,1.12 0 0 1 0.7,-0.75 0.48,0.48 0 0 1 0.57,0.24 c 0.08,0.15 0.05,0.26 0.08,0.27 0.03,0.01 0.11,-0.1 0.06,-0.32 a 0.59,0.59 0 0 0 -0.23,-0.34 0.72,0.72 0 0 0 -0.53,-0.12 1.33,1.33 0 0 0 -1,0.88 3.34,3.34 0 0 0 -0.28,1.54 2.48,2.48 0 0 0 1.47,2.32 1,1 0 0 0 0.87,-0.17 c 0.19,-0.05 0.22,-0.23 0.2,-0.24 z"
         style="fill:#aa6550"
         id="path101" />
      <path
         d="m 464.94,152.75 a 1.15,1.15 0 0 1 -1.11,1.16 1.09,1.09 0 0 1 -1.17,-1 1.13,1.13 0 0 1 1.1,-1.16 1.1,1.1 0 0 1 1.18,1 z"
         style="fill:#263238"
         id="path102" />
      <path
         d="m 464.91,150.51 c -0.14,0.15 -1,-0.49 -2.24,-0.49 -1.24,0 -2.14,0.62 -2.27,0.47 -0.13,-0.15 0.08,-0.33 0.47,-0.62 a 3.15,3.15 0 0 1 1.82,-0.56 3,3 0 0 1 1.78,0.58 c 0.38,0.29 0.53,0.56 0.44,0.62 z"
         style="fill:#263238"
         id="path103" />
      <path
         d="m 452.84,152.75 a 1.16,1.16 0 0 1 -1.11,1.16 1.1,1.1 0 0 1 -1.18,-1 1.15,1.15 0 0 1 1.1,-1.16 1.11,1.11 0 0 1 1.19,1 z"
         style="fill:#263238"
         id="path104" />
      <path
         d="m 452.8,150.74 c -0.14,0.15 -1,-0.49 -2.24,-0.49 -1.24,0 -2.13,0.62 -2.26,0.47 -0.13,-0.15 0.07,-0.33 0.47,-0.62 a 3.14,3.14 0 0 1 1.81,-0.56 3,3 0 0 1 1.79,0.58 c 0.37,0.29 0.5,0.56 0.43,0.62 z"
         style="fill:#263238"
         id="path105" />
      <path
         d="m 457.27,159.87 a 8.35,8.35 0 0 1 2,-0.36 c 0.32,0 0.61,-0.09 0.67,-0.31 a 1.67,1.67 0 0 0 -0.21,-0.93 c -0.3,-0.76 -0.61,-1.56 -0.93,-2.39 a 40.75,40.75 0 0 1 -2.09,-6.27 41.2,41.2 0 0 1 2.59,6.08 c 0.31,0.84 0.6,1.65 0.89,2.41 a 1.84,1.84 0 0 1 0.16,1.24 0.79,0.79 0 0 1 -0.52,0.46 2.15,2.15 0 0 1 -0.53,0.07 7.79,7.79 0 0 1 -2.03,0 z"
         style="fill:#263238"
         id="path106" />
      <path
         d="m 453.65,160.72 c 0.2,0 0.2,1.33 1.35,2.28 1.15,0.95 2.56,0.8 2.57,1 0.01,0.2 -0.31,0.26 -0.92,0.27 a 3.33,3.33 0 0 1 -2.15,-0.75 2.93,2.93 0 0 1 -1,-1.9 c -0.09,-0.57 0.06,-0.9 0.15,-0.9 z"
         style="fill:#263238"
         id="path107" />
      <path
         d="m 453.12,145.92 c -0.12,0.33 -1.35,0.17 -2.79,0.35 -1.44,0.18 -2.62,0.57 -2.81,0.26 -0.08,-0.14 0.12,-0.45 0.59,-0.78 a 4.88,4.88 0 0 1 4.27,-0.47 c 0.53,0.22 0.79,0.48 0.74,0.64 z"
         style="fill:#263238"
         id="path108" />
      <path
         d="m 464.45,147 c -0.21,0.28 -1.06,0 -2.08,0 -1.02,0 -1.88,0.18 -2.08,-0.11 -0.09,-0.14 0,-0.42 0.42,-0.69 a 2.89,2.89 0 0 1 1.7,-0.45 2.82,2.82 0 0 1 1.66,0.56 c 0.36,0.21 0.48,0.5 0.38,0.69 z"
         style="fill:#263238"
         id="path109" />
      <path
         d="m 437.72,151.83 a 8.51,8.51 0 0 0 0,2.52 2.9,2.9 0 0 0 1.4,2 c 1.38,0.69 3.11,-0.37 3.72,-1.78 a 9.18,9.18 0 0 0 0.31,-4.55 22,22 0 0 1 0.09,-6.27 9,9 0 0 1 3,-5.37 5.68,5.68 0 0 1 5.9,-0.85 32.5,32.5 0 0 1 3.12,2.3 4.84,4.84 0 0 0 3.31,0.83 3.12,3.12 0 0 0 2.54,-2.11 3.38,3.38 0 0 0 -1.3,-3.36 7.66,7.66 0 0 0 -3.5,-1.41 18.85,18.85 0 0 0 -10.39,0.81 13.63,13.63 0 0 0 -7.55,7 c -1.59,3.75 -0.51,6.72 -0.74,10.89"
         style="fill:#263238"
         id="path110" />
      <path
         d="m 519.11,187.4 -13.11,-3.16 -8.65,23.46 -23.9,-21.38 v 0 c -2.55,-1.86 -6.93,-2.09 -10.26,-2.51 h -0.26 c -1.29,-0.15 -1.92,-0.34 -2.7,-0.43 -5.76,4.33 -15.62,4.61 -21.28,0.14 0,0 -4.29,1 -6.85,1.46 -8.07,1.55 -13.88,7.42 -15.5,12.85 l 10.11,23.3 1.93,22.13 -5.59,19.82 a 3.43,3.43 0 0 0 2.87,4.34 l 50.05,0.76 0.82,-0.4 a 9.32,9.32 0 0 0 1.34,-6.34 c -2.16,-9.48 -0.65,-37.76 -1.11,-46.44 9.82,9.54 20.65,17.45 28.56,12.55 6.59,-4.11 13.53,-40.15 13.53,-40.15 z"
         style="fill:#e0e0e0"
         id="path111" />
      <polygon
         points="439.33,182.94 439.34,182.94 "
         style="fill:#1f81da"
         id="polygon111" />
      <polygon
         points="452.49,186.36 454.4,180.41 460.38,178.35 462.94,183.67 458.55,189.88 450.32,191.55 437.34,184.94 438.5,176.93 449.41,180.94 "
         style="fill:#e0e0e0"
         id="polygon112" />
      <path
         d="m 452.68,187.6 c 0,0 -0.16,-0.09 -0.41,-0.33 a 11.92,11.92 0 0 1 -1,-1.08 16.07,16.07 0 0 1 -2.63,-4.53 h 0.4 l -2.52,6.34 c -0.44,1.09 -0.87,2.14 -1.27,3.14 l -0.13,0.33 -0.26,-0.25 c -2.2,-2.13 -4.1,-4 -5.44,-5.33 l -1.56,-1.59 a 3.25,3.25 0 0 1 -0.52,-0.62 3.41,3.41 0 0 1 0.64,0.5 l 1.65,1.49 c 1.4,1.28 3.34,3.1 5.57,5.21 l -0.39,0.08 1.25,-3.14 c 0.94,-2.3 1.82,-4.45 2.58,-6.33 l 0.21,-0.52 0.19,0.53 a 18,18 0 0 0 2.43,4.53 c 0.74,0.97 1.25,1.53 1.21,1.57 z"
         style="fill:#263238"
         id="path112" />
      <path
         d="m 462.94,183.67 a 8.1,8.1 0 0 1 -1.28,1.76 17.79,17.79 0 0 1 -4.17,3.68 l -0.24,0.14 -0.1,-0.27 c -0.36,-1 -0.77,-2 -1.21,-3.11 -0.66,-1.63 -1.27,-3.18 -1.75,-4.56 h 0.43 c -0.36,1.81 -0.81,3.29 -1.08,4.33 a 9.36,9.36 0 0 1 -0.47,1.64 6.3,6.3 0 0 1 0.22,-1.7 c 0.2,-1.06 0.58,-2.56 0.89,-4.35 l 0.14,-0.79 0.29,0.76 c 0.5,1.36 1.13,2.89 1.79,4.53 0.44,1.09 0.84,2.15 1.19,3.13 l -0.34,-0.12 a 19.69,19.69 0 0 0 4.19,-3.46 18,18 0 0 1 1.5,-1.61 z"
         style="fill:#263238"
         id="path113" />
      <path
         d="m 456.63,269.14 c 0,0 0,-0.29 0.06,-0.83 0.06,-0.54 0.15,-1.38 0.25,-2.39 0.1,-1.01 0.22,-2.3 0.33,-3.77 0.05,-0.74 0.1,-1.53 0.16,-2.36 0.06,-0.83 0.07,-1.72 0.11,-2.65 0.17,-3.71 0.16,-8.14 0.07,-13.06 -0.09,-4.92 -0.4,-10.31 -0.78,-16 -0.82,-11.33 -1.94,-21.55 -2.78,-28.94 -0.42,-3.66 -0.76,-6.64 -1,-8.76 -0.11,-1 -0.19,-1.79 -0.26,-2.38 a 4.79,4.79 0 0 1 -0.05,-0.84 4.93,4.93 0 0 1 0.15,0.83 c 0.09,0.58 0.2,1.37 0.35,2.37 0.29,2.06 0.7,5 1.16,8.74 0.93,7.38 2.1,17.61 2.92,28.94 0.39,5.67 0.64,11.08 0.74,16 0.1,4.92 0,9.36 -0.17,13.08 -0.05,0.93 -0.1,1.81 -0.14,2.65 -0.04,0.84 -0.15,1.62 -0.21,2.36 -0.13,1.48 -0.24,2.75 -0.41,3.78 -0.17,1.03 -0.26,1.79 -0.34,2.37 a 4.8,4.8 0 0 1 -0.16,0.86 z"
         style="fill:#263238"
         id="path114" />
      <path
         d="m 497.08,216.76 a 22.71,22.71 0 0 1 -0.25,-4.76 22.65,22.65 0 0 1 0.25,-4.75 22.65,22.65 0 0 1 0.25,4.75 22.71,22.71 0 0 1 -0.25,4.76 z"
         style="fill:#263238"
         id="path115" />
      <path
         d="m 500.42,217.36 c 0,0.45 -0.67,-0.82 -2.14,-4.9 a 21.86,21.86 0 0 1 -1.32,-5.18 42.73,42.73 0 0 1 1.79,5 46.25,46.25 0 0 1 1.67,5.08 z"
         style="fill:#263238"
         id="path116" />
      <path
         d="m 468.12,436.66 -0.76,18.17 c 0,0 18.21,6.88 18.4,10.25 l -35.28,-0.21 v -28.36 z"
         style="fill:#1f81da"
         id="path117" />
      <path
         d="m 456.46,453.24 a 1.45,1.45 0 0 0 -1,1.64 1.39,1.39 0 0 0 1.62,1 1.52,1.52 0 0 0 1.06,-1.74 1.45,1.45 0 0 0 -1.8,-0.87"
         style="fill:#e0e0e0"
         id="path118" />
      <g
         style="opacity:0.6"
         id="g119">
        <path
           d="m 450.48,464.87 0.11,-2.86 33.79,1.27 c 0,0 1.56,0.69 1.38,1.8 z"
           style="fill:#ffffff"
           id="path119" />
      </g>
      <path
         d="m 467.93,454.66 c 0,0.17 -0.87,0.24 -1.72,0.79 -0.85,0.55 -1.3,1.27 -1.46,1.2 -0.16,-0.07 0.1,-1.06 1.15,-1.71 1.05,-0.65 2.1,-0.44 2.03,-0.28 z"
         style="fill:#263238"
         id="path120" />
      <path
         d="m 471.62,456.21 c 0,0.17 -0.7,0.46 -1.29,1.18 -0.59,0.72 -0.77,1.5 -0.94,1.49 -0.17,-0.01 -0.27,-1 0.48,-1.87 0.75,-0.87 1.75,-0.96 1.75,-0.8 z"
         style="fill:#263238"
         id="path121" />
      <path
         d="m 473.7,460.65 c -0.16,0 -0.39,-0.83 0.06,-1.77 0.45,-0.94 1.25,-1.31 1.33,-1.16 0.08,0.15 -0.43,0.64 -0.79,1.42 -0.36,0.78 -0.43,1.5 -0.6,1.51 z"
         style="fill:#263238"
         id="path122" />
      <path
         d="m 467.65,450.5 c -0.08,0.15 -0.87,-0.09 -1.84,0 -0.97,0.09 -1.73,0.37 -1.82,0.22 -0.09,-0.15 0.64,-0.76 1.79,-0.82 1.15,-0.06 1.95,0.46 1.87,0.6 z"
         style="fill:#263238"
         id="path123" />
      <path
         d="m 467.73,446.83 a 3.35,3.35 0 0 1 -1.76,0 8.08,8.08 0 0 1 -1.85,-0.58 9.08,9.08 0 0 1 -1,-0.54 2.37,2.37 0 0 1 -0.53,-0.42 0.76,0.76 0 0 1 -0.08,-0.92 1,1 0 0 1 0.76,-0.39 2.13,2.13 0 0 1 0.66,0.1 5.93,5.93 0 0 1 1.1,0.38 6.08,6.08 0 0 1 1.62,1.08 c 0.82,0.76 1.09,1.41 1,1.44 -0.09,0.03 -0.47,-0.48 -1.3,-1.12 a 7.14,7.14 0 0 0 -1.57,-0.89 6.27,6.27 0 0 0 -1,-0.32 c -0.38,-0.1 -0.69,-0.11 -0.79,0.06 -0.1,0.17 0,0.09 0,0.2 a 1.65,1.65 0 0 0 0.39,0.3 7.44,7.44 0 0 0 0.93,0.54 10.23,10.23 0 0 0 1.7,0.67 11.26,11.26 0 0 1 1.72,0.41 z"
         style="fill:#263238"
         id="path124" />
      <path
         d="m 467.51,447.08 a 2.88,2.88 0 0 1 -0.46,-1.71 5.84,5.84 0 0 1 0.25,-1.94 5.75,5.75 0 0 1 0.46,-1.07 1.44,1.44 0 0 1 1.13,-0.88 0.84,0.84 0 0 1 0.74,0.49 2.61,2.61 0 0 1 0.17,0.65 3.65,3.65 0 0 1 0,1.19 4.06,4.06 0 0 1 -0.77,1.82 c -0.69,0.91 -1.41,1.12 -1.43,1.06 -0.02,-0.06 0.55,-0.42 1.08,-1.29 a 4.17,4.17 0 0 0 0.57,-1.66 3.51,3.51 0 0 0 0,-1 c -0.05,-0.38 -0.19,-0.68 -0.33,-0.64 -0.14,0.04 -0.47,0.27 -0.62,0.57 a 5.85,5.85 0 0 0 -0.44,1 6.2,6.2 0 0 0 -0.36,1.76 c -0.08,0.97 0.1,1.62 0.01,1.65 z"
         style="fill:#263238"
         id="path125" />
      <path
         d="m 407.26,431.32 -5.73,22.74 -9.72,16.68 a 2.41,2.41 0 0 0 1,3.37 v 0 a 2.41,2.41 0 0 0 2.2,0 c 4.36,-2.35 20.37,-11.09 20.7,-12.78 0.38,-2 7.64,-23.59 7.64,-23.59 z"
         style="fill:#1f81da"
         id="path126" />
      <g
         style="opacity:0.6"
         id="g127">
        <path
           d="m 392.82,474.11 23.32,-14.35 -0.26,1 a 3.6,3.6 0 0 1 -1.45,2 c -1.91,1.29 -7.23,4.74 -19.34,11.34 a 2.43,2.43 0 0 1 -2.27,0 z"
           style="fill:#ffffff"
           id="path127" />
      </g>
      <g
         style="opacity:0.6"
         id="g128">
        <path
           d="m 413.52,451.19 a 1.44,1.44 0 0 0 -0.89,1.72 1.4,1.4 0 0 0 1.7,0.9 1.52,1.52 0 0 0 0.93,-1.83 1.44,1.44 0 0 0 -1.87,-0.74"
           style="fill:#ffffff"
           id="path128" />
      </g>
      <path
         d="m 400.72,465.66 a 7.5,7.5 0 0 0 -1.5,-2.31 7.15,7.15 0 0 0 -2.46,-1.21 c 0,-0.07 0.33,-0.16 0.88,-0.09 a 3.86,3.86 0 0 1 3.06,2.72 c 0.14,0.54 0.08,0.89 0.02,0.89 z"
         style="fill:#263238"
         id="path129" />
      <path
         d="m 398.27,468.24 c -0.13,0.07 -0.66,-0.87 -1.73,-1.53 a 18.86,18.86 0 0 0 -2.13,-0.89 2.68,2.68 0 0 1 2.4,0.46 c 1.19,0.72 1.59,1.93 1.46,1.96 z"
         style="fill:#263238"
         id="path130" />
      <path
         d="m 404.79,462.61 a 25.34,25.34 0 0 0 -2.52,-2.54 25.77,25.77 0 0 0 -3.14,-1.71 6.58,6.58 0 0 1 5.66,4.25 z"
         style="fill:#263238"
         id="path131" />
      <path
         d="m 407.11,455.84 c -0.1,0.12 -1.21,-0.75 -2.81,-1.26 -1.6,-0.51 -3,-0.47 -3,-0.62 a 4.64,4.64 0 0 1 3.17,0.13 4.7,4.7 0 0 1 2.64,1.75 z"
         style="fill:#263238"
         id="path132" />
      <path
         d="m 409,449.21 a 12,12 0 0 0 -2.89,-1.39 11.51,11.51 0 0 0 -3.21,-0.07 c 0,-0.06 0.3,-0.28 0.91,-0.43 a 5.15,5.15 0 0 1 2.42,0 5.21,5.21 0 0 1 2.15,1.09 c 0.43,0.42 0.62,0.76 0.62,0.8 z"
         style="fill:#263238"
         id="path133" />
      <path
         d="m 406.46,446.57 a 1.93,1.93 0 0 1 0.2,-0.86 6,6 0 0 1 1.3,-2 2.66,2.66 0 0 1 1.48,-1 1,1 0 0 1 1,0.5 1.55,1.55 0 0 1 0.07,1.12 3.38,3.38 0 0 1 -3.7,2.23 3.94,3.94 0 0 1 -3.18,-3 1.36,1.36 0 0 1 0.24,-1.12 1,1 0 0 1 1.09,-0.22 3.34,3.34 0 0 1 1.27,1.19 6.74,6.74 0 0 1 1.06,2.18 2.1,2.1 0 0 1 0.13,0.88 10.94,10.94 0 0 0 -1.48,-2.84 3.08,3.08 0 0 0 -1.14,-1 0.5,0.5 0 0 0 -0.59,0.12 0.89,0.89 0 0 0 -0.11,0.74 3.5,3.5 0 0 0 2.78,2.58 2.94,2.94 0 0 0 3.18,-1.85 1.14,1.14 0 0 0 0,-0.78 0.53,0.53 0 0 0 -0.55,-0.29 2.47,2.47 0 0 0 -1.26,0.78 9,9 0 0 0 -1.79,2.64 z"
         style="fill:#263238"
         id="path134" />
      <polygon
         points="450.37,185.87 449.9,190.04 446.04,189.23 447.89,184.58 "
         style="fill:#1f81da"
         id="polygon134" />
      <g
         style="opacity:0.4"
         id="g135">
        <polygon
           points="450.37,185.87 449.9,190.04 446.04,189.23 447.89,184.58 "
           id="polygon135" />
      </g>
      <polygon
         points="455.44,183.97 457.16,188.33 454.7,189.51 453.57,185.61 "
         style="fill:#1f81da"
         id="polygon136" />
      <polygon
         points="449.67,240.37 458,248.61 462.04,237.66 454.04,190.8 450.83,191.06 "
         style="fill:#1f81da"
         id="polygon137" />
      <path
         d="m 450.88,184.35 c 0.57,-0.07 1.35,-0.22 2,-0.35 a 1.36,1.36 0 0 1 1.49,0.68 l 1.05,1.94 a 1.4,1.4 0 0 1 0.14,0.92 l -0.42,2.17 A 1.37,1.37 0 0 1 454,190.8 l -2.38,0.48 a 1.38,1.38 0 0 1 -1.5,-0.73 L 449,188.21 a 1.43,1.43 0 0 1 0,-1.18 l 0.83,-1.87 a 1.37,1.37 0 0 1 1.05,-0.81 z"
         style="fill:#1f81da"
         id="path137" />
      <path
         d="m 454.34,184.87 a 4.84,4.84 0 0 1 -0.63,0.79 c -0.41,0.47 -1,1.11 -1.63,1.81 -0.63,0.7 -1.24,1.32 -1.67,1.76 a 5.16,5.16 0 0 1 -0.74,0.7 4.84,4.84 0 0 1 0.63,-0.79 c 0.41,-0.47 1,-1.11 1.64,-1.81 0.64,-0.7 1.23,-1.32 1.67,-1.77 a 5.78,5.78 0 0 1 0.73,-0.69 z"
         style="fill:#263238"
         id="path138" />
      <path
         d="m 451.91,187.14 a 5.71,5.71 0 0 1 -1.15,-1 5.38,5.38 0 0 1 -1,-1.11 5.89,5.89 0 0 1 1.15,1 6.78,6.78 0 0 1 1,1.11 z"
         style="fill:#263238"
         id="path139" />
      <path
         d="m 454.69,190.3 a 26.33,26.33 0 0 1 0.59,-2.85 2.81,2.81 0 0 0 -0.59,-1.85 1.58,1.58 0 0 1 -0.29,-0.81 c 0,0 0.12,0.3 0.41,0.74 0.13,0.22 0.32,0.48 0.48,0.8 a 1.9,1.9 0 0 1 0.19,1.15 c -0.16,0.81 -0.38,1.49 -0.51,2 a 3.93,3.93 0 0 1 -0.28,0.82 z"
         style="fill:#263238"
         id="path140" />
      <path
         d="m 476,268 -3.5,181 a 2.22,2.22 0 0 1 -2.24,2.18 l -21.09,-0.19 a 2.23,2.23 0 0 1 -2.2,-2.27 L 450.22,293 422.79,447.64 a 4,4 0 0 1 -4.05,3.28 l -17.69,-0.61 a 4,4 0 0 1 -3.79,-4.59 L 425,267.3 Z"
         style="fill:#263238"
         id="path141" />
      <path
         d="m 409.62,441.34 c 0,0 0,-0.15 0.05,-0.43 l 0.19,-1.24 c 0.18,-1.12 0.44,-2.73 0.78,-4.78 0.69,-4.17 1.69,-10.17 2.93,-17.57 2.47,-14.85 5.88,-35.33 9.65,-57.95 3.77,-22.62 7.06,-43.15 9.4,-58 1.15,-7.41 2.09,-13.41 2.74,-17.59 0.32,-2.06 0.58,-3.66 0.75,-4.78 l 0.21,-1.24 c 0.05,-0.28 0.09,-0.42 0.09,-0.42 a 3.35,3.35 0 0 1 0,0.42 c 0,0.31 -0.09,0.72 -0.16,1.25 -0.15,1.12 -0.38,2.73 -0.66,4.8 C 435,288 434.07,294 433,301.42 c -2.25,14.87 -5.51,35.39 -9.25,58 -3.74,22.61 -7.23,43.11 -9.8,57.93 -1.3,7.39 -2.35,13.37 -3.08,17.54 -0.38,2.05 -0.67,3.65 -0.87,4.76 -0.1,0.53 -0.18,0.94 -0.24,1.24 -0.06,0.3 -0.14,0.45 -0.14,0.45 z"
         style="fill:#455a64"
         id="path142" />
      <path
         d="m 463.67,442 c -0.14,0 0.1,-36.84 0.53,-82.27 0.43,-45.43 0.89,-82.27 1,-82.27 0.11,0 -0.1,36.83 -0.53,82.28 -0.43,45.45 -0.87,82.26 -1,82.26 z"
         style="fill:#455a64"
         id="path143" />
      <path
         d="m 473.12,442.63 c 0,0.14 -5.75,0.25 -12.84,0.25 -7.09,0 -12.84,-0.11 -12.84,-0.25 0,-0.14 5.75,-0.24 12.84,-0.24 7.09,0 12.84,0.11 12.84,0.24 z"
         style="fill:#455a64"
         id="path144" />
      <path
         d="m 424.05,441.65 a 3.69,3.69 0 0 1 -1,0.1 l -2.81,0.1 -9.26,0.22 c -3.62,0.08 -6.9,0.11 -9.27,0.09 -1.19,0 -2.15,0 -2.81,-0.07 a 3.63,3.63 0 0 1 -1,-0.09 4.35,4.35 0 0 1 1,-0.1 l 2.81,-0.09 9.27,-0.23 c 3.62,-0.07 6.9,-0.1 9.27,-0.08 1.19,0 2.15,0 2.81,0.06 a 4.7,4.7 0 0 1 0.99,0.09 z"
         style="fill:#455a64"
         id="path145" />
      <path
         d="m 453.9,270.18 a 18.82,18.82 0 0 1 -0.07,3.13 c -0.11,1.93 -0.29,4.6 -0.53,7.53 -0.13,1.47 -0.21,2.87 -0.39,4.16 a 8,8 0 0 1 -1.12,3.27 4.64,4.64 0 0 1 -1.71,1.59 1.58,1.58 0 0 1 -0.82,0.24 5.21,5.21 0 0 0 2.22,-2 8.08,8.08 0 0 0 1,-3.14 c 0.15,-1.25 0.21,-2.66 0.34,-4.13 0.24,-2.94 0.48,-5.59 0.68,-7.52 a 19.67,19.67 0 0 1 0.4,-3.13 z"
         style="fill:#455a64"
         id="path146" />
      <g
         style="opacity:0.3"
         id="g147">
        <path
           d="m 426.69,252.93 a 9.45,9.45 0 0 0 8.22,2.36 c 2.07,-0.42 4,-1.55 6.15,-1.41 2.31,0.15 4.22,1.77 6.33,2.72 3.93,1.79 8.52,1.22 12.7,0.1 1.92,-0.51 3.92,-1.2 5.16,-2.76 a 9.24,9.24 0 0 0 1.59,-4.28 44.11,44.11 0 0 0 0.62,-8.51 8.13,8.13 0 0 0 -1.37,-5.06 5.79,5.79 0 0 0 -3.81,-1.92 14.73,14.73 0 0 0 -4.34,0.24 71.73,71.73 0 0 0 -31.48,13.5"
           id="path147" />
      </g>
      <path
         d="m 447,243.53 c 0,0 -26.5,11.84 -29.19,12.47 -8.94,2 -19.16,-6.48 -16.32,-16.1 1.05,-3.58 15.3,-43.18 15.3,-43.18 l 13.56,18.73 -5.74,19.18 15,-1 z"
         style="fill:#e0e0e0"
         id="path148" />
      <path
         d="m 438.41,233.75 a 5.12,5.12 0 0 1 -1.05,0.15 l -2.9,0.24 c -2.46,0.19 -5.91,0.43 -9.84,0.68 h -0.33 l 0.1,-0.32 0.88,-3 c 1.34,-4.48 2.58,-8.52 3.5,-11.45 l 1.11,-3.45 a 7.65,7.65 0 0 1 0.47,-1.25 7.49,7.49 0 0 1 -0.3,1.3 c -0.25,0.91 -0.57,2.09 -1,3.5 -0.84,2.94 -2,7 -3.37,11.48 -0.3,1 -0.6,2 -0.89,3 l -0.23,-0.3 c 3.92,-0.23 7.38,-0.41 9.85,-0.52 l 2.9,-0.11 a 5.47,5.47 0 0 1 1.1,0.05 z"
         style="fill:#263238"
         id="path149" />
      <path
         d="m 444,245.08 c 0.05,0.12 -5.76,2.62 -13,5.6 -7.24,2.98 -13.11,5.29 -13.16,5.17 -0.05,-0.12 5.76,-2.63 13,-5.6 7.24,-2.97 13.16,-5.25 13.16,-5.17 z"
         style="fill:#263238"
         id="path150" />
      <path
         d="m 440.82,232.87 -2.09,-10.17 a 1.31,1.31 0 0 1 1.29,-1.57 l 26.32,0.13 a 1.31,1.31 0 0 1 1.29,1.46 L 464.91,246 a 1.83,1.83 0 0 1 -1.82,1.61 l -17.16,-0.14 a 1.83,1.83 0 0 1 -1.75,-1.37 z"
         style="fill:#455a64"
         id="path151" />
      <path
         d="m 438.5,227.52 v 0 a 2.77,2.77 0 0 1 2.59,1.76 5.93,5.93 0 0 0 1.76,2.82 c 1.29,0.7 3.52,1.27 4.7,0.69 1.18,-0.58 5.87,-4.8 6.69,-4.33 0.82,0.47 1.53,1.52 0.71,2.46 -0.82,0.94 -5.17,3.76 -4.35,4.7 0.82,0.94 10,-3.19 11.4,-2.83 1.4,0.36 2.23,1.23 1.41,1.8 -0.82,0.57 -7.05,2.91 -7.4,3.74 0,0 9.4,-2.47 9.75,-1.88 0.35,0.59 0.94,1.52 0,1.88 -0.94,0.36 -9.05,2.46 -9.75,2.82 a 17.29,17.29 0 0 1 -3.63,1 c -0.25,0 -2.09,0.62 -3.78,1.2 a 8.3,8.3 0 0 1 -5.85,-0.15 l -0.95,-0.39 a 3.74,3.74 0 0 1 -2.32,-3.68 l 0.2,-3.2 -1,-2.65 z"
         style="fill:#b78876"
         id="path152" />
      <path
         d="m 454.3,225.05 a 1,1 0 1 1 -1,-1 1,1 0 0 1 1,1 z"
         style="fill:#fafafa"
         id="path153" />
    </g>
    <g
       id="freepik--Desk--inject-17"
       transform="matrix(0.26458333,0,0,0.26458333,5.0429573,35.136667)">
      <path
         d="m 567.5,307.35 h -78.86 v -2.94 h 75.93 a 2.94,2.94 0 0 1 2.93,2.94 z"
         style="fill:#455a64"
         id="path154" />
      <rect
         x="488.64001"
         y="261.01999"
         width="60.419998"
         height="45.700001"
         rx="3.3399999"
         style="fill:#455a64"
         id="rect154" />
      <rect
         x="491.16"
         y="263.20001"
         width="55.380001"
         height="40.700001"
         style="fill:#fafafa"
         id="rect155" />
      <path
         d="m 546.53,303.9 v -0.75 c 0,-0.5 0,-1.23 0,-2.18 0,-1.9 0,-4.69 0,-8.25 0,-7.11 0,-17.28 0,-29.52 l 0.06,0.05 h -55.37 v 0 l 0.08,-0.07 c 0,14.78 0,28.7 0,40.7 l -0.07,-0.06 h 40.05 11.33 -11.28 -40.1 -0.07 v -0.06 c 0,-12 0,-25.92 0,-40.7 v -0.07 h 55.44 v 0.06 c 0,12.26 0,22.44 0,29.56 0,3.55 0,6.33 0,8.23 0,0.95 0,1.68 0,2.17 0,0.49 -0.07,0.89 -0.07,0.89 z"
         style="fill:#263238"
         id="path155" />
      <path
         d="m 538.25,274.15 h -0.75 -2.16 -8 -27.3 l 0.07,-0.07 v 18.79 l -0.07,-0.07 h 27.11 8 v 0 h -8 L 500,293 h -0.07 v -18.92 h 0.07 27.3 8 2.91 z"
         style="fill:#e0e0e0"
         id="path156" />
      <path
         d="m 538.25,277.31 c 0,0 -8.57,0.07 -19.13,0.07 -10.56,0 -19.12,0 -19.12,-0.07 0,-0.07 8.56,-0.06 19.12,-0.06 10.56,0 19.13,0.03 19.13,0.06 z"
         style="fill:#e0e0e0"
         id="path157" />
      <path
         d="m 538,279.83 c 0,0 -8.56,0.07 -19.12,0.07 -10.56,0 -19.13,0 -19.13,-0.07 0,-0.07 8.56,-0.06 19.13,-0.06 10.57,0 19.12,0.03 19.12,0.06 z"
         style="fill:#e0e0e0"
         id="path158" />
      <path
         d="m 538.25,282.49 c 0,0 -8.57,0.07 -19.13,0.07 -10.56,0 -19.12,0 -19.12,-0.07 0,-0.07 8.56,-0.07 19.12,-0.07 10.56,0 19.13,0.03 19.13,0.07 z"
         style="fill:#e0e0e0"
         id="path159" />
      <path
         d="m 538.25,285.08 c 0,0 -8.57,0.07 -19.13,0.07 -10.56,0 -19.12,0 -19.12,-0.07 0,-0.07 8.56,-0.07 19.12,-0.07 10.56,0 19.13,-0.01 19.13,0.07 z"
         style="fill:#e0e0e0"
         id="path160" />
      <path
         d="m 538.25,287.67 c 0,0 -8.57,0.07 -19.13,0.07 -10.56,0 -19.12,0 -19.12,-0.07 0,-0.07 8.56,-0.07 19.12,-0.07 10.56,0 19.13,0.03 19.13,0.07 z"
         style="fill:#e0e0e0"
         id="path161" />
      <path
         d="m 500,290.26 c 0,0 8.56,-0.07 19.12,-0.07 10.56,0 19.13,0 19.13,0.07 0,0.07 -8.56,0.06 -19.13,0.06 -10.57,0 -19.12,-0.03 -19.12,-0.06 z"
         style="fill:#e0e0e0"
         id="path162" />
      <path
         d="m 507.57,293.23 c 0,0 -0.06,-4.27 -0.06,-9.54 0,-5.27 0,-9.54 0.06,-9.54 0.06,0 0.07,4.27 0.07,9.54 0,5.27 -0.03,9.54 -0.07,9.54 z"
         style="fill:#e0e0e0"
         id="path163" />
      <path
         d="m 515.24,293.23 c 0,0 -0.07,-4.27 -0.07,-9.54 0,-5.27 0,-9.54 0.07,-9.54 0.07,0 0.07,4.27 0.07,9.54 0,5.27 -0.03,9.54 -0.07,9.54 z"
         style="fill:#e0e0e0"
         id="path164" />
      <path
         d="m 522.91,293.23 c 0,0 -0.07,-4.27 -0.07,-9.54 0,-5.27 0,-9.54 0.07,-9.54 0.07,0 0.07,4.27 0.07,9.54 0,5.27 0.02,9.54 -0.07,9.54 z"
         style="fill:#e0e0e0"
         id="path165" />
      <path
         d="m 530.58,293.23 c 0,0 -0.07,-4.27 -0.07,-9.54 0,-5.27 0,-9.54 0.07,-9.54 0.07,0 0.07,4.27 0.07,9.54 0,5.27 -0.03,9.54 -0.07,9.54 z"
         style="fill:#e0e0e0"
         id="path166" />
      <path
         d="m 538.25,293.23 c 0,0 -0.07,-4.27 -0.07,-9.54 0,-5.27 0,-9.54 0.07,-9.54 0.07,0 0.07,4.27 0.07,9.54 0,5.27 -0.03,9.54 -0.07,9.54 z"
         style="fill:#e0e0e0"
         id="path167" />
      <path
         d="m 538.25,277.31 a 2.21,2.21 0 0 1 -0.29,0.23 l -0.86,0.61 -3.21,2.21 c -2.73,1.88 -6.56,4.48 -10.9,7.42 h -0.06 -0.06 l -3.26,-1.09 -4.41,-1.49 h 0.12 l -7.69,5.15 v 0 l -5.55,1.92 -1.52,0.51 -0.4,0.13 h -0.14 a 0.5,0.5 0 0 1 0.13,-0.06 l 0.39,-0.16 1.5,-0.56 5.52,-2 v 0 l 7.66,-5.2 h 0.05 0.06 l 4.42,1.49 3.25,1.1 h -0.11 c 4.35,-2.94 8.19,-5.51 10.95,-7.34 l 3.26,-2.15 0.88,-0.57 a 2.46,2.46 0 0 1 0.27,-0.15 z"
         style="fill:#1f81da"
         id="path168" />
      <circle
         cx="507.57001"
         cy="290.26001"
         r="0.47"
         style="fill:#1f81da"
         id="circle168" />
      <circle
         cx="515.23999"
         cy="285.07999"
         r="0.47"
         style="fill:#1f81da"
         id="circle169" />
      <circle
         cx="522.90997"
         cy="287.62"
         r="0.47"
         style="fill:#1f81da"
         id="circle170" />
      <circle
         cx="530.65997"
         cy="282.51001"
         r="0.47"
         style="fill:#1f81da"
         id="circle171" />
      <path
         d="m 538.25,290.26 -0.15,-0.08 -0.41,-0.26 -1.55,-1 -5.62,-3.7 h 0.12 l -7.64,5.14 -0.1,0.07 -0.08,-0.1 -4,-5.43 c -1.25,-1.7 -2.48,-3.35 -3.63,-4.92 h 0.2 l -7.7,7.74 v 0 0 l -5.7,1.85 -1.56,0.49 -0.41,0.12 h -0.14 c 0,0 0,0 0.13,-0.06 l 0.4,-0.15 1.54,-0.54 5.67,-1.94 v 0 l 7.65,-7.79 0.11,-0.11 0.09,0.12 3.64,4.92 c 1.41,1.89 2.76,3.73 4,5.44 h -0.18 l 7.68,-5.11 h 0.06 0.06 l 5.57,3.78 1.52,1.05 0.39,0.28 z"
         style="fill:#455a64"
         id="path171" />
      <circle
         cx="515.23999"
         cy="279.89999"
         r="0.47"
         style="fill:#455a64"
         id="circle172" />
      <circle
         cx="507.57001"
         cy="287.67001"
         r="0.47"
         style="fill:#455a64"
         id="circle173" />
      <circle
         cx="522.90997"
         cy="290.26001"
         r="0.47"
         style="fill:#455a64"
         id="circle174" />
      <circle
         cx="530.58002"
         cy="285.54999"
         r="0.47"
         style="fill:#455a64"
         id="circle175" />
      <path
         d="m 504.37,295.08 a 2,2 0 0 1 -0.74,0.07 2,2 0 0 1 -0.74,-0.07 2.31,2.31 0 0 1 0.74,-0.07 2.26,2.26 0 0 1 0.74,0.07 z"
         style="fill:#e0e0e0"
         id="path175" />
      <path
         d="m 512.21,295.08 a 3.95,3.95 0 0 1 -1.48,0 3.95,3.95 0 0 1 1.48,0 z"
         style="fill:#e0e0e0"
         id="path176" />
      <path
         d="m 520.05,295.08 a 3.95,3.95 0 0 1 -1.48,0 3.95,3.95 0 0 1 1.48,0 z"
         style="fill:#e0e0e0"
         id="path177" />
      <path
         d="m 527.89,295.08 a 2,2 0 0 1 -0.74,0.07 2,2 0 0 1 -0.74,-0.07 2.26,2.26 0 0 1 0.74,-0.07 2.31,2.31 0 0 1 0.74,0.07 z"
         style="fill:#e0e0e0"
         id="path178" />
      <path
         d="m 535.72,295.08 a 2,2 0 0 1 -0.74,0.07 1.94,1.94 0 0 1 -0.73,-0.07 2.22,2.22 0 0 1 0.75,-0.08 2.26,2.26 0 0 1 0.72,0.08 z"
         style="fill:#e0e0e0"
         id="path179" />
      <path
         d="m 498.92,292.84 a 1.63,1.63 0 0 1 -0.6,0.06 1.56,1.56 0 0 1 -0.59,-0.06 1.27,1.27 0 0 1 0.59,-0.07 1.33,1.33 0 0 1 0.6,0.07 z"
         style="fill:#e0e0e0"
         id="path180" />
      <path
         d="m 498.92,289.83 a 1.63,1.63 0 0 1 -0.6,0.06 1.56,1.56 0 0 1 -0.59,-0.06 1.27,1.27 0 0 1 0.59,-0.07 1.33,1.33 0 0 1 0.6,0.07 z"
         style="fill:#e0e0e0"
         id="path181" />
      <path
         d="m 498.92,286.82 a 1.63,1.63 0 0 1 -0.6,0.06 1.56,1.56 0 0 1 -0.59,-0.06 1.27,1.27 0 0 1 0.59,-0.07 1.33,1.33 0 0 1 0.6,0.07 z"
         style="fill:#e0e0e0"
         id="path182" />
      <path
         d="m 498.92,283.81 a 1.63,1.63 0 0 1 -0.6,0.06 1.56,1.56 0 0 1 -0.59,-0.06 1.27,1.27 0 0 1 0.59,-0.07 1.33,1.33 0 0 1 0.6,0.07 z"
         style="fill:#e0e0e0"
         id="path183" />
      <path
         d="m 498.92,280.8 a 1.63,1.63 0 0 1 -0.6,0.06 1.56,1.56 0 0 1 -0.59,-0.06 1.27,1.27 0 0 1 0.59,-0.07 1.33,1.33 0 0 1 0.6,0.07 z"
         style="fill:#e0e0e0"
         id="path184" />
      <path
         d="m 498.92,277.79 a 1.63,1.63 0 0 1 -0.6,0.06 1.56,1.56 0 0 1 -0.59,-0.06 1.27,1.27 0 0 1 0.59,-0.07 1.33,1.33 0 0 1 0.6,0.07 z"
         style="fill:#e0e0e0"
         id="path185" />
      <path
         d="m 498.92,274.78 a 1.63,1.63 0 0 1 -0.6,0.06 1.56,1.56 0 0 1 -0.59,-0.06 1.27,1.27 0 0 1 0.59,-0.07 1.33,1.33 0 0 1 0.6,0.07 z"
         style="fill:#e0e0e0"
         id="path186" />
      <rect
         x="499.79999"
         y="267.64001"
         width="10.99"
         height="0.77999997"
         style="fill:#1f81da"
         id="rect186" />
      <path
         d="m 530.41,269.92 c 0,0 -6.87,0.07 -15.34,0.07 -8.47,0 -15.35,0 -15.35,-0.07 0,-0.07 6.87,-0.07 15.35,-0.07 8.48,0 15.34,0.03 15.34,0.07 z"
         style="fill:#263238"
         id="path187" />
      <path
         d="m 519.2,298.84 c 0,0 -4.19,0.07 -9.36,0.07 -5.17,0 -9.35,0 -9.35,-0.07 0,-0.07 4.18,-0.07 9.35,-0.07 5.17,0 9.36,0.03 9.36,0.07 z"
         style="fill:#263238"
         id="path188" />
      <path
         d="m 505,300.25 a 14.16,14.16 0 0 1 -2,0.07 14,14 0 0 1 -2,-0.07 17.36,17.36 0 0 1 2,-0.06 17.62,17.62 0 0 1 2,0.06 z"
         style="fill:#263238"
         id="path189" />
      <path
         d="m 536.16,298.59 c 0,0 -3,0.07 -6.65,0.07 -3.65,0 -6.65,0 -6.65,-0.07 0,-0.07 3,-0.07 6.65,-0.07 3.65,0 6.65,0.03 6.65,0.07 z"
         style="fill:#263238"
         id="path190" />
      <path
         d="m 528.93,299.51 a 36.08,36.08 0 0 1 -4.16,0 30.94,30.94 0 0 1 4.16,0 z"
         style="fill:#263238"
         id="path191" />
      <polygon
         points="209.69,465.03 202.05,465.03 218.57,318.89 232.59,323.83 "
         style="fill:#263238"
         id="polygon191"
         transform="translate(134.0017,0.58772676)" />
      <polygon
         points="232.59,323.83 209.69,465.03 202.05,465.03 218.57,318.89 "
         style="fill:#263238"
         id="polygon191-5"
         transform="matrix(-1,0,0,1,773.79158,0.50562624)" />
      <rect
         x="334.29123"
         y="307.17999"
         width="238.79153"
         height="18.49"
         style="fill:#455a64;stroke-width:0.751567"
         id="rect191" />
      <path
         d="m 384.87946,307.46 a 1.1297056,2 0 0 1 -0.0791,0.2 l -0.24853,0.55 a 4.9481107,8.76 0 0 1 -1.20314,1.7 6.6370205,11.75 0 0 1 -2.3046,1.37 16.143493,28.58 0 0 1 -3.21966,0.25 30.852261,54.62 0 0 1 -3.86924,-0.79 34.828824,61.66 0 0 0 -4.4115,-0.93 c -3.12929,-0.2 -6.5297,1.25 -9.93012,3.41 -3.40041,2.16 -6.59183,4.61 -9.63638,6.1 a 26.361681,46.67 0 0 1 -4.39456,1.54 18.352068,32.49 0 0 1 -3.90313,0 13.358769,23.65 0 0 1 -5.35481,-3 8.4163069,14.9 0 0 1 -1.65502,-2.19 c 0,0 0.0451,0 0.11862,0.13 l 0.31632,0.42 a 11.138898,19.72 0 0 0 1.27656,1.46 13.494334,23.89 0 0 0 5.32092,2.84 18.07529,32 0 0 0 3.85795,-0.05 26.621513,47.13 0 0 0 4.34371,-1.57 c 3.02197,-1.51 6.21339,-4 9.6025,-6.13 3.38912,-2.13 6.85167,-3.62 10.03179,-3.4 a 34.456022,61 0 0 1 4.44539,1 32.010209,56.67 0 0 0 3.841,0.84 16.04182,28.4 0 0 0 3.18577,-0.17 6.8912043,12.2 0 0 0 2.25941,-1.25 6.1343016,10.86 0 0 0 1.60983,-2.33 z"
         style="fill:#263238;stroke-width:0.751567"
         id="path192" />
      <path
         d="m 358.75502,307.74 a 6.608778,11.7 0 0 1 -0.72302,1.09 16.612321,29.41 0 0 1 -2.17468,2.48 19.007297,33.65 0 0 1 -3.56423,2.57 19.634284,34.76 0 0 1 -4.65438,1.29 17.821106,31.55 0 0 1 -8.32593,-3 5.2926708,9.37 0 0 1 -2.00523,-2.91 2.9033435,5.14 0 0 1 -0.33326,-1.12 c -0.0451,-0.27 -0.0678,-0.41 -0.0565,-0.42 a 5.8631722,10.38 0 0 0 0.48012,1.42 5.4790723,9.7 0 0 0 2.01089,2.7 18.532821,32.81 0 0 0 8.2186,2.85 19.148511,33.9 0 0 0 8.12823,-3.69 19.447883,34.43 0 0 0 2.20293,-2.32 5.7332561,10.15 0 0 1 0.79645,-0.94 z"
         style="fill:#263238;stroke-width:0.751567"
         id="path193" />
      <path
         d="m 414.78841,319.45 0.36716,0.24 a 7.4108689,13.12 0 0 0 1.10146,0.52 6.5184015,11.54 0 0 0 4.17991,-1.16 v 0.24 a 9.952707,17.62 0 0 0 -5.1797,-3.58 10.093919,17.87 0 0 0 -6.7387,3.1 1.1297056,2 0 0 0 -0.5253,1.2 0.72866013,1.29 0 0 0 0.44623,1.19 3.112339,5.51 0 0 0 0.92636,0.58 l 1.01673,0.41 c 1.36695,0.54 2.77908,1.07 4.24204,1.45 a 25.226327,44.66 0 0 0 4.51883,0.54 16.990772,30.08 0 0 0 2.31589,-0.39 c 0.3841,-0.12 0.76821,-0.25 1.12971,-0.43 a 5.9535487,10.54 0 0 0 1.12971,-0.64 3.6602463,6.48 0 0 0 1.44602,-1.85 1.6437217,2.91 0 0 0 0.27678,-2.84 2.6999964,4.78 0 0 0 -1.12971,-2.24 9.1110756,16.13 0 0 0 -1.58159,-1.37 21.803319,38.6 0 0 0 -6.65961,-2.42 27.457496,48.61 0 0 0 -11.29706,3.11 27.78511,49.19 0 0 0 -6.81212,6.59 c -0.72866,1 -1.29352,1.78 -1.64937,2.36 l -0.42364,0.64 -0.14687,0.2 c 0,0 0.0395,-0.09 0.12992,-0.24 l 0.40105,-0.67 c 0.34456,-0.61 0.89812,-1.43 1.61548,-2.45 a 27.587411,48.84 0 0 1 18.22215,-10 21.882398,38.74 0 0 1 6.72175,2.44 9.1506155,16.2 0 0 1 1.63807,1.42 2.9880714,5.29 0 0 1 1.25398,2.49 1.9487422,3.45 0 0 1 -0.32198,3.34 3.9539697,7 0 0 1 -1.55899,2 6.213381,11 0 0 1 -1.16359,0.67 c -0.38975,0.18 -0.7795,0.31 -1.1749,0.43 a 16.61797,29.42 0 0 1 -2.35543,0.4 25.231975,44.67 0 0 1 -4.55837,-0.56 c -1.46861,-0.39 -2.88639,-0.93 -4.25334,-1.48 l -1.01673,-0.42 a 3.3439287,5.92 0 0 1 -1.00544,-0.63 1.3556467,2.4 0 0 1 -0.41799,-0.65 0.83598217,1.48 0 0 1 -0.15251,-1 1.3217556,2.34 0 0 1 0.63264,-1.52 10.285969,18.21 0 0 1 6.90814,-3.11 10.088271,17.86 0 0 1 5.26443,3.73 l 0.096,0.14 -0.10732,0.1 a 6.5296985,11.56 0 0 1 -4.27029,1.06 4.7560607,8.42 0 0 1 -1.47992,-0.94 z"
         style="fill:#263238;stroke-width:0.751567"
         id="path194" />
      <path
         d="m 445.51641,307.94 a 1.5251026,2.7 0 0 1 0.23159,0.93 3.8579447,6.83 0 0 1 0.15815,2.77 7.7441321,13.71 0 0 1 -2.32154,8.07 11.777181,20.85 0 0 1 -2.17468,3.27 9.7945475,17.34 0 0 1 -2.09561,1.8 10.240781,18.13 0 0 1 -1.51945,0.67 2.4006245,4.25 0 0 1 -0.56485,0.09 c 0,-0.1 0.80208,-0.3 2.01652,-1.11 a 10.353752,18.33 0 0 0 2.02217,-1.85 12.567975,22.25 0 0 0 2.1069,-3.23 7.9079394,14 0 0 0 2.33284,-7.75 5.7389046,10.16 0 0 0 -0.19204,-3.66 z"
         style="fill:#263238;stroke-width:0.751567"
         id="path195" />
      <path
         d="m 488.39438,324.7 a 12.754377,22.58 0 0 0 -1.09581,-1.89 7.7497806,13.72 0 0 0 -3.73368,-3 8.235554,14.58 0 0 0 -2.82426,0.14 12.342034,21.85 0 0 1 -3.33264,0.55 c -1.22573,-0.2 -2.32718,-1.51 -3.32132,-2.89 a 11.342245,20.08 0 0 0 -3.33264,-3.5 12.257306,21.7 0 0 0 -7.40522,-0.2 17.758972,31.44 0 0 0 -5.47907,4.91 30.445567,53.9 0 0 0 -3.17448,4.8 l -0.80774,1.42 a 2.8242641,5 0 0 1 -0.29371,0.48 1.6380732,2.9 0 0 1 0.24853,-0.55 c 0.16945,-0.35 0.42929,-0.86 0.77384,-1.49 a 26.694944,47.26 0 0 1 3.12929,-4.95 17.566922,31.1 0 0 1 5.52991,-5.08 12.387222,21.93 0 0 1 7.58032,0.17 11.522998,20.4 0 0 1 3.38912,3.59 c 0.99414,1.37 2.02783,2.61 3.17447,2.81 a 12.370277,21.9 0 0 0 3.26485,-0.49 8.472792,15 0 0 1 2.91464,-0.09 7.6989439,13.63 0 0 1 3.77322,3.19 5.02719,8.9 0 0 1 1.02238,2.07 z"
         style="fill:#263238;stroke-width:0.751567"
         id="path196" />
      <path
         d="m 526.68011,307.36 a 1.9430936,3.44 0 0 1 -0.25983,0.63 12.330737,21.83 0 0 1 -0.81904,1.72 21.955829,38.87 0 0 1 -3.48515,5.48 28.118373,49.78 0 0 1 -6.04392,5.94 24.661474,43.66 0 0 1 -3.90313,2.2 19.899765,35.23 0 0 1 -4.36067,1 21.498298,38.06 0 0 1 -8.28073,-3 27.728625,49.09 0 0 1 -6.01569,-6 23.492228,41.59 0 0 1 -3.46255,-5.53 c -0.3841,-0.7 -0.63263,-1.32 -0.81903,-1.71 a 3.0840964,5.46 0 0 1 -0.25984,-0.63 2.8638038,5.07 0 0 1 0.31068,0.56 c 0.1977,0.37 0.45752,1 0.85292,1.65 a 25.644317,45.4 0 0 0 3.50209,5.37 28.163561,49.86 0 0 0 5.99309,5.89 21.515244,38.09 0 0 0 8.17342,3 19.815037,35.08 0 0 0 4.30418,-1 25.124653,44.48 0 0 0 3.86359,-2.15 28.519418,50.49 0 0 0 6.02698,-5.79 24.040136,42.56 0 0 0 3.52468,-5.32 c 0.3954,-0.67 0.64958,-1.28 0.85293,-1.65 a 2.60962,4.62 0 0 1 0.30502,-0.66 z"
         style="fill:#263238;stroke-width:0.751567"
         id="path197" />
      <path
         d="m 521.21233,307.18 c 0,0 -0.0678,0.12 -0.20334,0.29 -0.13557,0.17 -0.34456,0.44 -0.62134,0.75 a 25.418377,45 0 0 1 -2.38933,2.39 25.802477,45.68 0 0 1 -3.77887,2.73 16.945585,30 0 0 1 -4.93116,1.49 20.334701,36 0 0 1 -8.75522,-3.92 19.730309,34.93 0 0 1 -2.37238,-2.46 c -0.27113,-0.32 -0.46318,-0.6 -0.59874,-0.79 a 0.90941303,1.61 0 0 1 -0.1977,-0.3 8.2073114,14.53 0 0 1 0.85857,0.92 25.706452,45.51 0 0 0 2.40063,2.3 21.097252,37.35 0 0 0 8.66484,3.73 17.165877,30.39 0 0 0 4.85209,-1.43 27.559169,48.79 0 0 0 3.76756,-2.6 c 1.03933,-0.87 1.86402,-1.66 2.42323,-2.24 a 7.4673542,13.22 0 0 1 0.88116,-0.86 z"
         style="fill:#263238;stroke-width:0.751567"
         id="path198" />
      <path
         d="m 545.48971,309.08 h -0.27678 l -0.79644,-0.08 -0.56485,-0.07 h -0.67218 c -0.48013,0 -1.03368,0 -1.63808,0 l -0.94894,0.1 -1.02239,0.21 c -0.71171,0.11 -1.45732,0.4 -2.25942,0.64 a 33.851629,59.93 0 0 0 -4.99329,2.63 35.721292,63.24 0 0 0 -4.67698,4.07 c -0.67217,0.78 -1.33305,1.45 -1.89791,2.22 l -0.84163,1.07 -0.71171,1.13 c -0.48012,0.65 -0.87552,1.32 -1.23139,1.9 l -0.50271,0.8 -0.38975,0.71 -0.56485,1 a 1.1297056,2 0 0 1 -0.20899,0.32 c 0,0 0.0508,-0.15 0.1638,-0.39 l 0.51402,-1 0.37844,-0.76 0.48013,-0.83 c 0.35021,-0.6 0.73996,-1.3 1.22008,-2 l 0.73431,-1.09 c 0.26549,-0.36 0.56486,-0.72 0.83598,-1.1 0.56486,-0.79 1.22573,-1.49 1.89791,-2.28 a 32.976107,58.38 0 0 1 4.71087,-4.14 32.38866,57.34 0 0 1 5.04414,-2.62 c 0.80209,-0.23 1.55334,-0.51 2.25941,-0.6 l 1.03368,-0.19 0.96025,-0.05 a 14.268182,25.26 0 0 1 1.64937,0 l 0.67783,0.05 0.56485,0.12 0.77949,0.19 a 0.75125424,1.33 0 0 1 0.29373,0.04 z"
         style="fill:#263238;stroke-width:0.751567"
         id="path199" />
      <path
         d="m 555.71354,305.45 c 0,0 0,0.13 0,0.35 a 4.4340946,7.85 0 0 1 -0.0508,1 7.9700732,14.11 0 0 1 -0.56485,3.55 11.715048,20.74 0 0 1 -4.45668,9.06 23.396204,41.42 0 0 1 -6.28116,4.75 c -0.84163,0.42 -1.52511,0.72 -1.99958,0.92 a 4.4679858,7.91 0 0 1 -0.74561,0.25 3.615058,6.4 0 0 1 0.71172,-0.45 l 1.97133,-1.08 a 25.328,44.84 0 0 0 6.20208,-4.8 10.766094,19.06 0 0 0 5.21359,-13.55 z"
         style="fill:#263238;stroke-width:0.751567"
         id="path200" />
      <path
         d="m 492.68726,324.33 a 11.127601,19.7 0 0 0 -1.3161,-2.77 12.172578,21.55 0 0 0 -4.81255,-4.76 26.333439,46.62 0 0 0 -3.75627,-1.47 c -1.36694,-0.38 -2.82426,-0.69 -4.38891,-1.16 a 36.980913,65.47 0 0 1 -4.76735,-2.11 30.648914,54.26 0 0 0 -5.08368,-2.18 21.187629,37.51 0 0 0 -9.91317,2.42 36.065853,63.85 0 0 0 -4.02739,3.21 c -1.23703,1.12 -2.36674,2.22 -3.38912,3.25 -2.05606,2.06 -3.69414,3.81 -4.8182,5 l -1.29916,1.41 -0.33891,0.36 c -0.0791,0.08 -0.11862,0.12 -0.12427,0.11 a 0.48577342,0.86 0 0 1 0.10733,-0.15 l 0.32196,-0.41 c 0.28808,-0.35 0.71171,-0.85 1.27092,-1.49 1.1297,-1.27 2.72824,-3.07 4.773,-5.18 1.02804,-1.05 2.15209,-2.17 3.38912,-3.31 a 35.105602,62.15 0 0 1 4.05,-3.28 21.198926,37.53 0 0 1 10.03743,-2.48 30.999122,54.88 0 0 1 5.13452,2.2 37.280285,66 0 0 0 4.72781,2.13 c 1.5364,0.48 3.01067,0.8 4.38326,1.21 a 25.198084,44.61 0 0 1 3.77886,1.54 11.901448,21.07 0 0 1 4.8295,5 6.117356,10.83 0 0 1 1.23137,2.91 z"
         style="fill:#263238;stroke-width:0.751567"
         id="path201" />
      <path
         d="m 438.90198,307.46 a 2.4853524,4.4 0 0 1 -0.0339,1.18 8.0152614,14.19 0 0 1 -0.46882,3.12 10.093919,17.87 0 0 1 -3.67155,8.31 24.390345,43.18 0 0 1 -5.43953,4.43 c -0.72866,0.43 -1.32175,0.74 -1.7341,0.93 a 3.016314,5.34 0 0 1 -0.65523,0.24 3.0502052,5.4 0 0 1 0.62134,-0.44 l 1.69456,-1.07 a 28.462933,50.39 0 0 0 5.34915,-4.52 10.489317,18.57 0 0 0 3.63766,-8 14.528014,25.72 0 0 0 0.70042,-4.18 z"
         style="fill:#263238;stroke-width:0.751567"
         id="path202" />
      <path
         d="m 383.46733,325.67 a 4.0161035,7.11 0 0 1 0.56485,-1 c 0.3841,-0.62 0.96589,-1.46 1.69455,-2.46 a 49.097006,86.92 0 0 1 6.08912,-7 c 2.4797,-2.42 4.80125,-4.35 6.48451,-5.71 0.84163,-0.69 1.5251,-1.23 1.99958,-1.59 a 3.8466477,6.81 0 0 1 0.75125,-0.51 4.0838858,7.23 0 0 1 -0.70041,0.69 l -1.96569,1.74 c -1.65502,1.45 -3.95397,3.43 -6.42802,5.84 a 59.25306,104.9 0 0 0 -6.10606,6.78 c -0.75126,1 -1.35001,1.76 -1.75105,2.33 a 4.4115005,7.81 0 0 1 -0.63263,0.89 z"
         style="fill:#263238;stroke-width:0.751567"
         id="path203" />
      <path
         d="m 394.73049,308.21 c 0,0.06 -0.56485,-0.12 -1.54205,0 a 10.884714,19.27 0 0 0 -3.98221,2.14 36.99786,65.5 0 0 0 -5.1797,6.15 26.158334,46.31 0 0 1 -3.11234,3.58 17.657299,31.26 0 0 1 -3.72803,2.54 34.642424,61.33 0 0 1 -7.63116,1.62 c -2.36108,0.12 -4.47928,0 -6.25857,0.17 a 31.580921,55.91 0 0 0 -4.18556,0.72 c -0.48577,0.16 -0.86422,0.29 -1.1297,0.4 a 2.1125495,3.74 0 0 1 -0.3954,0.13 1.5759393,2.79 0 0 1 0.37845,-0.23 c 0.24854,-0.14 0.62699,-0.3 1.1297,-0.5 a 27.434901,48.57 0 0 1 4.20251,-0.89 c 1.78494,-0.18 3.90878,-0.13 6.25857,-0.28 a 35.308949,62.51 0 0 0 7.56338,-1.65 17.476546,30.94 0 0 0 3.6659,-2.48 26.853103,47.54 0 0 0 3.08974,-3.52 35.709995,63.22 0 0 1 5.20794,-6.11 10.647476,18.85 0 0 1 4.06694,-2 6.7782337,12 0 0 1 1.12971,0.07 1.903554,3.37 0 0 1 0.45188,0.14 z"
         style="fill:#263238;stroke-width:0.751567"
         id="path204" />
      <path
         d="m 543.64264,307.11 c 0,0.14 -9.98095,0.26 -22.28344,0.26 -12.3025,0 -22.29474,-0.12 -22.29474,-0.26 0,-0.14 9.98095,-0.26 22.29474,-0.26 12.31379,0 22.28344,0.15 22.28344,0.26 z"
         style="fill:#263238;stroke-width:0.751567"
         id="path205" />
      <rect
         x="343.39001"
         y="298.88"
         width="56.970001"
         height="8.5100002"
         style="fill:#263238"
         id="rect205" />
      <rect
         x="343.39001"
         y="300.85001"
         width="15.06"
         height="4.5799999"
         style="fill:#e0e0e0"
         id="rect206" />
      <rect
         x="348.47"
         y="290.37"
         width="56.970001"
         height="8.5100002"
         style="fill:#1f81da"
         id="rect207" />
      <rect
         x="366.81"
         y="292.41"
         width="38.639999"
         height="4.2600002"
         style="fill:#e0e0e0"
         id="rect208" />
      <rect
         x="339.95999"
         y="281.85999"
         width="56.970001"
         height="8.5100002"
         transform="rotate(180,368.45,286.11)"
         style="fill:#263238"
         id="rect209" />
      <rect
         x="381.87"
         y="283.82001"
         width="15.06"
         height="4.5799999"
         transform="rotate(180,389.405,286.11)"
         style="fill:#e0e0e0"
         id="rect210" />
    </g>
  </g>
</svg>
