<?xml version="1.0" encoding="UTF-8" standalone="no"?>
<!-- Created with Inkscape (http://www.inkscape.org/) -->

<svg
   width="59.454929mm"
   height="91.299774mm"
   viewBox="0 0 59.454929 91.299774"
   version="1.1"
   id="svg1"
   xmlns:inkscape="http://www.inkscape.org/namespaces/inkscape"
   xmlns:sodipodi="http://sodipodi.sourceforge.net/DTD/sodipodi-0.dtd"
   xmlns="http://www.w3.org/2000/svg"
   xmlns:svg="http://www.w3.org/2000/svg">
  <sodipodi:namedview
     id="namedview1"
     pagecolor="#ffffff"
     bordercolor="#000000"
     borderopacity="0.25"
     inkscape:showpageshadow="2"
     inkscape:pageopacity="0.0"
     inkscape:pagecheckerboard="0"
     inkscape:deskcolor="#d1d1d1"
     inkscape:document-units="mm">
    <inkscape:page
       x="0"
       y="0"
       width="59.454929"
       height="91.299774"
       id="page2"
       margin="0"
       bleed="0" />
  </sodipodi:namedview>
  <defs
     id="defs1" />
  <g
     inkscape:label="Layer 1"
     inkscape:groupmode="layer"
     id="layer1"
     transform="translate(-133.87917,-82.814581)">
    <g
       id="g336"
       transform="matrix(0.26458333,0,0,0.26458333,128.14014,57.864375)">
      <g
         id="freepik--background-complete--inject-141"
         transform="translate(-2.9821074)"
         inkscape:export-filename="freepik--background-complete--inject-141.svg"
         inkscape:export-xdpi="96"
         inkscape:export-ydpi="96">
        <path
           d="m 216.87,267.78 c 0,0 -6.25,-0.45 -5.67,13.56 a 160.74,160.74 0 0 0 2,21.49 c 0,0 -0.19,3.11 -2.6,2.5 -2.41,-0.61 -6.93,-3.64 -9.17,-1.38 -2.24,2.26 -1.43,5.94 1.57,10.18 3,4.24 9.48,13.77 10.06,14.63 0.58,0.86 0.79,2.44 -0.92,2.29 -1.71,-0.15 -13.22,-4.06 -14.75,1.52 -1.53,5.58 9,16 10.11,17.12 1.11,1.12 1.19,1.89 0.74,2.59 -0.45,0.7 -4.21,-1 -7.53,-1.95 -3.32,-0.95 -7.34,-1.52 -8,1.77 -0.66,3.29 4,12.92 21.36,23 l 8.34,4.16 7.89,-5 c 16.24,-11.81 19.88,-21.85 18.95,-25.06 -0.93,-3.21 -4.89,-2.27 -8.09,-1 -3.2,1.27 -6.77,3.35 -7.3,2.7 -0.53,-0.65 -0.53,-1.38 0.47,-2.65 1,-1.27 10.43,-12.66 8.35,-18.05 -2.08,-5.39 -13.14,-0.36 -14.83,0 -1.69,0.36 -1.61,-1.28 -1.14,-2.18 0.47,-0.9 5.9,-11 8.54,-15.57 2.64,-4.57 3.1,-8.18 0.56,-10.28 -2.54,-2.1 -6.66,1.44 -9,2.28 -2.34,0.84 -2.83,-2.22 -2.83,-2.22 a 161.85,161.85 0 0 0 -0.15,-21.58 c -0.83,-14 -7.15,-12.87 -7.15,-12.87"
           style="fill:#ebebeb"
           id="path77" />
        <path
           d="m 217.37,280.33 v 0.29 c 0,0.21 0,0.5 0.07,0.86 0.05,0.78 0.12,1.89 0.22,3.31 0.19,2.88 0.44,7 0.72,12.18 0.57,10.29 1.24,24.51 1.93,40.21 0.69,15.7 1.32,29.93 1.83,40.22 0.26,5.14 0.47,9.3 0.62,12.19 0.07,1.43 0.13,2.54 0.17,3.31 0,0.37 0,0.66 0,0.86 a 2.25,2.25 0 0 1 0,0.3 2.25,2.25 0 0 1 0,-0.29 c 0,-0.21 0,-0.5 -0.07,-0.86 0,-0.78 -0.13,-1.89 -0.22,-3.31 -0.19,-2.88 -0.44,-7 -0.72,-12.18 -0.58,-10.29 -1.24,-24.51 -1.93,-40.22 -0.69,-15.71 -1.32,-29.92 -1.83,-40.21 -0.26,-5.14 -0.48,-9.3 -0.62,-12.19 -0.07,-1.43 -0.13,-2.54 -0.17,-3.31 0,-0.37 0,-0.66 0,-0.86 a 2.25,2.25 0 0 1 0,-0.3 z"
           style="fill:#e0e0e0"
           id="path78" />
        <path
           d="m 207.61,308.44 a 2.82,2.82 0 0 1 0.52,0.43 c 0.32,0.29 0.77,0.73 1.32,1.27 1.1,1.09 2.58,2.64 4.18,4.37 l 4.08,4.47 1.24,1.34 a 2.81,2.81 0 0 1 0.44,0.52 c 0,0 -0.2,-0.14 -0.53,-0.43 -0.33,-0.29 -0.77,-0.73 -1.31,-1.28 -1.09,-1.1 -2.55,-2.66 -4.15,-4.4 L 209.29,310.3 208,309 a 2.82,2.82 0 0 1 -0.39,-0.56 z"
           style="fill:#e0e0e0"
           id="path79" />
        <path
           d="m 220.21,320.56 c -0.06,-0.06 3,-3.25 6.81,-7.13 3.81,-3.88 7,-7 7,-6.91 0,0.09 -3,3.26 -6.81,7.14 -3.81,3.88 -6.93,6.97 -7,6.9 z"
           style="fill:#e0e0e0"
           id="path80" />
        <path
           d="m 220.18,344.73 a 3,3 0 0 1 0.58,-0.37 l 1.63,-0.91 c 1.38,-0.78 3.28,-1.85 5.33,-3.11 2.05,-1.26 3.87,-2.46 5.18,-3.34 l 1.56,-1 a 3.57,3.57 0 0 1 0.59,-0.36 c 0,0 -0.17,0.18 -0.52,0.46 -0.35,0.28 -0.86,0.66 -1.5,1.12 -1.28,0.93 -3.09,2.16 -5.15,3.42 -2.06,1.26 -4,2.31 -5.38,3 -0.71,0.36 -1.28,0.64 -1.68,0.82 a 2.58,2.58 0 0 1 -0.64,0.27 z"
           style="fill:#e0e0e0"
           id="path81" />
        <path
           d="m 206.36,336.28 a 2,2 0 0 1 0.58,0.27 c 0.36,0.19 0.88,0.48 1.51,0.84 1.27,0.72 3,1.73 4.93,2.87 1.93,1.14 3.64,2.19 4.88,3 0.62,0.38 1.12,0.7 1.46,0.93 a 2.36,2.36 0 0 1 0.51,0.37 2.72,2.72 0 0 1 -0.58,-0.27 c -0.36,-0.19 -0.87,-0.48 -1.51,-0.84 -1.27,-0.72 -3,-1.73 -4.93,-2.87 -1.93,-1.14 -3.63,-2.19 -4.87,-3 -0.62,-0.39 -1.12,-0.7 -1.46,-0.93 a 2.76,2.76 0 0 1 -0.52,-0.37 z"
           style="fill:#e0e0e0"
           id="path82" />
        <path
           d="m 203.62,357.61 a 4.23,4.23 0 0 1 0.73,0.35 l 2,1.07 c 1.63,0.92 3.87,2.2 6.34,3.64 2.47,1.44 4.69,2.75 6.3,3.72 l 1.89,1.16 a 4.22,4.22 0 0 1 0.67,0.46 4.17,4.17 0 0 1 -0.74,-0.36 l -1.94,-1.07 c -1.63,-0.91 -3.87,-2.2 -6.34,-3.63 -2.47,-1.43 -4.69,-2.76 -6.3,-3.72 l -1.89,-1.16 a 4.22,4.22 0 0 1 -0.72,-0.46 z"
           style="fill:#e0e0e0"
           id="path83" />
        <path
           d="m 221.14,367.64 a 4.89,4.89 0 0 1 0.73,-0.49 l 2,-1.23 c 1.71,-1 4.07,-2.49 6.63,-4.16 2.56,-1.67 4.84,-3.23 6.49,-4.38 l 2,-1.35 a 4.55,4.55 0 0 1 0.73,-0.47 3.82,3.82 0 0 1 -0.66,0.57 c -0.44,0.34 -1.08,0.84 -1.89,1.43 -1.61,1.2 -3.88,2.8 -6.44,4.47 -2.56,1.67 -4.95,3.09 -6.69,4.08 -0.88,0.5 -1.59,0.89 -2.08,1.15 a 4.94,4.94 0 0 1 -0.82,0.38 z"
           style="fill:#e0e0e0"
           id="path84" />
        <polygon
           points="226.14,439.04 233.68,382.03 210.6,382.03 218.13,439.04 "
           style="fill:#e0e0e0"
           id="polygon84" />
        <path
           d="m 211.8,389 c 0,0 0,0.08 0.12,0.2 a 1.49,1.49 0 0 0 0.56,0.4 2.78,2.78 0 0 0 2.44,-0.3 c 0.93,-0.51 1.74,-1.52 3,-2 a 6.58,6.58 0 0 1 4.24,0.09 18.11,18.11 0 0 1 3.95,1.91 28.38,28.38 0 0 0 3.21,1.73 9.1,9.1 0 0 0 2.37,0.68 5,5 0 0 0 0.67,0.05 0.64,0.64 0 0 0 0.24,0 12.45,12.45 0 0 1 -3.17,-1 29.3,29.3 0 0 1 -3.14,-1.78 17.5,17.5 0 0 0 -4,-2 6.76,6.76 0 0 0 -4.48,-0.05 5.84,5.84 0 0 0 -1.68,1 13.33,13.33 0 0 1 -1.32,1 2.77,2.77 0 0 1 -2.25,0.39 2.32,2.32 0 0 1 -0.76,-0.32 z"
           style="fill:#f5f5f5"
           id="path85" />
        <path
           d="m 212.64,399.54 c 0,0 0.18,-0.23 0.54,-0.61 a 5,5 0 0 1 1.85,-1.17 8.2,8.2 0 0 1 3.21,-0.48 33.74,33.74 0 0 1 4,0.54 13.73,13.73 0 0 0 4.11,0.17 11.22,11.22 0 0 0 3.24,-0.92 9.81,9.81 0 0 0 1.94,-1.16 2.94,2.94 0 0 0 0.62,-0.55 22.41,22.41 0 0 1 -2.67,1.47 12.07,12.07 0 0 1 -3.17,0.82 14.19,14.19 0 0 1 -4,-0.2 29.52,29.52 0 0 0 -4.06,-0.52 8.09,8.09 0 0 0 -3.32,0.58 4.78,4.78 0 0 0 -1.85,1.32 2.75,2.75 0 0 0 -0.35,0.51 c -0.07,0.13 -0.1,0.19 -0.09,0.2 z"
           style="fill:#f5f5f5"
           id="path86" />
        <path
           d="m 231.06,405.16 a 1.83,1.83 0 0 0 -0.63,-0.33 7,7 0 0 0 -1.92,-0.41 12.43,12.43 0 0 0 -2.89,0.17 c -1.07,0.17 -2.23,0.47 -3.44,0.72 a 14.21,14.21 0 0 1 -3.43,0.39 7.39,7.39 0 0 1 -2.73,-0.59 6.12,6.12 0 0 1 -2.07,-1.54 1.6,1.6 0 0 0 0.39,0.6 4.75,4.75 0 0 0 1.57,1.18 7.3,7.3 0 0 0 2.82,0.7 13.82,13.82 0 0 0 3.53,-0.37 c 1.22,-0.26 2.37,-0.56 3.42,-0.75 a 12.77,12.77 0 0 1 2.82,-0.24 10.47,10.47 0 0 1 2.56,0.47 z"
           style="fill:#f5f5f5"
           id="path87" />
        <path
           d="m 214.68,413.07 a 3.68,3.68 0 0 1 2.24,-0.23 11.44,11.44 0 0 1 2.34,0.87 8.68,8.68 0 0 0 3.05,0.84 9.09,9.09 0 0 0 5.52,-1.28 8,8 0 0 0 1.37,-1 2.49,2.49 0 0 0 0.41,-0.49 22,22 0 0 1 -1.92,1.31 9.38,9.38 0 0 1 -5.35,1.14 c -2.19,-0.13 -3.86,-1.43 -5.38,-1.6 a 3.4,3.4 0 0 0 -1.74,0.15 c -0.39,0.1 -0.55,0.27 -0.54,0.29 z"
           style="fill:#f5f5f5"
           id="path88" />
        <path
           d="m 216,424 a 4.48,4.48 0 0 0 1.93,-0.38 c 1.16,-0.39 2.59,-1.28 4.27,-1.95 a 7,7 0 0 1 2.45,-0.51 4.44,4.44 0 0 1 2,0.45 4.5,4.5 0 0 1 1.43,1.23 c 0,0 0,-0.2 -0.22,-0.49 a 3.19,3.19 0 0 0 -1.08,-1 4.59,4.59 0 0 0 -2.09,-0.57 7,7 0 0 0 -2.59,0.51 c -1.74,0.69 -3.13,1.61 -4.24,2.05 C 216.75,423.78 216,424 216,424 Z"
           style="fill:#f5f5f5"
           id="path89" />
        <path
           d="m 217.1,429.1 a 4.92,4.92 0 0 0 1.46,0.47 25.76,25.76 0 0 0 3.65,0.62 27.37,27.37 0 0 0 3.7,0.11 6.2,6.2 0 0 0 1.53,-0.18 c 0,-0.12 -2.34,0 -5.19,-0.31 -2.85,-0.31 -5.13,-0.81 -5.15,-0.71 z"
           style="fill:#f5f5f5"
           id="path90" />
        <polygon
           points="85.95,385.21 122.8,385.21 163.44,385.21 163.44,360.01 85.95,360.01 "
           style="fill:#f5f5f5"
           id="polygon131" />
        <polygon
           points="82.7,360.01 166.14,360.01 166.14,352.97 122.8,352.97 82.7,352.97 "
           style="fill:#e0e0e0"
           id="polygon132" />
        <polygon
           points="166.14,352.97 122.8,352.97 122.8,359.36 124.42,385.21 163.44,385.21 163.44,360.01 166.14,360.01 "
           style="fill:#e0e0e0"
           id="polygon133" />
        <rect
           x="96.790001"
           y="364.07001"
           width="15.71"
           height="3.79"
           style="fill:#e0e0e0"
           id="rect133" />
        <rect
           x="94.769997"
           y="372.60999"
           width="20.18"
           height="8.0100002"
           style="fill:#ffffff"
           id="rect134" />
        <path
           d="M 175.07,439.37 173.45,94.3 h -6.68 v 68 h -17.26 l -0.32,-68 h -6.68 v 68 H 83.14 l -0.32,-68 h -6.68 v 68 H 58.93 l -0.32,-68 h -6.68 v 345.07 h 8.31 L 60,393.06 h 16.14 v 46.31 h 8.31 l -0.22,-46.31 h 58.28 v 46.31 h 8.31 l -0.22,-46.31 h 16.17 v 46.31 z m -107.43,-92 -6,-25.57 h 12.29 z m 8.5,-24 v 60.42 l -7.23,-31 z m 0,-87.82 -7.23,-31 7.23,-29.43 z m -1.3,5.55 H 59.93 l 7.65,-31.13 z m -7.2,-42 -6.84,-29.3 h 14 z m -1.33,5.41 -7,28.68 L 59,173.08 Z M 59.7,324.38 66.31,352.74 60,378.62 Z m 7.88,33.78 6.42,27.35 H 60.85 Z m -7.67,-43.94 v -0.24 H 59.7 l -0.31,-65.44 h 16.8 v 65.63 z m 23.64,-65.63 h 59 v 65.63 H 83.86 Z m 74.19,-38.67 7.26,31.13 h -14.91 z m -7.91,21.59 -0.26,-56.6 6.9,29.59 z m 16.94,6 -7.7,-33 7.7,-31.33 z m 0,3.44 v 0.11 h -0.47 z m 0,84.17 v 56.74 l -6.8,-29.1 z m -8.06,22.22 -6,-25.57 H 165 Z M 157.8,199.1 151,169.8 h 14 z m 9,49.5 v 65.63 H 151 l -0.06,-0.24 -0.69,0.16 -0.31,-65.55 z m -9.39,104.15 -6.84,27.84 -0.28,-58.34 z m 1.26,5.42 6.33,27.34 H 151.92 Z M 142.51,169.8 v 71.25 h -59 L 83.17,169.8 Z M 85.26,385.51 h -1.07 l -0.3,-63.75 h 58.62 v 63.75 z"
           style="fill:#e0e0e0"
           id="path134" />
        <rect
           x="126.3"
           y="189.91"
           width="11.04"
           height="51.43"
           style="fill:#e0e0e0"
           id="rect135" />
        <path
           d="m 134.22,229 a 2.19,2.19 0 1 1 -2.18,-2.19 2.19,2.19 0 0 1 2.18,2.19 z"
           style="fill:#fafafa"
           id="path135" />
        <rect
           x="130.25"
           y="203.53999"
           width="3.3800001"
           height="21.02"
           style="fill:#fafafa"
           id="rect136" />
        <rect
           x="115.09"
           y="189.91"
           width="11.04"
           height="51.43"
           style="fill:#ebebeb"
           id="rect137" />
        <path
           d="M 123,229 A 2.19,2.19 0 1 1 120.82,226.81 2.19,2.19 0 0 1 123,229 Z"
           style="fill:#fafafa"
           id="path137" />
        <rect
           x="119.04"
           y="203.53999"
           width="3.3800001"
           height="21.02"
           style="fill:#fafafa"
           id="rect138" />
        <rect
           x="104.41"
           y="189.91"
           width="11.04"
           height="51.43"
           style="fill:#f5f5f5"
           id="rect139" />
        <path
           d="m 112.34,229 a 2.19,2.19 0 1 1 -2.19,-2.19 2.19,2.19 0 0 1 2.19,2.19 z"
           style="fill:#e0e0e0"
           id="path139" />
        <rect
           x="108.37"
           y="203.53999"
           width="3.3800001"
           height="21.02"
           style="fill:#e0e0e0"
           id="rect140" />
        <polygon
           points="85.85,238.92 90.76,240.56 104.02,195.32 99.45,193.31 "
           style="fill:#f5f5f5"
           id="polygon140" />
        <polygon
           points="126.3,314.21 71.12,314.21 71.12,306.43 126.12,306.43 "
           style="fill:#f5f5f5"
           id="polygon141" />
        <path
           d="m 126.15,307.7 c 0,0 -48.79,0.36 -51.94,1.1 -0.68,0.16 -1.37,3.16 0,3.43 1.37,0.27 51.94,0.69 51.94,0.69 z"
           style="fill:#ffffff"
           id="path141" />
        <polygon
           points="121.22,306.12 77.51,306.12 77.51,298.33 121.08,298.33 "
           style="fill:#ebebeb"
           id="polygon142" />
        <path
           d="m 121.1,299.6 c 0,0 -38.64,0.4 -41.1,1.11 -0.54,0.16 -1.09,3.15 0,3.43 1.09,0.28 41.14,0.68 41.14,0.68 z"
           style="fill:#fafafa"
           id="path142" />
        <polygon
           points="121.02,298.43 77.31,298.43 77.31,290.64 120.88,290.64 "
           style="fill:#e0e0e0"
           id="polygon143" />
        <path
           d="m 120.91,291.91 c 0,0 -38.65,0.36 -41.15,1.1 -0.54,0.16 -1.09,3.16 0,3.43 1.09,0.27 41.15,0.69 41.15,0.69 z"
           style="fill:#fafafa"
           id="path143" />
        <rect
           x="131.25"
           y="111.82"
           width="11.04"
           height="51.43"
           style="fill:#f5f5f5"
           id="rect143" />
        <path
           d="m 139.17,150.91 a 2.19,2.19 0 1 1 -2.18,-2.18 2.18,2.18 0 0 1 2.18,2.18 z"
           style="fill:#e0e0e0"
           id="path144" />
        <rect
           x="135.21001"
           y="125.45"
           width="3.3800001"
           height="21.02"
           style="fill:#e0e0e0"
           id="rect144" />
        <rect
           x="120.04"
           y="111.82"
           width="11.03"
           height="51.43"
           style="fill:#ebebeb"
           id="rect145" />
        <path
           d="m 128,150.91 a 2.19,2.19 0 1 1 -2.18,-2.18 2.19,2.19 0 0 1 2.18,2.18 z"
           style="fill:#fafafa"
           id="path145" />
        <rect
           x="124"
           y="125.45"
           width="3.3699999"
           height="21.02"
           style="fill:#fafafa"
           id="rect146" />
        <rect
           x="109.36"
           y="111.82"
           width="11.04"
           height="51.43"
           style="fill:#e0e0e0"
           id="rect147" />
        <path
           d="m 117.29,150.91 a 2.19,2.19 0 1 1 -2.19,-2.18 2.19,2.19 0 0 1 2.19,2.18 z"
           style="fill:#fafafa"
           id="path147" />
        <rect
           x="113.32"
           y="125.45"
           width="3.3800001"
           height="21.02"
           style="fill:#fafafa"
           id="rect148" />
      </g>
      <g
         id="freepik--speech-bubbles--inject-141">
        <path
           d="m 71.6,191.07 -5.11,-9 a 24.1,24.1 0 1 0 -5.77,6.42 v 0 z"
           style="fill:#fafafa"
           id="path148" />
        <path
           d="m 71.6,191.07 -10.92,-2.44 a 0.14,0.14 0 0 1 -0.1,-0.16 v -0.05 0 l 0.19,0.18 a 24.18,24.18 0 0 1 -11.58,4.91 21.89,21.89 0 0 1 -3.83,0.2 c -0.65,0 -1.32,-0.06 -2,-0.11 l -2,-0.31 a 24.37,24.37 0 0 1 -19.21,-19 24.8,24.8 0 0 1 0.28,-10.76 24,24 0 0 1 5.19,-10 24.4,24.4 0 0 1 9.32,-6.65 24.72,24.72 0 0 1 10.84,-1.66 23.93,23.93 0 0 1 9.95,2.94 24.59,24.59 0 0 1 11.46,14.14 26.19,26.19 0 0 1 1,7.86 24,24 0 0 1 -3.63,12 V 182 l 5,9.07 c -0.43,-0.75 -2,-3.38 -5.22,-8.94 a 0.12,0.12 0 0 1 0,-0.13 24.05,24.05 0 0 0 3.48,-11.85 26,26 0 0 0 -1.07,-7.73 24.23,24.23 0 0 0 -11.31,-13.83 23.2,23.2 0 0 0 -9.75,-2.86 24.18,24.18 0 0 0 -10.62,1.64 23.84,23.84 0 0 0 -9.07,6.52 23.44,23.44 0 0 0 -5.08,9.73 24.26,24.26 0 0 0 -0.29,10.54 24,24 0 0 0 18.8,18.72 l 2,0.31 c 0.67,0.06 1.33,0.08 2,0.12 a 21.23,21.23 0 0 0 3.77,-0.18 23.93,23.93 0 0 0 11.47,-4.74 0.12,0.12 0 0 1 0.18,0 0.12,0.12 0 0 1 0,0.16 v 0 l -0.07,-0.21 z"
           style="fill:#263238"
           id="path149" />
        <path
           d="m 39.26,166.9 c 0,-2.17 1.3,-3.55 3.16,-3.55 1.86,0 3.15,1.36 3.15,3.55 0,2.19 -1.29,3.56 -3.15,3.56 -1.86,0 -3.16,-1.38 -3.16,-3.56 z m 4.49,0 c 0,-1.38 -0.53,-2 -1.33,-2 -0.8,0 -1.33,0.68 -1.33,2 0,1.32 0.55,2 1.33,2 0.78,0 1.33,-0.61 1.33,-2 z M 50,163.49 h 2.16 l -8.68,12.91 h -2.17 z m -2.1,9.5 c 0,-2.18 1.31,-3.56 3.15,-3.56 1.84,0 3.17,1.38 3.17,3.56 0,2.18 -1.31,3.56 -3.17,3.56 -1.86,0 -3.14,-1.39 -3.14,-3.55 z m 4.48,0 c 0,-1.37 -0.53,-2.05 -1.33,-2.05 -0.8,0 -1.33,0.67 -1.33,2.05 0,1.38 0.55,2 1.33,2 0.78,0 1.34,-0.64 1.34,-1.99 z"
           style="fill:#1f81da"
           id="path150" />
      </g>
      <g
         id="freepik--character-2--inject-141">
        <path
           d="m 207.65,168.72 a 1.27,1.27 0 0 0 0.51,-2.12 c 0.65,-0.36 0.47,-1.38 0,-1.92 -0.47,-0.54 -1.23,-0.87 -1.63,-1.5 a 1.52,1.52 0 0 0 1.82,-1.31 1.24,1.24 0 0 0 0.78,-2.27 c 0.7,-0.06 0.64,-1.21 0.06,-1.59 a 14.37,14.37 0 0 0 -2,-0.66 8.14,8.14 0 0 0 -4.35,-2.55 l 2.84,-2.12 a 1.49,1.49 0 0 0 0.57,-0.6 c 0.25,-0.56 -0.19,-1.19 -0.66,-1.59 A 6.68,6.68 0 0 0 202,149 c -0.41,0 -0.94,0 -1.08,0.41 a 6,6 0 0 0 -2.87,-0.32 2.28,2.28 0 0 0 -1.54,0.47 4.43,4.43 0 0 1 1,-1.27 1.93,1.93 0 0 0 0.65,-1.44 c -0.05,-0.54 -0.7,-1 -1.15,-0.71 0.5,-0.23 0.43,-1 0,-1.4 a 2.53,2.53 0 0 0 -1.59,-0.4 c -0.38,0 -0.88,0.06 -1,0.43 a 1.08,1.08 0 0 0 -2,-0.16 1.35,1.35 0 0 0 -1.94,0.15 1.73,1.73 0 0 0 -2.45,0.91 l 1.51,-2.53 c 0.29,-0.48 0.33,-1.37 -0.22,-1.31 a 1.21,1.21 0 0 0 0.86,-1.78 2.05,2.05 0 0 0 -2.07,-0.86 l -0.69,1 a 1.57,1.57 0 0 0 -2.4,1.75 0.81,0.81 0 0 0 -1.2,0.24 2.4,2.4 0 0 0 -0.23,1.36 1.34,1.34 0 0 0 -2.08,1.11 4.31,4.31 0 0 0 -2.28,-0.47 1.55,1.55 0 0 0 -2,-2.2 1.53,1.53 0 0 0 -2,-1.24 c -0.25,-0.92 -1.46,-1.6 -2.19,-1 -0.73,0.6 -0.35,1.84 0.11,2.71 l 1.52,2.83 -4.94,-2.65 a 0.87,0.87 0 0 0 -0.49,-0.14 c -0.24,0 -0.41,0.24 -0.62,0.35 a 5.28,5.28 0 0 1 -1,0.17 c -0.87,0.27 -0.86,1.6 -0.26,2.29 a 22.21,22.21 0 0 0 2.19,1.63 l -2.2,0.41 a 2.23,2.23 0 0 0 -2.89,-1.51 c -0.3,-0.81 -1.38,-0.92 -2.25,-0.88 a 3.15,3.15 0 0 0 -2.17,0.64 2.15,2.15 0 0 0 0,2.72 6.25,6.25 0 0 0 2.39,1.7 c -0.15,0.65 -1,0.85 -1.66,0.76 a 4.12,4.12 0 0 0 -2,-0.13 c -0.86,0.33 -1.22,1.43 -2.08,1.74 a 4,4 0 0 0 -0.78,0.26 1.59,1.59 0 0 0 -0.53,1 c -0.11,0.48 -0.21,0.95 -0.32,1.43 a 1.72,1.72 0 0 0 -0.06,0.71 c 0.16,0.78 1.24,1 2,0.65 a 9.62,9.62 0 0 1 2.14,-1 5.93,5.93 0 0 0 -2.69,2.07 c -0.58,1 -0.34,2.55 0.74,2.94 1.08,0.39 2.18,-0.56 3,-1.41 0.82,-0.85 1.95,-1.75 3,-1.26"
           style="fill:#263238"
           id="path166" />
        <path
           d="m 206.06,168 a 1.41,1.41 0 0 1 2.13,1.23 2.95,2.95 0 0 1 1.1,5.08 c -0.65,0.54 -1.94,0.56 -2.07,-0.27 a 2.3,2.3 0 0 1 -1.63,1.4 2.21,2.21 0 0 1 -0.89,3.14 2.36,2.36 0 0 1 -0.41,3.91 1.81,1.81 0 1 1 -3.29,1.51 3.83,3.83 0 0 1 -1.2,1.8 1.33,1.33 0 0 1 -1.91,-0.32 2.49,2.49 0 0 1 -3.54,1.49 1.6,1.6 0 0 1 -3.15,0.55 l -4.14,0.32 a 14.87,14.87 0 0 1 -2.75,0 7.39,7.39 0 0 1 -3.31,-1.14 2.52,2.52 0 0 0 -1,-0.5 2.62,2.62 0 0 0 -1.24,0.31 6.71,6.71 0 0 1 -6.48,-1 3.5,3.5 0 0 0 -0.9,-0.59 3,3 0 0 0 -1.23,-0.07 12.48,12.48 0 0 1 -3,-0.17 3.21,3.21 0 0 1 -2.23,-1.21 c -0.47,-0.74 -0.1,-2 0.77,-2 a 1.88,1.88 0 0 0 -0.6,-1.53 1.12,1.12 0 0 0 -1.53,0.07 0.82,0.82 0 0 0 0.48,1.29 1.68,1.68 0 0 1 -2.53,-1.19 2.26,2.26 0 0 1 2.07,-2.28 5,5 0 0 1 -0.28,-2.49 1.86,1.86 0 0 1 -2.48,0.5 3.21,3.21 0 0 1 -1.93,1.65 1.91,1.91 0 0 1 -2.19,-1 1.37,1.37 0 0 1 1.15,-1.87 1.64,1.64 0 0 1 1.24,-2.49 2.57,2.57 0 0 1 1.32,-2.83 1.33,1.33 0 0 1 -2,-0.57 c -0.46,0.88 -1.76,0.79 -2.65,0.36 a 1.79,1.79 0 0 1 -1.27,-1.84 2,2 0 0 1 0.63,-1.24 5,5 0 0 1 3,-1 13.36,13.36 0 0 0 0.92,-4.23 2.56,2.56 0 0 1 -2.77,-1.84 l 6,-3.72 c 0,0 13.86,-2.14 14.36,-2.14 0.5,0 29.51,14.92 29.51,14.92 a 1.66,1.66 0 0 0 2.48,-0.45 2.69,2.69 0 0 0 -0.24,-2.75 8,8 0 0 0 -2.12,-2 3.94,3.94 0 0 0 2.61,-0.82 1.45,1.45 0 0 0 0.39,-1.6 c -0.33,-0.8 -1.25,-0.75 -1.85,-1.2 a 3.54,3.54 0 0 1 -0.76,-1.06"
           style="fill:#263238"
           id="path167" />
        <path
           d="m 167.34,164.89 c 0.34,-4.95 3.67,-11 8.6,-10.45 l 15.38,4 a 2.91,2.91 0 0 1 2.58,3 l -1.58,33.23 3.58,1.78 c 0,0 -3.83,2.15 -3.8,2.16 0.03,0.01 -3.56,10.47 -13.72,7.22 -2,-0.65 -2.93,-2.86 -3.32,-5.13 H 175 c 0,-0.27 -3.36,-2.84 -3.36,-3.1 0,0.26 3.31,-1.88 3.31,-1.88 v -0.9 c 0,-3 0,-4.23 0,-4.2 0,0.03 -6.32,-1.1 -7.57,-9.36 -0.68,-4.14 -0.38,-10.87 -0.04,-16.37 z"
           style="fill:#b78876"
           id="path168" />
        <path
           d="m 169.06,170.42 a 1,1 0 0 0 1,1.07 1,1 0 0 0 1.1,-1 1.06,1.06 0 0 0 -1,-1.07 1,1 0 0 0 -1.1,1 z"
           style="fill:#263238"
           id="path169" />
        <path
           d="m 168.78,168.4 c 0.13,0.14 0.93,-0.45 2.07,-0.44 1.14,0.01 2,0.59 2.1,0.45 0.1,-0.14 -0.08,-0.31 -0.44,-0.58 a 2.9,2.9 0 0 0 -1.67,-0.53 2.87,2.87 0 0 0 -1.66,0.52 c -0.35,0.27 -0.47,0.52 -0.4,0.58 z"
           style="fill:#263238"
           id="path170" />
        <path
           d="m 180,170.38 a 1.06,1.06 0 0 0 1,1.08 1,1 0 0 0 1.1,-1 1.07,1.07 0 0 0 -1,-1.08 1,1 0 0 0 -1.1,1 z"
           style="fill:#263238"
           id="path171" />
        <path
           d="m 180,168.69 c 0.13,0.14 0.94,-0.45 2.08,-0.44 1.14,0.01 2,0.59 2.09,0.45 0.09,-0.14 -0.07,-0.31 -0.43,-0.58 a 2.89,2.89 0 0 0 -1.68,-0.53 2.83,2.83 0 0 0 -1.65,0.52 c -0.41,0.27 -0.5,0.52 -0.41,0.58 z"
           style="fill:#263238"
           id="path172" />
        <path
           d="m 175.78,177.11 a 8,8 0 0 0 -1.85,-0.35 c -0.29,0 -0.56,-0.09 -0.61,-0.29 a 1.49,1.49 0 0 1 0.2,-0.86 c 0.28,-0.7 0.57,-1.44 0.87,-2.21 a 38.86,38.86 0 0 0 2,-5.78 38,38 0 0 0 -2.44,5.61 q -0.44,1.17 -0.84,2.22 a 1.68,1.68 0 0 0 -0.15,1.14 0.69,0.69 0 0 0 0.47,0.43 2,2 0 0 0 0.49,0.08 7,7 0 0 0 1.86,0.01 z"
           style="fill:#263238"
           id="path173" />
        <path
           d="m 174.9,190.59 a 21.06,21.06 0 0 0 11.1,-2.88 c 0,0 -2.72,5.66 -11,4.83 z"
           style="fill:#995037"
           id="path174" />
        <path
           d="m 175.65,179.68 a 2.89,2.89 0 0 1 2.36,-1.26 1.75,1.75 0 0 1 1.47,2.73 1.79,1.79 0 0 1 -1.89,0.69 4.19,4.19 0 0 1 -1.7,-1.07 1.39,1.39 0 0 1 -0.36,-0.44 0.59,0.59 0 0 1 0.05,-0.59"
           style="fill:#995037"
           id="path175" />
        <path
           d="m 179.13,177.92 c -0.19,0 -0.2,1.23 -1.26,2.1 -1.06,0.87 -2.38,0.72 -2.39,0.89 -0.01,0.17 0.29,0.25 0.84,0.27 a 3.11,3.11 0 0 0 2,-0.68 2.72,2.72 0 0 0 1,-1.76 c 0.03,-0.52 -0.11,-0.83 -0.19,-0.82 z"
           style="fill:#263238"
           id="path176" />
        <path
           d="m 179.47,166.06 c 0.11,0.31 1.25,0.17 2.59,0.34 1.34,0.17 2.41,0.54 2.59,0.27 0.18,-0.27 -0.11,-0.43 -0.54,-0.73 a 4.44,4.44 0 0 0 -1.92,-0.69 4.26,4.26 0 0 0 -2,0.23 c -0.52,0.19 -0.76,0.43 -0.72,0.58 z"
           style="fill:#263238"
           id="path177" />
        <path
           d="m 169.22,165.11 c 0.2,0.26 1,0 1.93,0 0.93,0 1.74,0.18 1.92,-0.09 0.18,-0.27 0,-0.39 -0.39,-0.63 a 2.65,2.65 0 0 0 -1.56,-0.44 2.7,2.7 0 0 0 -1.54,0.51 c -0.34,0.25 -0.45,0.54 -0.36,0.65 z"
           style="fill:#263238"
           id="path178" />
        <path
           d="m 193.93,169.87 a 1.38,1.38 0 0 1 -0.39,1.58 1,1 0 0 1 -1.35,-0.37 c -0.36,0.48 -1.19,0 -1.08,-0.64 -0.44,0.25 -1,-0.35 -0.89,-0.91 -0.52,0.2 -0.82,-0.64 -1.1,-1.2 a 8.1,8.1 0 0 0 -0.53,-0.85 5.83,5.83 0 0 1 -0.86,-3.12 5.73,5.73 0 0 1 -1,-3.05 l -0.25,-2.05 -0.39,-0.48 a 1.11,1.11 0 0 1 -0.73,1.07 2.41,2.41 0 0 1 -1.25,0 l -1.23,-0.24 -0.76,0.23 a 3.17,3.17 0 0 1 -0.22,2 2,2 0 0 1 -0.71,1.12 0.58,0.58 0 0 1 -0.81,-0.62 0.65,0.65 0 0 1 -1,-0.15 2.15,2.15 0 0 1 -0.28,-1.27 5.45,5.45 0 0 1 1,-3 l -2.12,2 a 1.07,1.07 0 0 1 -0.52,0.32 0.58,0.58 0 0 1 -0.6,0.63 1.49,1.49 0 0 1 -0.8,-0.54 c -0.52,-0.54 -1.07,-1.47 -0.61,-2.08 a 0.47,0.47 0 0 1 -0.21,-0.68 l -2.41,1.85 c 0.24,-0.14 0.51,0.24 0.45,0.55 a 1.27,1.27 0 0 1 -0.5,0.72 1.89,1.89 0 0 1 0.29,1.15 c 0.43,-0.4 1.09,0.33 0.95,0.95 a 1.37,1.37 0 0 1 -1.28,1 1,1 0 0 1 -1.08,-0.7 c -0.53,0.11 -1,-0.62 -0.86,-1.22 -0.38,0.26 -0.72,-0.43 -0.75,-1 a 7.46,7.46 0 0 1 0.42,-2.82 c 0,0.14 -0.14,0.25 -0.24,0.18 a 0.21,0.21 0 0 1 0,-0.32 l -1.35,3.33 a 7.85,7.85 0 0 0 -0.74,2.78 c 0,0.39 0,0.94 -0.38,1 a 0.48,0.48 0 0 1 -0.26,-0.07 5,5 0 0 1 -2.2,-2.53 3.94,3.94 0 0 1 -0.34,-1.17 16.86,16.86 0 0 1 0.33,-2.53 10.55,10.55 0 0 1 0.07,-1.13 3.57,3.57 0 0 1 0.87,-1.48 c 1.3,-1.51 2.68,-3.08 4.42,-3.7 1.07,-0.37 2.21,-0.36 3.28,-0.73 a 18.45,18.45 0 0 0 1.92,-0.89 16.41,16.41 0 0 1 8.39,-1.18 13.48,13.48 0 0 1 4.65,1.08 16.15,16.15 0 0 1 4.37,3.34 25,25 0 0 1 5.15,6.89 12.11,12.11 0 0 1 1.24,6.81 c -0.34,2.34 -1.78,4.53 -3.74,5 l -0.77,-0.88"
           style="fill:#263238"
           id="path179" />
        <path
           d="m 191.68,171.45 c 0.11,0 4.59,-1.48 4.55,3.13 -0.04,4.61 -4.66,3.62 -4.66,3.49 0,-0.13 0.11,-6.62 0.11,-6.62 z"
           style="fill:#b78876"
           id="path180" />
        <path
           d="m 193,176.33 c 0,0 0.08,0.06 0.21,0.12 a 0.76,0.76 0 0 0 0.6,0 2,2 0 0 0 0.94,-1.77 2.65,2.65 0 0 0 -0.22,-1.15 0.89,0.89 0 0 0 -0.59,-0.62 0.41,0.41 0 0 0 -0.48,0.21 c -0.06,0.13 0,0.22 -0.06,0.23 -0.06,0.01 -0.1,-0.08 -0.06,-0.27 a 0.54,0.54 0 0 1 0.19,-0.29 0.59,0.59 0 0 1 0.44,-0.11 1.13,1.13 0 0 1 0.83,0.72 2.72,2.72 0 0 1 0.27,1.29 2.09,2.09 0 0 1 -1.19,2 0.86,0.86 0 0 1 -0.73,-0.13 C 193,176.45 193,176.34 193,176.33 Z"
           style="fill:#aa6550"
           id="path181" />
        <path
           d="m 176.61,170 a 8.41,8.41 0 0 1 0.21,-1.32 5.4,5.4 0 0 1 7.08,-3.68 5.11,5.11 0 0 1 1.35,0.74 5,5 0 0 1 1.13,1.13 5.31,5.31 0 0 1 0,6.34 4.71,4.71 0 0 1 -1.13,1.14 4.8,4.8 0 0 1 -1.35,0.73 5.41,5.41 0 0 1 -2.82,0.24 5.24,5.24 0 0 1 -2.27,-1 5.38,5.38 0 0 1 -2,-2.95 8.24,8.24 0 0 1 -0.21,-1.33 1.88,1.88 0 0 0 0,0.35 2.27,2.27 0 0 0 0,0.42 3.72,3.72 0 0 0 0.1,0.58 5.51,5.51 0 0 0 4.3,4.1 5.56,5.56 0 0 0 2.92,-0.23 5,5 0 0 0 1.41,-0.75 5.28,5.28 0 0 0 1.18,-1.18 5.54,5.54 0 0 0 1.08,-3.29 5.63,5.63 0 0 0 -1.08,-3.29 5.71,5.71 0 0 0 -2.59,-1.93 5.5,5.5 0 0 0 -5.24,0.82 5.43,5.43 0 0 0 -2,3.06 3.43,3.43 0 0 0 -0.1,0.57 2.43,2.43 0 0 0 0,0.42 1.88,1.88 0 0 0 0.03,0.31 z"
           style="fill:#455a64"
           id="path182" />
        <path
           d="m 163.61,170 a 8.41,8.41 0 0 1 0.21,-1.32 5.4,5.4 0 0 1 7.08,-3.68 5.11,5.11 0 0 1 1.35,0.74 5,5 0 0 1 1.13,1.13 5.31,5.31 0 0 1 0,6.34 4.71,4.71 0 0 1 -1.13,1.14 4.8,4.8 0 0 1 -1.35,0.73 5.41,5.41 0 0 1 -2.82,0.24 5.24,5.24 0 0 1 -2.27,-1 5.38,5.38 0 0 1 -2,-2.95 8.24,8.24 0 0 1 -0.21,-1.33 1.88,1.88 0 0 0 0,0.35 2.27,2.27 0 0 0 0,0.42 3.72,3.72 0 0 0 0.1,0.58 5.51,5.51 0 0 0 4.3,4.1 5.56,5.56 0 0 0 2.92,-0.23 5,5 0 0 0 1.41,-0.75 5.28,5.28 0 0 0 1.18,-1.18 5.54,5.54 0 0 0 1.08,-3.29 5.63,5.63 0 0 0 -1.08,-3.29 5.71,5.71 0 0 0 -2.59,-1.93 5.5,5.5 0 0 0 -5.24,0.82 5.43,5.43 0 0 0 -2,3.06 3.43,3.43 0 0 0 -0.1,0.57 2.43,2.43 0 0 0 0,0.42 1.88,1.88 0 0 0 0.03,0.31 z"
           style="fill:#455a64"
           id="path183" />
        <path
           d="m 174.29,168.76 c 0,0.06 0.55,-0.16 1.24,-0.18 0.69,-0.02 1.22,0.15 1.24,0.1 a 1.85,1.85 0 0 0 -1.25,-0.3 1.9,1.9 0 0 0 -1.23,0.38 z"
           style="fill:#455a64"
           id="path184" />
        <path
           d="m 187.57,170.58 a 8.7,8.7 0 0 0 2.3,0.59 9.41,9.41 0 0 0 2.37,0.17 c 0,-0.06 -1.05,-0.17 -2.34,-0.38 -1.29,-0.21 -2.31,-0.43 -2.33,-0.38 z"
           style="fill:#455a64"
           id="path185" />
        <path
           d="m 177.18,169.18 a 3,3 0 0 0 0.06,1 6.39,6.39 0 0 0 0.9,2.32 5.63,5.63 0 0 0 1.74,1.79 1.24,1.24 0 0 0 1,0.22 2.35,2.35 0 0 1 -0.93,-0.34 6.26,6.26 0 0 1 -1.64,-1.78 7.33,7.33 0 0 1 -0.94,-2.24 c -0.13,-0.58 -0.15,-0.97 -0.19,-0.97 z"
           style="fill:#ffffff"
           id="path186" />
        <path
           d="m 165.29,172.69 a 7.07,7.07 0 0 0 -0.44,-0.86 4.1,4.1 0 0 1 -0.36,-1 3.21,3.21 0 0 1 0,-1.24 6.46,6.46 0 0 1 0.65,-2.2 c 0.28,-0.52 0.56,-0.77 0.53,-0.79 -0.03,-0.02 -0.08,0 -0.21,0.16 a 2.69,2.69 0 0 0 -0.45,0.56 5.89,5.89 0 0 0 -0.73,2.24 3.41,3.41 0 0 0 0,1.32 3.9,3.9 0 0 0 0.42,1 3.34,3.34 0 0 0 0.59,0.81 z"
           style="fill:#ffffff"
           id="path187" />
        <path
           d="m 194.93,177.91 c 0,0 0.12,0.06 0.3,0.19 a 1.58,1.58 0 0 1 0.53,0.77 1.33,1.33 0 0 1 -0.28,1.29 1.56,1.56 0 0 1 -1.53,0.45 1.66,1.66 0 0 1 -0.84,-2.52 2.06,2.06 0 0 1 0.71,-0.65 c 0.2,-0.11 0.32,-0.14 0.32,-0.16 a 0.8,0.8 0 0 0 -0.36,0.09 1.9,1.9 0 0 0 -0.79,0.63 1.79,1.79 0 0 0 -0.32,1.46 1.82,1.82 0 0 0 1.22,1.35 1.73,1.73 0 0 0 1.73,-0.52 1.44,1.44 0 0 0 0.35,-0.75 1.54,1.54 0 0 0 -0.69,-1.5 0.62,0.62 0 0 0 -0.35,-0.13 z"
           style="fill:#455a64"
           id="path188" />
        <path
           d="m 175.82,156.83 a 1.15,1.15 0 0 1 -0.31,-0.6 0.79,0.79 0 0 1 0.2,-0.69 0.87,0.87 0 0 1 0.88,-0.23 l 0.2,0.07 -0.09,-0.19 a 0.9,0.9 0 0 1 0.25,-1 0.88,0.88 0 0 1 1.14,0 l 0.15,-0.14 a 0.45,0.45 0 0 1 -0.06,-0.12 0.51,0.51 0 0 1 0.07,-0.43 0.58,0.58 0 0 1 0.38,-0.24 1,1 0 0 1 0.46,0 1.25,1.25 0 0 0 0.52,0.12 c 0.22,0 0.31,-0.21 0.43,-0.28 a 1.86,1.86 0 0 1 0.35,-0.22 1.89,1.89 0 0 1 0.74,-0.17 2,2 0 0 1 1.08,0.26 c 0.23,0.13 0.33,0.24 0.35,0.23 a 0.94,0.94 0 0 0 -0.31,-0.3 2,2 0 0 0 -1.12,-0.34 2,2 0 0 0 -1.21,0.39 c -0.13,0.1 -0.23,0.23 -0.34,0.24 a 1.63,1.63 0 0 1 -0.44,-0.12 1.13,1.13 0 0 0 -0.55,0 0.8,0.8 0 0 0 -0.51,0.32 0.71,0.71 0 0 0 -0.1,0.62 0.52,0.52 0 0 0 0.1,0.18 l 0.15,-0.14 a 1.06,1.06 0 0 0 -1.69,1.2 l 0.11,-0.12 a 1,1 0 0 0 -1,0.3 0.91,0.91 0 0 0 -0.21,0.81 0.89,0.89 0 0 0 0.26,0.47 0.35,0.35 0 0 0 0.12,0.12 z"
           style="fill:#455a64"
           id="path189" />
        <path
           d="m 170.67,158.16 a 1.38,1.38 0 0 1 -0.39,-0.58 1,1 0 0 1 0,-0.78 1.13,1.13 0 0 1 0.81,-0.59 h 0.15 l -0.1,-0.12 a 1.26,1.26 0 0 1 -0.35,-1.12 0.69,0.69 0 0 1 0.41,-0.47 0.54,0.54 0 0 1 0.61,0.08 l 0.59,0.63 -0.43,-0.75 a 1.08,1.08 0 0 1 -0.06,-0.9 1,1 0 0 1 0.72,-0.61 1.09,1.09 0 0 1 0.69,0.07 l 0.24,0.12 -0.1,-0.25 a 0.67,0.67 0 0 1 0.58,-0.81 1.7,1.7 0 0 1 1.09,0.27 l 0.2,0.11 -0.07,-0.22 a 0.79,0.79 0 0 1 0.25,-0.74 1.38,1.38 0 0 1 0.71,-0.31 3.57,3.57 0 0 1 1.32,0 5.54,5.54 0 0 1 1.11,0.4 c 0,0 -0.08,-0.08 -0.26,-0.18 a 3.42,3.42 0 0 0 -0.82,-0.33 3.57,3.57 0 0 0 -1.38,-0.07 1.53,1.53 0 0 0 -0.79,0.34 0.94,0.94 0 0 0 -0.32,0.91 l 0.14,-0.11 a 2,2 0 0 0 -1.22,-0.3 1,1 0 0 0 -0.6,0.36 0.73,0.73 0 0 0 -0.13,0.73 l 0.14,-0.13 a 1.24,1.24 0 0 0 -1.69,0.65 1.28,1.28 0 0 0 0.08,1.07 l 0.16,-0.12 a 0.76,0.76 0 0 0 -0.83,-0.12 0.89,0.89 0 0 0 -0.52,0.6 1.43,1.43 0 0 0 0.42,1.28 v -0.13 a 1.22,1.22 0 0 0 -0.9,0.69 1.12,1.12 0 0 0 0,0.86 1.06,1.06 0 0 0 0.32,0.45 c 0.15,0.1 0.22,0.13 0.22,0.12 z"
           style="fill:#455a64"
           id="path190" />
        <path
           d="m 159.57,159.12 a 0.81,0.81 0 0 1 0.27,-0.56 1,1 0 0 1 0.69,-0.25 3.06,3.06 0 0 1 1,0.23 h 0.12 v -0.12 a 0.89,0.89 0 0 1 0.73,-0.87 2.61,2.61 0 0 1 1.46,0.24 l 0.65,0.24 -0.55,-0.41 a 0.73,0.73 0 0 1 0,-1.06 1.67,1.67 0 0 1 1.29,-0.3 h 0.06 0.41 l -0.34,-0.23 a 0.78,0.78 0 0 1 0.09,-1.24 1.18,1.18 0 0 1 1.32,0.13 l 0.43,0.33 -0.29,-0.46 a 1.77,1.77 0 0 1 0,-1.81 1.65,1.65 0 0 1 1.22,-0.78 1.92,1.92 0 0 1 1,0.12 c 0.22,0.09 0.32,0.17 0.33,0.16 a 0.36,0.36 0 0 0 -0.07,-0.07 1,1 0 0 0 -0.23,-0.14 1.83,1.83 0 0 0 -1,-0.19 1.8,1.8 0 0 0 -1.35,0.81 2,2 0 0 0 0,2 l 0.14,-0.12 a 1.37,1.37 0 0 0 -1.55,-0.15 1,1 0 0 0 -0.45,0.75 0.9,0.9 0 0 0 0.35,0.84 l 0.07,-0.19 h -0.06 a 1.84,1.84 0 0 0 -1.45,0.37 1,1 0 0 0 -0.31,0.68 0.75,0.75 0 0 0 0.28,0.67 l 0.09,-0.17 a 2.81,2.81 0 0 0 -1.58,-0.22 1.06,1.06 0 0 0 -0.83,1.06 l 0.1,-0.08 a 3.1,3.1 0 0 0 -1,-0.21 1.11,1.11 0 0 0 -0.75,0.31 0.67,0.67 0 0 0 -0.22,0.45 0.42,0.42 0 0 0 -0.07,0.24 z"
           style="fill:#455a64"
           id="path191" />
        <path
           d="m 165.39,148.56 c 0,0 0.08,0.06 0.27,0.1 a 3.72,3.72 0 0 0 0.81,0 2.47,2.47 0 0 1 1.16,0.17 0.75,0.75 0 0 1 0.4,0.51 0.53,0.53 0 0 1 -0.21,0.61 l 0.14,0.1 c 0,-0.27 0.37,-0.44 0.67,-0.62 a 3.45,3.45 0 0 1 1,-0.41 1.21,1.21 0 0 1 1,0.15 0.81,0.81 0 0 1 0.43,0.76 v 0.26 l 0.19,-0.17 a 2.3,2.3 0 0 1 1.35,-0.56 2.61,2.61 0 0 1 1.17,0.17 3.59,3.59 0 0 1 0.89,0.57 1,1 0 0 0 -0.18,-0.23 2.19,2.19 0 0 0 -0.67,-0.45 2.59,2.59 0 0 0 -1.22,-0.22 2.47,2.47 0 0 0 -1.47,0.57 l 0.16,0.09 a 1,1 0 0 0 -0.51,-1 1.46,1.46 0 0 0 -1.14,-0.19 3.7,3.7 0 0 0 -1,0.45 3.12,3.12 0 0 0 -0.45,0.29 0.77,0.77 0 0 0 -0.31,0.47 v 0.19 l 0.17,-0.09 a 0.73,0.73 0 0 0 0.3,-0.83 0.89,0.89 0 0 0 -0.51,-0.6 2.35,2.35 0 0 0 -1.24,-0.15 4.25,4.25 0 0 1 -0.79,0 z"
           style="fill:#455a64"
           id="path192" />
        <path
           d="m 175.68,144.57 a 2.66,2.66 0 0 1 0.55,0.08 1.22,1.22 0 0 1 0.52,0.33 1.18,1.18 0 0 1 0.33,0.69 v 0.12 h 0.1 a 0.68,0.68 0 0 1 0.76,0.43 2,2 0 0 1 0,1.14 l -0.06,0.41 0.25,-0.33 v -0.06 a 0.88,0.88 0 0 1 0.72,-0.29 1,1 0 0 1 0.67,0.29 1.56,1.56 0 0 1 0.42,1.23 3.06,3.06 0 0 1 -0.23,0.9 1.48,1.48 0 0 0 -0.13,0.32 c 0,0 0.09,-0.09 0.2,-0.29 a 2.44,2.44 0 0 0 0.31,-0.92 1.69,1.69 0 0 0 -0.43,-1.37 1.15,1.15 0 0 0 -1.69,0 l -0.05,0.07 0.19,0.07 a 2.17,2.17 0 0 0 -0.07,-1.26 0.86,0.86 0 0 0 -1,-0.51 l 0.11,0.08 a 1.26,1.26 0 0 0 -0.41,-0.79 1.38,1.38 0 0 0 -0.59,-0.32 1.13,1.13 0 0 0 -0.43,0 c 0.01,-0.05 -0.04,-0.03 -0.04,-0.02 z"
           style="fill:#455a64"
           id="path193" />
        <path
           d="m 184.76,150.88 a 0.57,0.57 0 0 0 0.27,-0.07 1.54,1.54 0 0 0 0.63,-0.44 1.8,1.8 0 0 0 0.47,-1 0.93,0.93 0 0 1 0.14,-0.57 c 0.12,-0.14 0.37,-0.24 0.53,-0.48 a 1,1 0 0 0 -0.27,-1.4 V 147 a 3.47,3.47 0 0 0 0.89,-1.23 1.44,1.44 0 0 0 0.14,-0.57 c 0,0 -0.08,0.2 -0.25,0.52 a 3.8,3.8 0 0 1 -0.9,1.14 l -0.1,0.08 0.1,0.07 a 0.85,0.85 0 0 1 0.2,1.13 c -0.1,0.18 -0.33,0.26 -0.51,0.46 a 1.13,1.13 0 0 0 -0.17,0.68 1.72,1.72 0 0 1 -0.39,1 2.91,2.91 0 0 1 -0.78,0.6 z"
           style="fill:#455a64"
           id="path194" />
        <path
           d="m 187.43,152.7 c 0,0 0.06,0 0.18,0 a 2.75,2.75 0 0 0 2,-0.92 h -0.13 a 1.81,1.81 0 0 0 1.22,0.64 1.76,1.76 0 0 0 0.78,-0.09 1.14,1.14 0 0 0 0.66,-0.52 1.5,1.5 0 0 0 0.08,-0.3 0.5,0.5 0 0 1 0.13,-0.19 1.49,1.49 0 0 1 0.48,-0.21 1.81,1.81 0 0 0 0.54,-0.22 0.57,0.57 0 0 0 0.29,-0.51 l -0.13,0.09 a 1.86,1.86 0 0 0 1.27,0 2.08,2.08 0 0 0 0.83,-0.52 1.65,1.65 0 0 0 0.34,-0.54 1.16,1.16 0 0 0 0.06,-0.22 2.74,2.74 0 0 1 -0.48,0.68 2,2 0 0 1 -0.8,0.45 1.76,1.76 0 0 1 -1.15,0 l -0.14,-0.06 v 0.15 a 0.4,0.4 0 0 1 -0.21,0.34 1.45,1.45 0 0 1 -0.48,0.18 1.56,1.56 0 0 0 -0.56,0.25 0.72,0.72 0 0 0 -0.2,0.29 2.83,2.83 0 0 1 -0.07,0.28 1,1 0 0 1 -0.54,0.41 1.82,1.82 0 0 1 -0.69,0.09 1.65,1.65 0 0 1 -1.1,-0.56 l -0.07,-0.08 -0.07,0.08 a 2.88,2.88 0 0 1 -1.42,0.89 c -0.37,0.11 -0.62,0.1 -0.62,0.12 z"
           style="fill:#455a64"
           id="path195" />
        <path
           d="m 203.85,159.09 c 0,0 0,0 0,-0.07 0,-0.07 0,-0.12 0,-0.21 a 2.07,2.07 0 0 0 -0.1,-0.83 5.1,5.1 0 0 0 -0.56,-1.17 4.17,4.17 0 0 0 -0.46,-0.66 1.5,1.5 0 0 0 -0.36,-0.28 0.54,0.54 0 0 0 -0.51,0 l 0.13,0.08 a 1.38,1.38 0 0 0 -2.26,-1.2 l 0.17,0.08 a 0.94,0.94 0 0 0 -0.39,-0.78 0.9,0.9 0 0 0 -0.88,-0.11 1,1 0 0 0 -0.41,0.31 l 0.19,0.07 a 0.61,0.61 0 0 0 -0.22,-0.49 0.84,0.84 0 0 0 -0.47,-0.19 1.83,1.83 0 0 0 -0.89,0.22 h 0.12 a 1.42,1.42 0 0 0 -0.9,-0.62 2.07,2.07 0 0 0 -1,0 5.06,5.06 0 0 0 -1.56,0.78 l 0.11,0.09 a 0.36,0.36 0 0 0 0,-0.36 0.67,0.67 0 0 0 -0.25,-0.2 1.11,1.11 0 0 0 -0.56,-0.08 3,3 0 0 0 -0.83,0.25 2.37,2.37 0 0 0 -0.46,0.28 1.22,1.22 0 0 0 -0.15,0.12 c 0,0 0.22,-0.15 0.65,-0.32 a 3,3 0 0 1 0.81,-0.21 0.84,0.84 0 0 1 0.48,0.09 c 0.16,0.07 0.29,0.22 0.22,0.37 l -0.12,0.23 0.23,-0.14 a 5.43,5.43 0 0 1 1.53,-0.73 1.91,1.91 0 0 1 0.92,0 1.29,1.29 0 0 1 0.78,0.55 v 0.07 h 0.08 a 1.76,1.76 0 0 1 0.79,-0.21 c 0.25,0 0.52,0.23 0.5,0.47 v 0.36 l 0.22,-0.3 a 0.72,0.72 0 0 1 0.31,-0.23 0.68,0.68 0 0 1 0.69,0.08 0.78,0.78 0 0 1 0.31,0.6 v 0.23 l 0.17,-0.14 a 1.19,1.19 0 0 1 2,1 v 0.18 L 202,156 c 0.23,-0.13 0.5,0.05 0.67,0.23 a 4.39,4.39 0 0 1 0.46,0.63 5,5 0 0 1 0.58,1.12 2.54,2.54 0 0 1 0.14,1.11 z"
           style="fill:#455a64"
           id="path196" />
        <path
           d="m 202.69,165.19 c 0,0 0,0 0.11,-0.14 a 3,3 0 0 0 0.24,-0.41 1.45,1.45 0 0 0 0.16,-0.77 1.08,1.08 0 0 0 -0.15,-0.47 0.79,0.79 0 0 0 -0.46,-0.35 v 0.11 a 1,1 0 0 0 0,-1 1,1 0 0 0 -1.07,-0.46 l 0.09,0.15 a 0.78,0.78 0 0 0 0,-0.93 1.16,1.16 0 0 0 -0.89,-0.41 c -0.17,0 -0.33,0 -0.46,0 a 0.4,0.4 0 0 1 -0.29,-0.25 1.68,1.68 0 0 0 -0.27,-0.45 0.89,0.89 0 0 0 -0.49,-0.27 5.22,5.22 0 0 0 -1.11,0 1.16,1.16 0 0 1 -0.89,-0.26 2.77,2.77 0 0 1 -0.29,-0.4 1.1,1.1 0 0 0 -0.42,-0.32 1.12,1.12 0 0 0 -1,0.05 l 0.13,0.13 a 0.82,0.82 0 0 0 -0.12,-1 1.14,1.14 0 0 0 -0.78,-0.38 3.69,3.69 0 0 0 -1.36,0.17 5.21,5.21 0 0 0 -0.81,0.32 c -0.18,0.1 -0.27,0.16 -0.26,0.17 a 9,9 0 0 1 1.1,-0.39 3.82,3.82 0 0 1 1.31,-0.12 1,1 0 0 1 0.67,0.34 0.65,0.65 0 0 1 0.1,0.75 l -0.23,0.33 0.35,-0.2 a 0.9,0.9 0 0 1 0.8,0 1,1 0 0 1 0.34,0.26 4.23,4.23 0 0 0 0.3,0.42 1.1,1.1 0 0 0 0.49,0.28 2.62,2.62 0 0 0 0.55,0.05 5.32,5.32 0 0 1 1.06,0 0.74,0.74 0 0 1 0.39,0.21 1.93,1.93 0 0 1 0.24,0.41 0.59,0.59 0 0 0 0.43,0.35 4.16,4.16 0 0 0 0.5,0 1,1 0 0 1 0.74,0.33 0.61,0.61 0 0 1 0,0.69 l -0.17,0.22 0.26,-0.07 a 0.83,0.83 0 0 1 0.89,0.36 0.87,0.87 0 0 1 0,0.87 v 0.09 h 0.1 a 0.79,0.79 0 0 1 0.53,0.7 1.51,1.51 0 0 1 -0.12,0.71 c -0.13,0.39 -0.26,0.57 -0.24,0.58 z"
           style="fill:#455a64"
           id="path197" />
        <path
           d="m 202.34,177.85 c 0,0 0.08,0 0.2,-0.06 a 1.33,1.33 0 0 0 0.48,-0.38 1.48,1.48 0 0 0 0.35,-0.88 1.58,1.58 0 0 0 -0.43,-1.16 v 0.11 a 2.8,2.8 0 0 0 0.54,-1 1.18,1.18 0 0 0 -0.05,-0.67 0.85,0.85 0 0 0 -0.49,-0.51 v 0.18 a 1.21,1.21 0 0 0 0.52,-1.09 1.28,1.28 0 0 0 -0.22,-0.68 1.16,1.16 0 0 0 -0.53,-0.43 0.39,0.39 0 0 1 -0.3,-0.38 1.64,1.64 0 0 0 -0.14,-0.61 2.16,2.16 0 0 0 -0.78,-0.83 l -0.78,-0.56 a 3.47,3.47 0 0 0 -1.27,-0.59 1.55,1.55 0 0 0 -0.38,0 c -0.09,0 -0.14,0 -0.14,0 a 4.81,4.81 0 0 1 0.5,0.09 3.58,3.58 0 0 1 1.2,0.63 l 0.77,0.58 a 1.93,1.93 0 0 1 0.7,0.77 1.39,1.39 0 0 1 0.12,0.55 0.59,0.59 0 0 0 0.12,0.34 0.72,0.72 0 0 0 0.29,0.21 1.08,1.08 0 0 1 0.21,1.84 l -0.18,0.11 0.2,0.07 a 0.82,0.82 0 0 1 0.42,0.95 3,3 0 0 1 -0.49,1 v 0.06 0.05 a 1.51,1.51 0 0 1 0.41,1 1.44,1.44 0 0 1 -0.29,0.82 2,2 0 0 1 -0.56,0.47 z"
           style="fill:#455a64"
           id="path198" />
        <path
           d="m 195.83,172.44 a 0.68,0.68 0 0 0 0.28,-0.06 2.7,2.7 0 0 0 0.73,-0.38 2.8,2.8 0 0 0 0.83,-1 1.07,1.07 0 0 0 0.14,-0.8 0.55,0.55 0 0 0 -0.32,-0.36 0.44,0.44 0 0 0 -0.5,0.09 l 0.15,0.09 a 1.37,1.37 0 0 0 0.15,-0.8 0.72,0.72 0 0 0 -0.25,-0.39 0.56,0.56 0 0 0 -0.48,-0.07 0.85,0.85 0 0 1 -0.36,0.05 c -0.07,0 -0.09,-0.12 -0.08,-0.27 a 1.24,1.24 0 0 0 -0.35,-0.88 1.38,1.38 0 0 0 -1.42,-0.41 l 0.13,0.12 a 1.17,1.17 0 0 0 -0.21,-1.14 0.72,0.72 0 0 0 -0.57,-0.18 0.53,0.53 0 0 0 -0.46,0.34 h 0.18 a 2.77,2.77 0 0 0 -0.36,-1.51 2.8,2.8 0 0 0 -0.78,-0.92 2.84,2.84 0 0 0 -0.67,-0.38 0.88,0.88 0 0 0 -0.26,-0.06 4.3,4.3 0 0 1 0.87,0.53 3,3 0 0 1 0.71,0.9 2.72,2.72 0 0 1 0.31,1.43 l -0.05,0.76 0.22,-0.72 c 0.08,-0.25 0.52,-0.29 0.72,-0.08 a 1,1 0 0 1 0.16,0.95 v 0.19 l 0.18,-0.07 a 1.17,1.17 0 0 1 1.19,0.36 1,1 0 0 1 0.3,0.73 0.74,0.74 0 0 0 0,0.25 0.31,0.31 0 0 0 0.2,0.22 0.86,0.86 0 0 0 0.47,0 0.38,0.38 0 0 1 0.32,0 0.49,0.49 0 0 1 0.18,0.28 1.23,1.23 0 0 1 -0.13,0.69 l -0.19,0.5 0.35,-0.41 c 0.14,-0.16 0.48,0 0.52,0.2 a 1,1 0 0 1 -0.11,0.68 2.81,2.81 0 0 1 -0.76,0.95 4.27,4.27 0 0 1 -0.98,0.58 z"
           style="fill:#455a64"
           id="path199" />
        <path
           d="m 185.4,159.61 a 1.7,1.7 0 0 0 0.62,-0.25 1.73,1.73 0 0 0 0.55,-0.49 1.1,1.1 0 0 0 0.21,-0.9 0.85,0.85 0 0 0 -0.09,-0.22 v 0.15 a 1,1 0 0 0 0.51,-0.69 1,1 0 0 0 -0.13,-0.68 c -0.23,-0.33 -0.5,-0.36 -0.5,-0.34 0,0.02 0.21,0.11 0.38,0.42 a 0.85,0.85 0 0 1 0.07,0.56 0.82,0.82 0 0 1 -0.43,0.54 h -0.09 v 0.1 a 0.44,0.44 0 0 1 0.06,0.16 1,1 0 0 1 -0.16,0.75 2.09,2.09 0 0 1 -0.47,0.47 c -0.32,0.27 -0.55,0.39 -0.53,0.42 z"
           style="fill:#455a64"
           id="path200" />
        <path
           d="m 180.56,157.37 a 1.25,1.25 0 0 1 -0.15,-0.76 0.87,0.87 0 0 1 0.49,-0.66 0.92,0.92 0 0 1 1,0.16 l 0.14,0.12 v -0.18 a 1.59,1.59 0 0 1 0.24,-0.61 0.79,0.79 0 0 1 0.52,-0.37 c 0.33,0 0.7,0.26 0.61,0.54 h 0.2 a 1.56,1.56 0 0 1 0.57,-1 1.46,1.46 0 0 1 0.89,-0.34 2.47,2.47 0 0 1 0.87,0.15 c 0,0 -0.06,-0.06 -0.2,-0.13 a 1.58,1.58 0 0 0 -0.67,-0.15 1.66,1.66 0 0 0 -1,0.33 1.76,1.76 0 0 0 -0.66,1.15 h 0.19 a 0.57,0.57 0 0 0 -0.2,-0.6 0.87,0.87 0 0 0 -0.63,-0.2 1,1 0 0 0 -0.67,0.47 1.86,1.86 0 0 0 -0.25,0.69 L 182,156 a 1.1,1.1 0 0 0 -1.2,-0.16 1,1 0 0 0 -0.54,0.79 1,1 0 0 0 0.12,0.61 0.51,0.51 0 0 0 0.18,0.13 z"
           style="fill:#455a64"
           id="path201" />
        <path
           d="m 173.3,413.41 0.34,24.95 -31,0.58 c 0.12,-3 16.07,-9.22 16.07,-9.22 l -0.87,-16 z"
           style="fill:#1f81da"
           id="path202" />
        <g
           style="opacity:0.6"
           id="g203">
          <path
             d="m 168.24,428.19 a 1.27,1.27 0 0 1 0.91,1.43 1.23,1.23 0 0 1 -1.41,0.91 1.33,1.33 0 0 1 -1,-1.52 1.25,1.25 0 0 1 1.57,-0.78"
             style="fill:#263238"
             id="path203" />
        </g>
        <path
           d="m 173.64,438.26 v -2.52 l -29.83,1.69 c 0,0 -1.37,0.64 -1.19,1.61 z"
           style="fill:#263238"
           id="path204" />
        <path
           d="m 158.16,429.57 c 0,0.15 0.77,0.2 1.53,0.68 0.76,0.48 1.16,1.1 1.3,1 0.14,-0.1 -0.11,-0.94 -1,-1.49 -0.89,-0.55 -1.86,-0.33 -1.83,-0.19 z"
           style="fill:#263238"
           id="path205" />
        <path
           d="m 154.93,431 c 0,0.15 0.63,0.4 1.16,1 0.53,0.6 0.69,1.31 0.84,1.3 0.15,-0.01 0.23,-0.87 -0.44,-1.65 -0.67,-0.78 -1.56,-0.82 -1.56,-0.65 z"
           style="fill:#263238"
           id="path206" />
        <path
           d="m 153.16,434.91 c 0.14,0 0.33,-0.74 -0.07,-1.56 -0.4,-0.82 -1.12,-1.14 -1.18,-1 -0.06,0.14 0.38,0.56 0.7,1.24 0.32,0.68 0.39,1.3 0.55,1.32 z"
           style="fill:#263238"
           id="path207" />
        <path
           d="m 158.37,425.9 c 0.07,0.14 0.76,-0.08 1.61,0 0.85,0.08 1.54,0.3 1.61,0.17 0.07,-0.13 -0.57,-0.66 -1.58,-0.7 -1.01,-0.04 -1.72,0.42 -1.64,0.53 z"
           style="fill:#263238"
           id="path208" />
        <path
           d="m 159,422.21 a 3,3 0 0 0 1.55,0 6.91,6.91 0 0 0 1.62,-0.53 7.75,7.75 0 0 0 0.88,-0.49 1.91,1.91 0 0 0 0.47,-0.38 0.65,0.65 0 0 0 0.05,-0.8 0.81,0.81 0 0 0 -0.67,-0.34 2.36,2.36 0 0 0 -0.58,0.09 6.37,6.37 0 0 0 -1,0.35 6.06,6.06 0 0 0 -1.42,1 c -0.7,0.68 -0.94,1.25 -0.89,1.28 0.05,0.03 0.41,-0.43 1.14,-1 a 5.7,5.7 0 0 1 1.37,-0.81 4.64,4.64 0 0 1 0.89,-0.29 c 0.32,-0.1 0.6,-0.1 0.69,0 0.09,0.1 0,0.08 0,0.18 a 1.75,1.75 0 0 1 -0.34,0.27 c -0.27,0.18 -0.55,0.34 -0.81,0.48 a 8.31,8.31 0 0 1 -1.5,0.61 9,9 0 0 0 -1.45,0.38 z"
           style="fill:#455a64"
           id="path209" />
        <path
           d="m 159.24,422.42 a 2.4,2.4 0 0 0 0.38,-1.51 4.93,4.93 0 0 0 -0.24,-1.7 5.39,5.39 0 0 0 -0.41,-0.93 1.29,1.29 0 0 0 -1,-0.77 0.71,0.71 0 0 0 -0.64,0.45 1.93,1.93 0 0 0 -0.15,0.57 3.34,3.34 0 0 0 0,1.05 3.64,3.64 0 0 0 0.69,1.59 c 0.62,0.79 1.26,1 1.27,0.91 0.01,-0.09 -0.48,-0.36 -1,-1.12 a 3.55,3.55 0 0 1 -0.52,-1.46 3,3 0 0 1 0,-0.89 c 0,-0.34 0.16,-0.6 0.29,-0.57 0.13,0.03 0.42,0.24 0.55,0.5 a 4.86,4.86 0 0 1 0.4,0.83 5.84,5.84 0 0 1 0.33,1.55 c 0.12,0.91 -0.03,1.48 0.05,1.5 z"
           style="fill:#455a64"
           id="path210" />
        <path
           d="m 197.2,413.78 -0.23,25 -31.05,-0.13 c 0.2,-3 16.28,-8.85 16.28,-8.85 l -0.5,-16 z"
           style="fill:#263238"
           id="path211" />
        <g
           style="opacity:0.6"
           id="g212">
          <path
             d="m 191.81,428.44 a 1.28,1.28 0 0 1 0.87,1.46 1.22,1.22 0 0 1 -1.43,0.87 1.34,1.34 0 0 1 -0.91,-1.54 1.26,1.26 0 0 1 1.58,-0.75"
             style="fill:#455a64"
             id="path212" />
        </g>
        <path
           d="m 197,438.63 v -2.52 l -29.86,1 c 0,0 -1.38,0.61 -1.22,1.58 z"
           style="fill:#455a64"
           id="path213" />
        <path
           d="m 181.7,429.59 c 0,0.15 0.76,0.22 1.51,0.71 0.75,0.49 1.14,1.13 1.27,1.07 0.13,-0.06 -0.08,-0.93 -1,-1.51 -0.92,-0.58 -1.81,-0.41 -1.78,-0.27 z"
           style="fill:#455a64"
           id="path214" />
        <path
           d="m 178.44,430.92 c 0,0.15 0.62,0.41 1.13,1.05 0.51,0.64 0.66,1.33 0.81,1.32 0.15,-0.01 0.25,-0.86 -0.4,-1.65 -0.65,-0.79 -1.54,-0.86 -1.54,-0.72 z"
           style="fill:#455a64"
           id="path215" />
        <path
           d="m 176.57,434.81 c 0.14,0 0.35,-0.72 0,-1.55 -0.35,-0.83 -1.09,-1.17 -1.16,-1 -0.07,0.17 0.37,0.57 0.68,1.26 0.31,0.69 0.33,1.28 0.48,1.29 z"
           style="fill:#455a64"
           id="path216" />
        <path
           d="m 182,425.93 c 0.06,0.14 0.76,-0.07 1.62,0 0.86,0.07 1.52,0.33 1.6,0.2 0.08,-0.13 -0.56,-0.67 -1.57,-0.73 -1.01,-0.06 -1.73,0.41 -1.65,0.53 z"
           style="fill:#455a64"
           id="path217" />
        <path
           d="m 182.74,422.25 a 3,3 0 0 0 1.56,0 6.86,6.86 0 0 0 1.63,-0.49 8.54,8.54 0 0 0 0.89,-0.47 1.69,1.69 0 0 0 0.47,-0.37 0.65,0.65 0 0 0 0.08,-0.8 0.82,0.82 0 0 0 -0.67,-0.35 1.73,1.73 0 0 0 -0.58,0.08 5.22,5.22 0 0 0 -2.4,1.26 c -0.73,0.66 -1,1.23 -0.92,1.26 0.08,0.03 0.42,-0.43 1.15,-1 a 6,6 0 0 1 1.39,-0.78 5.92,5.92 0 0 1 0.9,-0.27 c 0.33,-0.09 0.6,-0.09 0.69,0.06 0.09,0.15 0,0.08 0,0.17 a 1.44,1.44 0 0 1 -0.34,0.27 8.72,8.72 0 0 1 -0.83,0.47 10,10 0 0 1 -1.5,0.57 11.32,11.32 0 0 0 -1.52,0.39 z"
           style="fill:#455a64"
           id="path218" />
        <path
           d="m 182.94,422.47 a 2.51,2.51 0 0 0 0.42,-1.5 4.85,4.85 0 0 0 -0.21,-1.7 4.53,4.53 0 0 0 -0.39,-0.95 1.28,1.28 0 0 0 -1,-0.79 0.75,0.75 0 0 0 -0.65,0.43 2.35,2.35 0 0 0 -0.16,0.57 3.53,3.53 0 0 0 0.65,2.66 c 0.6,0.8 1.24,1 1.25,0.94 0.01,-0.06 -0.48,-0.37 -0.94,-1.15 a 3.4,3.4 0 0 1 -0.48,-1.46 3,3 0 0 1 0,-0.9 c 0.05,-0.33 0.17,-0.6 0.3,-0.56 0.13,0.04 0.41,0.25 0.54,0.51 a 5.19,5.19 0 0 1 0.38,0.84 5.71,5.71 0 0 1 0.35,1.59 c 0,0.88 -0.14,1.45 -0.06,1.47 z"
           style="fill:#455a64"
           id="path219" />
        <path
           d="m 197.2,413.78 -0.23,25 -31.05,-0.13 c 0.2,-3 16.28,-8.85 16.28,-8.85 l -0.5,-16 z"
           style="fill:#1f81da"
           id="path220" />
        <path
           d="m 191.81,428.44 a 1.28,1.28 0 0 1 0.87,1.46 1.22,1.22 0 0 1 -1.43,0.87 1.34,1.34 0 0 1 -0.91,-1.54 1.26,1.26 0 0 1 1.58,-0.75"
           style="fill:#263238"
           id="path221" />
        <path
           d="m 197,438.63 v -2.52 l -29.86,1 c 0,0 -1.38,0.61 -1.22,1.58 z"
           style="fill:#263238"
           id="path222" />
        <path
           d="m 181.7,429.59 c 0,0.15 0.76,0.22 1.51,0.71 0.75,0.49 1.14,1.13 1.27,1.07 0.13,-0.06 -0.08,-0.93 -1,-1.51 -0.92,-0.58 -1.81,-0.41 -1.78,-0.27 z"
           style="fill:#263238"
           id="path223" />
        <path
           d="m 178.44,430.92 c 0,0.15 0.62,0.41 1.13,1.05 0.51,0.64 0.66,1.33 0.81,1.32 0.15,-0.01 0.25,-0.86 -0.4,-1.65 -0.65,-0.79 -1.54,-0.86 -1.54,-0.72 z"
           style="fill:#263238"
           id="path224" />
        <path
           d="m 176.57,434.81 c 0.14,0 0.35,-0.72 0,-1.55 -0.35,-0.83 -1.09,-1.17 -1.16,-1 -0.07,0.17 0.37,0.57 0.68,1.26 0.31,0.69 0.33,1.28 0.48,1.29 z"
           style="fill:#263238"
           id="path225" />
        <path
           d="m 182,425.93 c 0.06,0.14 0.76,-0.07 1.62,0 0.86,0.07 1.52,0.33 1.6,0.2 0.08,-0.13 -0.56,-0.67 -1.57,-0.73 -1.01,-0.06 -1.73,0.41 -1.65,0.53 z"
           style="fill:#263238"
           id="path226" />
        <path
           d="m 182.74,422.25 a 3,3 0 0 0 1.56,0 6.86,6.86 0 0 0 1.63,-0.49 8.54,8.54 0 0 0 0.89,-0.47 1.69,1.69 0 0 0 0.47,-0.37 0.65,0.65 0 0 0 0.08,-0.8 0.82,0.82 0 0 0 -0.67,-0.35 1.73,1.73 0 0 0 -0.58,0.08 5.22,5.22 0 0 0 -2.4,1.26 c -0.73,0.66 -1,1.23 -0.92,1.26 0.08,0.03 0.42,-0.43 1.15,-1 a 6,6 0 0 1 1.39,-0.78 5.92,5.92 0 0 1 0.9,-0.27 c 0.33,-0.09 0.6,-0.09 0.69,0.06 0.09,0.15 0,0.08 0,0.17 a 1.44,1.44 0 0 1 -0.34,0.27 8.72,8.72 0 0 1 -0.83,0.47 10,10 0 0 1 -1.5,0.57 11.32,11.32 0 0 0 -1.52,0.39 z"
           style="fill:#455a64"
           id="path227" />
        <path
           d="m 182.94,422.47 a 2.51,2.51 0 0 0 0.42,-1.5 4.85,4.85 0 0 0 -0.21,-1.7 4.53,4.53 0 0 0 -0.39,-0.95 1.28,1.28 0 0 0 -1,-0.79 0.75,0.75 0 0 0 -0.65,0.43 2.35,2.35 0 0 0 -0.16,0.57 3.53,3.53 0 0 0 0.65,2.66 c 0.6,0.8 1.24,1 1.25,0.94 0.01,-0.06 -0.48,-0.37 -0.94,-1.15 a 3.4,3.4 0 0 1 -0.48,-1.46 3,3 0 0 1 0,-0.9 c 0.05,-0.33 0.17,-0.6 0.3,-0.56 0.13,0.04 0.41,0.25 0.54,0.51 a 5.19,5.19 0 0 1 0.38,0.84 5.71,5.71 0 0 1 0.35,1.59 c 0,0.88 -0.14,1.45 -0.06,1.47 z"
           style="fill:#455a64"
           id="path228" />
        <path
           d="m 209.41,286.39 c 0,0 -1.66,-8.26 -3.79,-12.72 -2.13,-4.46 -8.07,-15.34 -8.07,-15.34 l -26.92,1.67 6.57,69.25 2.26,94.35 18.89,0.65 1,-4.39 c 4.33,-8.11 4,-53.63 4,-53.63 0,0 6.12,-46.83 7,-53.67 0.88,-6.84 -0.94,-26.17 -0.94,-26.17 z"
           style="fill:#263238"
           id="path229" />
        <path
           d="m 154.82,280.4 c 0,0 -8.61,58.6 -9.53,68.6 -0.92,10 12.23,75.59 12.23,75.59 l 17.85,-0.43 -2.75,-73.36 7.87,-43.29 -9.86,-47.51 -13.75,-0.2 z"
           style="fill:#263238"
           id="path230" />
        <path
           d="m 172.36,261.47 c 0.14,0 1.34,15.73 2.68,35.15 1.34,19.42 2.3,35.18 2.15,35.19 -0.15,0.01 -1.34,-15.73 -2.67,-35.15 -1.33,-19.42 -2.31,-35.18 -2.16,-35.19 z"
           style="fill:#455a64"
           id="path231" />
        <path
           d="m 175.7,263 a 2.33,2.33 0 0 0 -0.54,1.08 1.48,1.48 0 0 0 0.33,1.15 1.34,1.34 0 0 0 2.21,-0.79 1.49,1.49 0 0 0 -0.46,-1.1 c -0.55,-0.52 -1.11,-0.41 -1.11,-0.5 0,-0.09 0.12,-0.1 0.36,-0.12 a 1.58,1.58 0 0 1 1,0.34 1.78,1.78 0 0 1 0.71,1.4 1.78,1.78 0 0 1 -3.05,1.08 1.77,1.77 0 0 1 -0.33,-1.53 1.54,1.54 0 0 1 0.55,-0.88 C 175.55,263 175.69,263 175.7,263 Z"
           style="fill:#455a64"
           id="path232" />
        <rect
           x="161.7"
           y="198.12"
           width="38.52"
           height="61.689999"
           style="fill:#e0e0e0"
           id="rect232" />
        <path
           d="m 175.14,191.91 -3.66,2.74 c 0,0 -15.7,4.39 -17.52,5.4 -1.82,1.01 -2.48,3.71 -3,5.74 -0.52,2.03 -2.48,34.57 -2.48,34.57 0,0 -1.66,1.52 -1.49,2.36 a 34.61,34.61 0 0 1 0,4.27 l 11.41,-5 0.83,11.71 -7.6,15.45 2.31,1.68 c 0,0 -2.81,14.84 -2,20.41 0.81,5.57 2.48,6.07 2.48,6.07 0,0 4.7,-10 6.36,-14.84 1.18,-3.42 5.09,-17.3 7,-24.31 a 51.29,51.29 0 0 0 1.6,-8.26 l 5,-45 z"
           style="fill:#1f81da"
           id="path233" />
        <path
           d="m 157.53,236.32 c -0.14,0 -0.57,-5.29 -1,-11.82 -0.43,-6.53 -0.59,-11.85 -0.44,-11.85 0.15,0 0.57,5.28 1,11.82 0.43,6.54 0.58,11.84 0.44,11.85 z"
           style="fill:#263238"
           id="path234" />
        <g
           style="opacity:0.3"
           id="g235">
          <path
             d="m 156.31,215.71 a 29.9,29.9 0 0 0 1.06,20.11 c 0.01,-6.73 -0.54,-13.39 -1.06,-20.11 z"
             id="path235" />
        </g>
        <path
           d="m 165.87,265.31 a 3.86,3.86 0 0 1 -0.07,-0.74 c 0,-0.53 -0.06,-1.24 -0.11,-2.12 -0.07,-1.91 -0.17,-4.57 -0.29,-7.82 -0.12,-3.25 -0.23,-7.25 -0.37,-11.6 -0.06,-2.19 -0.13,-4.48 -0.2,-6.85 a 48.3,48.3 0 0 1 0.11,-7.39 10.44,10.44 0 0 1 1.16,-3.63 23.44,23.44 0 0 0 1.75,-3.12 2.75,2.75 0 0 0 0.16,-1.59 2.61,2.61 0 0 0 -0.85,-1.32 7.7,7.7 0 0 1 -1.2,-1.27 3.35,3.35 0 0 1 -0.5,-1.69 10.28,10.28 0 0 1 0.6,-3.2 c 0.29,-1 0.57,-2 0.85,-2.89 0.54,-1.86 1.06,-3.59 1.53,-5.18 0.93,-3.13 1.7,-5.67 2.24,-7.5 0.27,-0.84 0.48,-1.51 0.64,-2 a 3.12,3.12 0 0 1 0.26,-0.69 5.49,5.49 0 0 1 -0.16,0.72 c -0.14,0.52 -0.32,1.21 -0.54,2.06 l -2.09,7.51 c -0.45,1.6 -0.94,3.34 -1.47,5.2 -0.26,0.94 -0.54,1.9 -0.82,2.9 a 10,10 0 0 0 -0.56,3.05 2.79,2.79 0 0 0 0.43,1.44 7,7 0 0 0 1.14,1.18 3.18,3.18 0 0 1 1,1.56 3.33,3.33 0 0 1 -0.17,1.88 25.52,25.52 0 0 1 -1.77,3.21 9.86,9.86 0 0 0 -1.11,3.44 49.72,49.72 0 0 0 -0.11,7.31 c 0.06,2.37 0.12,4.66 0.17,6.85 0.1,4.35 0.18,8.28 0.26,11.6 0.08,3.32 0.09,5.92 0.12,7.82 0,0.89 0,1.59 0,2.13 a 3.48,3.48 0 0 1 -0.03,0.74 z"
           style="fill:#263238"
           id="path236" />
        <path
           d="m 192.29,191.18 c 0,0 0.31,5.7 -0.65,8.84 -0.96,3.14 -8.86,36.98 -8.64,42.23 0.22,5.25 7.59,39.09 9.09,44.59 1.5,5.5 5.91,13.16 12.64,14.73 a 8.87,8.87 0 0 0 9.82,-4.14 l -4,-24.34 2.69,-1.37 -4.81,-7.86 -0.55,-7 -2,-25 6.55,-30.86 -14.13,-5.39 z"
           style="fill:#1f81da"
           id="path237" />
        <path
           d="m 188.36,262.28 a 3.57,3.57 0 0 1 0.1,-0.69 c 0.09,-0.49 0.22,-1.14 0.37,-1.95 0.36,-1.75 0.85,-4.18 1.46,-7.16 1.3,-6.09 3.06,-14.4 5,-23.58 a 16.16,16.16 0 0 0 0.33,-6.71 c -0.2,-1 -0.76,-2.1 -0.52,-3.3 a 2.7,2.7 0 0 1 0.95,-1.42 7.74,7.74 0 0 0 1.09,-1 4.86,4.86 0 0 0 0.85,-2.67 c 0.06,-0.94 0,-1.88 0,-2.79 -0.06,-1.8 -0.12,-3.49 -0.18,-5 -0.09,-3 -0.17,-5.52 -0.22,-7.3 v -2 a 3.14,3.14 0 0 1 0,-0.7 5.58,5.58 0 0 1 0.08,0.69 c 0,0.51 0.08,1.17 0.13,2 0.1,1.78 0.23,4.26 0.39,7.29 0.08,1.55 0.16,3.24 0.25,5.05 0,0.9 0.11,1.84 0.05,2.83 a 5.2,5.2 0 0 1 -0.92,2.93 c -0.67,0.88 -1.74,1.32 -1.93,2.27 -0.19,0.95 0.29,2 0.53,3.08 a 16.56,16.56 0 0 1 -0.32,6.92 c -2,9.17 -3.84,17.48 -5.17,23.56 -0.67,3 -1.23,5.38 -1.62,7.12 -0.2,0.8 -0.35,1.44 -0.47,1.94 a 2.71,2.71 0 0 1 -0.23,0.59 z"
           style="fill:#263238"
           id="path238" />
        <path
           d="m 213.14,271.6 a 8.33,8.33 0 0 1 -1.75,1.19 c -1.12,0.67 -2.7,1.53 -4.49,2.4 -1.79,0.87 -3.44,1.59 -4.65,2.06 a 7.49,7.49 0 0 1 -2,0.65 c 0,-0.14 2.89,-1.43 6.44,-3.17 3.55,-1.74 6.37,-3.26 6.45,-3.13 z"
           style="fill:#263238"
           id="path239" />
        <path
           d="m 208.45,263.83 a 20.83,20.83 0 0 1 -8.08,3.58 31.32,31.32 0 0 1 4,-1.84 31.5,31.5 0 0 1 4.08,-1.74 z"
           style="fill:#263238"
           id="path240" />
        <g
           style="opacity:0.3"
           id="g241">
          <path
             d="m 196.28,229.32 a 11.42,11.42 0 0 0 2.12,-7.24 8.25,8.25 0 0 1 0.95,-5.46 14.6,14.6 0 0 0 0.35,-7.37 45.19,45.19 0 0 0 -1.89,-7.34 c 0,0 0.28,3.87 0.45,7.6 0.14,3.12 0.34,6.06 -1.08,7.29 -3.13,2.68 -1.84,3.82 -1.52,4.69 0.32,0.87 0.86,1.54 0.37,4.55 -0.49,3.01 -5.95,28.3 -5.95,28.3 z"
             id="path241" />
        </g>
        <g
           style="opacity:0.3"
           id="g242">
          <path
             d="m 208.4,257.76 a 24,24 0 0 0 -7,-14.47 10.53,10.53 0 0 0 -3.42,-2.48 6.93,6.93 0 0 0 -5,0.31 l -0.82,4.66 c 0.5,-0.54 2.07,-1.16 2.61,-0.67 a 5.13,5.13 0 0 1 1.1,1.88 3.2,3.2 0 0 0 1.32,1.69 c 0.9,0.45 2,0.07 3,0.38 a 3.11,3.11 0 0 1 1.73,1.74 c 0.35,0.76 0.52,1.59 0.8,2.38 a 9.48,9.48 0 0 0 4.59,5.25 c 0.3,0.15 0.7,0.28 0.94,0.05 a 0.86,0.86 0 0 0 0.15,-0.72 z"
             id="path242" />
        </g>
        <g
           style="opacity:0.3"
           id="g243">
          <path
             d="m 210.42,273.35 c 0.38,1.52 -0.4,2.72 -1.48,3.84 a 6.36,6.36 0 0 1 -4.21,1.82 9.86,9.86 0 0 1 -4.56,-0.94 z"
             id="path243" />
        </g>
        <g
           style="opacity:0.3"
           id="g244">
          <path
             d="m 168.29,220.57 c -0.09,-1.38 -1.59,-1.39 -2.27,-2.59 -1,-1.73 -0.4,-3.18 0.29,-5 a 55.54,55.54 0 0 0 1.91,-6.29 c -1,2.07 -2.61,3.79 -3.81,5.76 -1.2,1.97 -2,4.4 -1.22,6.56 a 7.71,7.71 0 0 1 0.92,2.79 c -0.05,1.17 -1,2.07 -1.66,3 a 10.22,10.22 0 0 0 -1.69,5.71 30.44,30.44 0 0 0 0.65,6 c 1.16,6.68 2.83,12.32 4,19 l -0.3,-25 a 9.6,9.6 0 0 1 0.79,-4.85 c 0.77,-1.41 2.49,-3.51 2.39,-5.09 z"
             id="path244" />
        </g>
        <path
           d="m 214.55,261.89 c 4,-1.05 6.37,-2.8 6.51,-4.18 0.14,-1.38 1.33,-6.17 0.89,-7.81 -0.44,-1.64 -3.65,-24.9 -3.65,-24.9 0,0 1.74,-3.45 1.15,-6.29 0,0 1.61,-1.35 -0.3,-4.5 a 45.65,45.65 0 0 1 -3.37,-7.35 c 0,0 -1.52,-5.48 -3.35,-5.87 l -6.54,30.84 5.63,25.87 z"
           style="fill:#1f81da"
           id="path245" />
        <path
           d="m 211,202.53 c 0.08,0 -0.71,1.59 -1.72,4.21 a 52.1,52.1 0 0 0 -2.84,10.54 53.46,53.46 0 0 0 -0.54,10.91 c 0.16,2.8 0.44,4.51 0.35,4.53 a 6.2,6.2 0 0 1 -0.28,-1.19 33.12,33.12 0 0 1 -0.43,-3.32 45.78,45.78 0 0 1 3.4,-21.61 31.37,31.37 0 0 1 1.43,-3 5.24,5.24 0 0 1 0.63,-1.07 z"
           style="fill:#263238"
           id="path246" />
        <path
           d="m 216.75,226 c 0,0.15 -1.58,0.37 -3.38,1.14 -1.8,0.77 -3.08,1.72 -3.18,1.6 a 8.49,8.49 0 0 1 6.56,-2.74 z"
           style="fill:#263238"
           id="path247" />
        <path
           d="m 221.18,248.38 a 20.37,20.37 0 0 0 -4.52,-3.38 19.7,19.7 0 0 0 -5.44,-1.48 4,4 0 0 1 1.7,-0.09 11.17,11.17 0 0 1 4,1.11 11.06,11.06 0 0 1 3.28,2.46 4.06,4.06 0 0 1 0.98,1.38 z"
           style="fill:#263238"
           id="path248" />
        <polygon
           points="181.44,243.11 194.16,243.11 196.88,229.04 178,229.04 "
           style="fill:#455a64"
           id="polygon248" />
        <path
           d="m 196.68,229.06 a 10.11,10.11 0 0 1 -2.57,1.13 21.94,21.94 0 0 1 -13.38,0.13 9.77,9.77 0 0 1 -2.58,-1.08 c 0,-0.19 4,1.61 9.28,1.53 5.28,-0.08 9.2,-1.9 9.25,-1.71 z"
           style="fill:#263238"
           id="path249" />
        <path
           d="m 196.19,230.11 a 2.6,2.6 0 0 1 2.68,0.59 4.43,4.43 0 0 1 1.27,2.59 6.73,6.73 0 0 1 -1.43,5.26 6.42,6.42 0 0 1 -4.85,2.31 l 0.69,-2.63 a 6.83,6.83 0 0 0 3,-1.77 3.49,3.49 0 0 0 0.85,-3.3 2.24,2.24 0 0 0 -2.78,-1.48 l 0.24,-2.22"
           style="fill:#455a64"
           id="path250" />
        <path
           d="m 196.88,229 a 1.28,1.28 0 0 0 0.91,1.68 4.58,4.58 0 0 0 2.33,0 l 0.64,3 3.5,-0.26 a 49.4,49.4 0 0 0 -2.66,-5.3 2.12,2.12 0 0 0 -1.37,-0.38 z"
           style="fill:#b78876"
           id="path251" />
        <path
           d="m 205.89,235.54 c -0.13,-0.11 -0.95,-2 -1.63,-2.06 -0.68,-0.06 -6.41,0 -6.41,0 0,0 -1.29,0.62 -1.46,1.37 -0.17,0.75 -0.17,2.18 0.43,2.13 0.6,-0.05 2.82,0 2.82,0 l -0.13,0.91 c 0,0 -2.43,0 -2.95,0.39 -0.52,0.39 -1.75,1.79 -1.24,2.36 a 5.94,5.94 0 0 0 1.93,1 c 0,0 -0.43,-0.18 -0.43,0.43 a 3.62,3.62 0 0 0 0.38,1.36 c 0,0 0.51,2.09 1.56,2.14 1.05,0.05 3.45,1.57 3.45,1.57 a 21.93,21.93 0 0 1 2.18,3.27 c 0.43,1.05 1.28,7.42 6,10.13 l 1.2,0.66 a 5.33,5.33 0 0 0 7.73,-3.4 v -0.06 c 0.39,-1.83 1.84,-5 0.82,-6.5 -1.02,-1.5 -2.61,-2.36 -5.44,-3.4 -2.83,-1.04 -7.44,-7.29 -7.44,-7.29 0,0 -0.69,-4.4 -1.37,-5.01 z"
           style="fill:#b78876"
           id="path252" />
        <path
           d="m 204,237.34 a 22.8,22.8 0 0 1 -3.68,0 12,12 0 0 1 -3.66,-0.39 14.47,14.47 0 0 1 3.68,-0.13 c 2.05,0.06 3.71,0.35 3.66,0.52 z"
           style="fill:#995037"
           id="path253" />
        <path
           d="m 203.81,237.39 a 17.23,17.23 0 0 1 -3.47,0.58 13.27,13.27 0 0 1 -3.52,0.2 10.87,10.87 0 0 1 3.46,-0.72 c 1.93,-0.23 3.53,-0.23 3.53,-0.06 z"
           style="fill:#995037"
           id="path254" />
        <path
           d="m 203.12,240.81 a 7.66,7.66 0 0 1 -3.16,0.74 7.8,7.8 0 0 1 -3.25,-0.13 15.15,15.15 0 0 1 3.2,-0.39 15.12,15.12 0 0 1 3.21,-0.22 z"
           style="fill:#995037"
           id="path255" />
        <path
           d="m 203.18,244.07 a 10.11,10.11 0 0 1 -5.63,-0.12 11,11 0 0 1 2.82,-0.06 10.76,10.76 0 0 1 2.81,0.18 z"
           style="fill:#995037"
           id="path256" />
        <path
           d="m 204.72,244.87 c 0.13,-0.07 0.42,0.55 0,1.17 a 1.18,1.18 0 0 1 -0.7,0.53 c -0.22,0.05 -0.37,0 -0.38,-0.07 -0.01,-0.07 0.39,-0.31 0.65,-0.74 0.26,-0.43 0.29,-0.85 0.43,-0.89 z"
           style="fill:#995037"
           id="path257" />
        <path
           d="m 205.73,241.46 c 0.05,0 0.23,0 0.41,0.31 a 1.92,1.92 0 0 1 0.31,1.15 1.94,1.94 0 0 1 -0.4,1.13 c -0.2,0.24 -0.39,0.32 -0.43,0.27 -0.04,-0.05 0.29,-0.64 0.31,-1.42 0.02,-0.78 -0.31,-1.34 -0.2,-1.44 z"
           style="fill:#995037"
           id="path258" />
        <path
           d="m 205.9,237.9 c 0.1,-0.1 0.64,0.48 0.62,1.39 -0.02,0.91 -0.59,1.48 -0.69,1.37 -0.1,-0.11 0.16,-0.64 0.17,-1.38 0.01,-0.74 -0.23,-1.28 -0.1,-1.38 z"
           style="fill:#995037"
           id="path259" />
        <path
           d="m 204.37,233.54 a 14.39,14.39 0 0 1 -3.39,0.08 14.81,14.81 0 0 1 -3.39,-0.16 9.08,9.08 0 0 1 3.39,-0.36 9.25,9.25 0 0 1 3.39,0.44 z"
           style="fill:#995037"
           id="path260" />
        <path
           d="m 147,247 a 16.18,16.18 0 0 0 0.1,5.42 c 0.61,2 3.26,6.29 5.07,6.63 a 2.78,2.78 0 0 0 0.77,0 6.07,6.07 0 0 0 5.4,-5.63 l 0.24,-2.8 c 0,0 2.44,-0.36 2.79,-1.75 a 3.57,3.57 0 0 0 0,-2.17 c 0,0 1.61,-1.92 1.12,-3.48 0,0 2.51,-2.07 1.53,-3.2 0,0 -1.25,-0.43 -1.74,0 a 1.31,1.31 0 0 0 -1.37,-1.3 c 0,0 -0.19,-3.16 -2,-2.9 -1.81,0.26 -2.1,3.28 -2.1,3.28 a 11.91,11.91 0 0 0 -2.81,0.41 c -0.6,0.3 -2.46,4.35 -2.46,4.35 l 0.05,1.09 z"
           style="fill:#b78876"
           id="path261" />
        <path
           d="m 154.84,243.46 c 0,-0.09 0.9,-0.18 2.31,-0.55 a 11.76,11.76 0 0 0 2.37,-0.89 8,8 0 0 0 1.25,-0.78 4,4 0 0 0 1,-1.09 0.66,0.66 0 0 0 -0.33,-1 3,3 0 0 0 -1.38,-0.05 l -2.58,0.21 a 9.85,9.85 0 0 1 -2.39,0.06 11,11 0 0 1 2.35,-0.42 l 2.57,-0.32 a 3.26,3.26 0 0 1 1.63,0.05 1.23,1.23 0 0 1 0.7,0.7 1.26,1.26 0 0 1 -0.11,1 4.14,4.14 0 0 1 -1.21,1.25 7.84,7.84 0 0 1 -1.34,0.81 10.36,10.36 0 0 1 -2.5,0.82 6.8,6.8 0 0 1 -2.34,0.2 z"
           style="fill:#995037"
           id="path262" />
        <path
           d="m 155.23,242.81 c 0,0.06 -0.22,0 -0.43,-0.18 a 1.52,1.52 0 0 1 -0.46,-1 1.57,1.57 0 0 1 0.33,-1 c 0.18,-0.22 0.36,-0.28 0.4,-0.23 0.04,0.05 -0.25,0.59 -0.21,1.25 0.04,0.66 0.46,1.05 0.37,1.16 z"
           style="fill:#995037"
           id="path263" />
        <path
           d="m 162.91,243 c 0.11,0.08 -0.6,1.11 -2,1.77 a 3.61,3.61 0 0 1 -2.6,0.44 c 0,-0.15 1.13,-0.3 2.37,-0.91 1.24,-0.61 2.11,-1.45 2.23,-1.3 z"
           style="fill:#995037"
           id="path264" />
        <path
           d="m 161.65,246.4 c 0.13,0.06 -0.55,1.16 -2,1.61 a 2.8,2.8 0 0 1 -2.55,-0.17 16.6,16.6 0 0 0 2.39,-0.33 17.14,17.14 0 0 0 2.16,-1.11 z"
           style="fill:#995037"
           id="path265" />
        <path
           d="m 155,248.51 c 0,0.07 -0.22,0.09 -0.54,0 a 1.77,1.77 0 0 1 -1.14,-0.72 1.14,1.14 0 0 1 0,-1.4 c 0.28,-0.29 0.56,-0.24 0.56,-0.17 0,0.07 -0.16,0.16 -0.26,0.39 a 0.89,0.89 0 0 0 0.09,0.89 c 0.46,0.66 1.29,0.84 1.29,1.01 z"
           style="fill:#995037"
           id="path266" />
        <path
           d="m 157.15,250.56 c 0,0.06 -0.1,0.23 -0.42,0.36 a 1.37,1.37 0 0 1 -1.33,-0.23 1.15,1.15 0 0 1 -0.36,-1.31 c 0.16,-0.35 0.4,-0.42 0.43,-0.36 0.03,0.06 -0.05,0.21 -0.07,0.46 a 0.9,0.9 0 0 0 0.34,0.81 c 0.59,0.49 1.36,0.13 1.41,0.27 z"
           style="fill:#995037"
           id="path267" />
        <path
           d="m 153.87,245.63 c 0,0.06 -0.21,0.2 -0.62,0.16 a 1.67,1.67 0 0 1 -1.28,-0.87 1.72,1.72 0 0 1 0,-1.55 c 0.18,-0.37 0.41,-0.49 0.46,-0.44 0.05,0.05 -0.05,0.24 -0.12,0.56 a 1.82,1.82 0 0 0 0.15,1.18 1.65,1.65 0 0 0 0.9,0.76 c 0.27,0.11 0.5,0.12 0.51,0.2 z"
           style="fill:#995037"
           id="path268" />
      </g>
      <g
         id="freepik--character-1--inject-141">
        <polygon
           points="102.92,240.57 83.61,226.51 79.76,209.87 83.61,209.36 106.59,209.47 111.24,235.96 "
           style="fill:#ffbe9d"
           id="polygon268" />
        <path
           d="m 79.76,209.87 c 0,0 -10,2.49 -12,4.7 -2,2.21 -11.11,38.43 -9.31,42.23 1.8,3.8 13,2.41 13,2.41 l 6,5.61 38.91,-3.41 3.4,-10.63 10.43,-5.21 c 0,0 -4.58,-26.08 -10.39,-31.7 a 16.68,16.68 0 0 0 -13.27,-4.4 l -2.22,22.26 z"
           style="fill:#263238"
           id="path269" />
        <path
           d="m 122.86,251.86 c -0.1,0 0.39,-1.58 0.65,-4.16 a 26.6,26.6 0 0 0 0.07,-4.53 27,27 0 0 0 -3,-10.64 27.12,27.12 0 0 0 -2.4,-3.84 c -1.56,-2.07 -2.78,-3.14 -2.71,-3.22 a 4.21,4.21 0 0 1 0.88,0.72 9.19,9.19 0 0 1 1,0.94 15.11,15.11 0 0 1 1.17,1.33 26,26 0 0 1 2.54,3.85 25.89,25.89 0 0 1 3,10.83 24.66,24.66 0 0 1 -0.18,4.61 16.25,16.25 0 0 1 -0.31,1.74 8.71,8.71 0 0 1 -0.33,1.3 4.3,4.3 0 0 1 -0.38,1.07 z"
           style="fill:#455a64"
           id="path270" />
        <path
           d="m 130.25,245.57 c 0,0 3.8,12.14 2.47,17.25 -1.33,5.11 -4.86,9.1 -8.43,6.44 -2.49,-1.84 -8.73,-9.18 -8.73,-9.18 l 4.26,-9.3 9.9,-4.94"
           style="fill:#ffbe9d"
           id="path271" />
        <path
           d="M 88.32,399.31 68,413.86 86,439.18 c 2.31,-1.87 -2.13,-18.41 -2.13,-18.41 L 97.26,412 Z"
           style="fill:#263238"
           id="path272" />
        <g
           style="opacity:0.6"
           id="g273">
          <path
             d="m 79.43,412.16 a 1.28,1.28 0 0 0 -1.69,0.12 1.22,1.22 0 0 0 0.11,1.68 1.33,1.33 0 0 0 1.78,-0.14 1.26,1.26 0 0 0 -0.3,-1.73"
             style="fill:#455a64"
             id="path273" />
        </g>
        <path
           d="m 68.12,413.8 2,-1.48 16.35,25 c 0,0 0.3,1.48 -0.59,1.91 z"
           style="fill:#455a64"
           id="path274" />
        <path
           d="m 84.3,421.09 c -0.12,0.08 -0.62,-0.5 -1.45,-0.82 -0.83,-0.32 -1.57,-0.29 -1.61,-0.43 -0.04,-0.14 0.82,-0.48 1.81,-0.06 0.99,0.42 1.39,1.22 1.25,1.31 z"
           style="fill:#455a64"
           id="path275" />
        <path
           d="m 85.09,424.52 c -0.1,0.11 -0.69,-0.27 -1.51,-0.32 -0.82,-0.05 -1.46,0.22 -1.54,0.1 -0.08,-0.12 0.56,-0.71 1.58,-0.63 1.02,0.08 1.59,0.77 1.47,0.85 z"
           style="fill:#455a64"
           id="path276" />
        <path
           d="m 83,428.29 c -0.1,-0.1 0.39,-0.71 1.29,-0.87 0.9,-0.16 1.59,0.22 1.52,0.35 -0.07,0.13 -0.68,0 -1.42,0.17 -0.74,0.17 -1.31,0.46 -1.39,0.35 z"
           style="fill:#455a64"
           id="path277" />
        <path
           d="m 87.13,418.75 c -0.15,0 -0.38,-0.66 -0.92,-1.33 -0.54,-0.67 -1.15,-1.05 -1.09,-1.19 0.06,-0.14 0.87,0.07 1.5,0.86 0.63,0.79 0.65,1.65 0.51,1.66 z"
           style="fill:#455a64"
           id="path278" />
        <path
           d="m 89.71,416 c 0,0 -0.48,-0.4 -0.9,-1.27 a 7.16,7.16 0 0 1 -0.53,-1.62 7.57,7.57 0 0 1 -0.13,-1 1.74,1.74 0 0 1 0,-0.59 0.66,0.66 0 0 1 0.61,-0.53 0.82,0.82 0 0 1 0.67,0.34 1.9,1.9 0 0 1 0.27,0.53 5.43,5.43 0 0 1 0.29,1 5.6,5.6 0 0 1 0.06,1.71 2.54,2.54 0 0 1 -0.5,1.48 c -0.08,0 0.11,-0.59 0.13,-1.51 a 5.65,5.65 0 0 0 -0.46,-2.47 c -0.12,-0.32 -0.28,-0.55 -0.44,-0.53 -0.16,0.02 -0.09,0 -0.13,0.13 a 1.5,1.5 0 0 0 0,0.43 7.12,7.12 0 0 0 0.09,1 8.22,8.22 0 0 0 0.4,1.56 13.12,13.12 0 0 1 0.57,1.34 z"
           style="fill:#455a64"
           id="path279" />
        <path
           d="m 89.41,416 c 0,0 0.22,-0.59 1,-1.21 a 5,5 0 0 1 2.51,-1 1.29,1.29 0 0 1 1.22,0.35 0.73,0.73 0 0 1 0,0.78 2,2 0 0 1 -0.37,0.46 3.48,3.48 0 0 1 -0.86,0.61 3.62,3.62 0 0 1 -1.69,0.39 2,2 0 0 1 -1.49,-0.48 c 0,-0.09 0.58,0.17 1.48,0.1 a 3.56,3.56 0 0 0 1.47,-0.44 3.08,3.08 0 0 0 0.72,-0.54 c 0.24,-0.23 0.39,-0.49 0.29,-0.57 a 0.88,0.88 0 0 0 -0.73,-0.15 5.06,5.06 0 0 0 -0.91,0.17 5.51,5.51 0 0 0 -1.44,0.66 c -0.76,0.44 -1.13,0.87 -1.2,0.87 z"
           style="fill:#455a64"
           id="path280" />
        <path
           d="m 79.05,414.06 0.23,24.94 31.05,-0.13 c -0.19,-3 -16.28,-8.85 -16.28,-8.85 l 0.51,-16 z"
           style="fill:#263238"
           id="path281" />
        <g
           style="opacity:0.6"
           id="g282">
          <path
             d="m 84.44,428.72 a 1.27,1.27 0 0 0 -0.87,1.45 1.22,1.22 0 0 0 1.43,0.88 1.33,1.33 0 0 0 0.92,-1.54 1.27,1.27 0 0 0 -1.59,-0.75"
             style="fill:#455a64"
             id="path282" />
        </g>
        <path
           d="m 79.28,438.91 v -2.52 l 29.85,1 c 0,0 1.39,0.61 1.23,1.58 z"
           style="fill:#455a64"
           id="path283" />
        <path
           d="m 94.55,429.87 c 0,0.15 -0.76,0.22 -1.5,0.71 -0.74,0.49 -1.14,1.13 -1.28,1.07 -0.14,-0.06 0.08,-0.93 1,-1.51 0.92,-0.58 1.81,-0.41 1.78,-0.27 z"
           style="fill:#455a64"
           id="path284" />
        <path
           d="m 97.81,431.2 c 0,0.15 -0.62,0.41 -1.13,1.05 -0.51,0.64 -0.66,1.32 -0.81,1.32 -0.15,0 -0.25,-0.87 0.4,-1.65 0.65,-0.78 1.54,-0.86 1.54,-0.72 z"
           style="fill:#455a64"
           id="path285" />
        <path
           d="m 99.68,435.09 c -0.14,0 -0.35,-0.72 0,-1.56 0.35,-0.84 1.1,-1.16 1.16,-1 0.06,0.16 -0.37,0.57 -0.68,1.25 -0.31,0.68 -0.33,1.29 -0.48,1.31 z"
           style="fill:#455a64"
           id="path286" />
        <path
           d="m 94.26,426.21 c -0.06,0.14 -0.76,-0.07 -1.61,0 -0.85,0.07 -1.53,0.34 -1.61,0.21 -0.08,-0.13 0.56,-0.67 1.57,-0.73 1.01,-0.06 1.73,0.4 1.65,0.52 z"
           style="fill:#455a64"
           id="path287" />
        <path
           d="m 93.51,422.53 a 3,3 0 0 1 -1.56,0 7.51,7.51 0 0 1 -1.63,-0.49 8.54,8.54 0 0 1 -0.89,-0.47 2.36,2.36 0 0 1 -0.47,-0.37 0.64,0.64 0 0 1 -0.07,-0.8 0.79,0.79 0 0 1 0.66,-0.35 2,2 0 0 1 0.58,0.07 6.49,6.49 0 0 1 1,0.33 5.61,5.61 0 0 1 1.44,0.94 c 0.72,0.66 1,1.23 0.92,1.26 -0.08,0.03 -0.42,-0.43 -1.16,-1 a 5.83,5.83 0 0 0 -1.39,-0.78 6.14,6.14 0 0 0 -0.89,-0.27 c -0.33,-0.09 -0.61,-0.09 -0.7,0.06 -0.09,0.15 0,0.08 0,0.17 a 1.33,1.33 0 0 0 0.35,0.27 6.76,6.76 0 0 0 0.82,0.46 8.18,8.18 0 0 0 1.5,0.57 11.62,11.62 0 0 1 1.49,0.4 z"
           style="fill:#455a64"
           id="path288" />
        <path
           d="m 93.31,422.75 a 2.56,2.56 0 0 1 -0.41,-1.5 5.15,5.15 0 0 1 0.2,-1.71 4.68,4.68 0 0 1 0.39,-0.94 1.28,1.28 0 0 1 1,-0.79 0.74,0.74 0 0 1 0.65,0.43 1.7,1.7 0 0 1 0.16,0.57 3.37,3.37 0 0 1 0,1.05 3.59,3.59 0 0 1 -0.66,1.61 c -0.6,0.8 -1.23,1 -1.25,0.94 -0.02,-0.06 0.48,-0.38 0.94,-1.15 a 3.6,3.6 0 0 0 0.49,-1.46 3,3 0 0 0 0,-0.9 c 0,-0.33 -0.17,-0.6 -0.29,-0.56 -0.12,0.04 -0.42,0.24 -0.55,0.51 a 6.23,6.23 0 0 0 -0.38,0.84 5.71,5.71 0 0 0 -0.29,1.56 c -0.08,0.91 0.08,1.47 0,1.5 z"
           style="fill:#455a64"
           id="path289" />
        <path
           d="m 79.05,414.06 0.23,24.94 31.05,-0.13 c -0.19,-3 -16.28,-8.85 -16.28,-8.85 l 0.51,-16 z"
           style="fill:#263238"
           id="path290" />
        <g
           style="opacity:0.6"
           id="g291">
          <path
             d="m 84.44,428.72 a 1.27,1.27 0 0 0 -0.87,1.45 1.22,1.22 0 0 0 1.43,0.88 1.33,1.33 0 0 0 0.92,-1.54 1.27,1.27 0 0 0 -1.59,-0.75"
             style="fill:#455a64"
             id="path291" />
        </g>
        <path
           d="m 79.28,438.91 v -2.52 l 29.85,1 c 0,0 1.39,0.61 1.23,1.58 z"
           style="fill:#455a64"
           id="path292" />
        <path
           d="m 94.55,429.87 c 0,0.15 -0.76,0.22 -1.5,0.71 -0.74,0.49 -1.14,1.13 -1.28,1.07 -0.14,-0.06 0.08,-0.93 1,-1.51 0.92,-0.58 1.81,-0.41 1.78,-0.27 z"
           style="fill:#455a64"
           id="path293" />
        <path
           d="m 97.81,431.2 c 0,0.15 -0.62,0.41 -1.13,1.05 -0.51,0.64 -0.66,1.32 -0.81,1.32 -0.15,0 -0.25,-0.87 0.4,-1.65 0.65,-0.78 1.54,-0.86 1.54,-0.72 z"
           style="fill:#455a64"
           id="path294" />
        <path
           d="m 99.68,435.09 c -0.14,0 -0.35,-0.72 0,-1.56 0.35,-0.84 1.1,-1.16 1.16,-1 0.06,0.16 -0.37,0.57 -0.68,1.25 -0.31,0.68 -0.33,1.29 -0.48,1.31 z"
           style="fill:#455a64"
           id="path295" />
        <path
           d="m 94.26,426.21 c -0.06,0.14 -0.76,-0.07 -1.61,0 -0.85,0.07 -1.53,0.34 -1.61,0.21 -0.08,-0.13 0.56,-0.67 1.57,-0.73 1.01,-0.06 1.73,0.4 1.65,0.52 z"
           style="fill:#455a64"
           id="path296" />
        <path
           d="m 93.51,422.53 a 3,3 0 0 1 -1.56,0 7.51,7.51 0 0 1 -1.63,-0.49 8.54,8.54 0 0 1 -0.89,-0.47 2.36,2.36 0 0 1 -0.47,-0.37 0.64,0.64 0 0 1 -0.07,-0.8 0.79,0.79 0 0 1 0.66,-0.35 2,2 0 0 1 0.58,0.07 6.49,6.49 0 0 1 1,0.33 5.61,5.61 0 0 1 1.44,0.94 c 0.72,0.66 1,1.23 0.92,1.26 -0.08,0.03 -0.42,-0.43 -1.16,-1 a 5.83,5.83 0 0 0 -1.39,-0.78 6.14,6.14 0 0 0 -0.89,-0.27 c -0.33,-0.09 -0.61,-0.09 -0.7,0.06 -0.09,0.15 0,0.08 0,0.17 a 1.33,1.33 0 0 0 0.35,0.27 6.76,6.76 0 0 0 0.82,0.46 8.18,8.18 0 0 0 1.5,0.57 11.62,11.62 0 0 1 1.49,0.4 z"
           style="fill:#455a64"
           id="path297" />
        <path
           d="m 93.31,422.75 a 2.56,2.56 0 0 1 -0.41,-1.5 5.15,5.15 0 0 1 0.2,-1.71 4.68,4.68 0 0 1 0.39,-0.94 1.28,1.28 0 0 1 1,-0.79 0.74,0.74 0 0 1 0.65,0.43 1.7,1.7 0 0 1 0.16,0.57 3.37,3.37 0 0 1 0,1.05 3.59,3.59 0 0 1 -0.66,1.61 c -0.6,0.8 -1.23,1 -1.25,0.94 -0.02,-0.06 0.48,-0.38 0.94,-1.15 a 3.6,3.6 0 0 0 0.49,-1.46 3,3 0 0 0 0,-0.9 c 0,-0.33 -0.17,-0.6 -0.29,-0.56 -0.12,0.04 -0.42,0.24 -0.55,0.51 a 6.23,6.23 0 0 0 -0.38,0.84 5.71,5.71 0 0 0 -0.29,1.56 c -0.08,0.91 0.08,1.47 0,1.5 z"
           style="fill:#455a64"
           id="path298" />
        <path
           d="m 81,268.39 a 44.49,44.49 0 0 0 -6.49,9.12 C 72.33,282 71,292.63 71,292.63 c 0,0 -6,13.38 -5.1,20.23 0.9,6.85 7,53.67 7,53.67 0,0 -0.3,45.52 4,53.63 l 1,4.38 17.5,-3.1 v 0 l 1,-2.41 2.66,-89.48 10.94,-60.76 z"
           style="fill:#455a64"
           id="path299" />
        <path
           d="m 88.83,286.67 a 2.36,2.36 0 0 1 -0.12,-0.71 c 0,-0.46 -0.08,-1.13 -0.09,-2 a 57.73,57.73 0 0 1 0.39,-6.44 c 0.28,-2.44 0.54,-4.64 0.74,-6.4 a 23.06,23.06 0 0 1 0.34,-2.64 12.88,12.88 0 0 1 0,2.67 c -0.11,1.65 -0.35,3.92 -0.62,6.41 -0.27,2.49 -0.46,4.76 -0.51,6.41 -0.05,1.65 -0.06,2.7 -0.13,2.7 z"
           style="fill:#455a64"
           id="path300" />
        <path
           d="m 92.07,275.9 a 12,12 0 0 1 -0.87,-3.62 11.52,11.52 0 0 1 -0.1,-3.72 28.31,28.31 0 0 1 0.52,3.67 28.32,28.32 0 0 1 0.45,3.67 z"
           style="fill:#455a64"
           id="path301" />
        <path
           d="m 103.31,272.3 c -0.07,0 0,-0.57 -0.67,-1 a 1.28,1.28 0 0 0 -1.2,-0.12 1.24,1.24 0 0 0 0,2.32 1.28,1.28 0 0 0 1.19,-0.17 2,2 0 0 0 0.64,-1 c 0,0 0.07,0.13 0,0.37 a 1.41,1.41 0 0 1 -0.49,0.9 1.58,1.58 0 0 1 -1.51,0.3 1.63,1.63 0 0 1 -1.11,-1.51 1.62,1.62 0 0 1 1.06,-1.55 1.56,1.56 0 0 1 1.51,0.25 1.41,1.41 0 0 1 0.53,0.87 c 0.11,0.21 0.08,0.35 0.05,0.34 z"
           style="fill:#455a64"
           id="path302" />
        <path
           d="m 97.82,371 a 3.14,3.14 0 0 1 0,0.49 v 1.4 c 0,1.22 0,3 -0.08,5.15 -0.1,4.34 -0.34,10.34 -0.63,17 -0.29,6.66 -0.48,12.62 -0.57,17 0,2.13 -0.08,3.87 -0.1,5.14 0,0.57 0,1 0,1.4 a 3.83,3.83 0 0 1 0,0.49 1.91,1.91 0 0 1 0,-0.49 c 0,-0.36 0,-0.83 0,-1.4 0,-1.21 0,-3 0,-5.14 0,-4.35 0.17,-10.35 0.45,-17 0.28,-6.65 0.56,-12.56 0.75,-16.95 0.09,-2.13 0.16,-3.87 0.22,-5.14 0,-0.57 0,-1 0.07,-1.4 A 1.61,1.61 0 0 1 97.82,371 Z"
           style="fill:#455a64"
           id="path303" />
        <path
           d="m 121.43,280.68 c 0,0 8.62,58.59 9.54,68.59 0.92,10 -34.7,62.73 -34.7,62.73 l -16,-17.47 23.37,-43.46 -7.87,-43.28 10.57,-38.69 13.75,-0.21 z"
           style="fill:#455a64"
           id="path304" />
        <path
           d="m 74.26,406.14 a 9.94,9.94 0 0 0 0.12,1.27 c 0.11,0.84 0.31,2.07 0.6,3.65 0.58,3.17 1.53,7.77 2.8,13.51 v 0.12 h 0.12 l 17.51,-3.07 h 0.13 v -0.14 c 0.49,-12 1.07,-26.37 1.69,-41.76 0.65,-16.57 1.25,-31.93 1.74,-44.54 v 0 c 1.31,-10.13 2.4,-18.5 3.15,-24.36 L 103,304 l 0.21,-1.78 c 0,-0.4 0,-0.61 0,-0.61 0,0 0,0.21 -0.1,0.61 -0.1,0.4 -0.15,1 -0.26,1.77 -0.22,1.57 -0.54,3.85 -0.94,6.76 -0.79,5.85 -1.93,14.22 -3.29,24.34 v 0 c -0.51,12.6 -1.13,28 -1.8,44.53 -0.6,15.4 -1.17,29.76 -1.63,41.77 l 0.13,-0.16 -17.49,3.15 0.15,0.1 c -1.3,-5.74 -2.29,-10.33 -2.91,-13.49 -0.31,-1.58 -0.54,-2.8 -0.67,-3.63 -0.07,-0.41 -0.11,-0.73 -0.14,-0.94 -0.03,-0.21 0,-0.28 0,-0.28 z"
           style="fill:#263238"
           id="path305" />
        <path
           d="m 77.51,264.82 c 0,0 -8.06,9.46 -11.73,16.41 -8.4,15.89 -5.4,79.79 -5.4,79.79 l 74.88,-1.1 -8.19,-66.12 a 143,143 0 0 0 -5.76,-26.1 l -2.62,-8.17 z"
           style="fill:#263238"
           id="path306" />
        <path
           d="m 108.64,177.9 a 14.13,14.13 0 0 0 -14,-13 H 93.91 C 86.03,165.34 82,172.29 82.67,180.15 L 84,211.67 a 1.45,1.45 0 0 0 0.82,1.23 l 17.69,8.3 -0.55,-16.55 c 0,0 7.58,-1.16 7.69,-8.73 0.03,-3.66 -0.47,-11.2 -1.01,-18.02 z"
           style="fill:#ffbe9d"
           id="path307" />
        <path
           d="m 102,204.64 a 18.38,18.38 0 0 1 -9.91,-2.92 c 0,0 2.32,5.45 9.88,4.78 z"
           style="fill:#eb996e"
           id="path308" />
        <path
           d="m 106.53,182.8 a 1.08,1.08 0 0 1 -1,1.09 1,1 0 0 1 -1.12,-1 1.09,1.09 0 0 1 1,-1.09 1,1 0 0 1 1.12,1 z"
           style="fill:#263238"
           id="path309" />
        <path
           d="m 107.08,181.21 c -0.14,0.14 -1,-0.47 -2.12,-0.46 -1.12,0.01 -2,0.58 -2.14,0.43 -0.14,-0.15 0.07,-0.31 0.44,-0.58 a 3,3 0 0 1 1.72,-0.53 2.79,2.79 0 0 1 1.68,0.55 c 0.34,0.27 0.48,0.53 0.42,0.59 z"
           style="fill:#263238"
           id="path310" />
        <path
           d="m 95.49,183 a 1.08,1.08 0 0 1 -1,1.09 1,1 0 0 1 -1.11,-1 1.08,1.08 0 0 1 1,-1.09 1,1 0 0 1 1.11,1 z"
           style="fill:#263238"
           id="path311" />
        <path
           d="m 95.56,181.21 c -0.13,0.14 -1,-0.47 -2.11,-0.46 -1.11,0.01 -2,0.58 -2.15,0.43 -0.15,-0.15 0.08,-0.31 0.45,-0.58 a 3,3 0 0 1 1.72,-0.53 2.84,2.84 0 0 1 1.68,0.55 c 0.36,0.27 0.48,0.53 0.41,0.59 z"
           style="fill:#263238"
           id="path312" />
        <path
           d="m 99.77,190.43 a 8,8 0 0 1 1.89,-0.33 c 0.3,0 0.58,-0.09 0.63,-0.3 a 1.48,1.48 0 0 0 -0.2,-0.88 c -0.27,-0.72 -0.56,-1.47 -0.87,-2.26 a 39.9,39.9 0 0 1 -2,-5.92 38.26,38.26 0 0 1 2.43,5.75 l 0.84,2.28 a 1.72,1.72 0 0 1 0.15,1.16 0.79,0.79 0 0 1 -0.49,0.44 1.93,1.93 0 0 1 -0.5,0.06 7,7 0 0 1 -1.88,0 z"
           style="fill:#263238"
           id="path313" />
        <path
           d="m 95.87,177.23 c -0.11,0.32 -1.27,0.17 -2.64,0.33 -1.37,0.16 -2.47,0.53 -2.65,0.25 -0.18,-0.28 0.11,-0.44 0.56,-0.74 a 4.33,4.33 0 0 1 2,-0.69 4.59,4.59 0 0 1 2.07,0.25 c 0.46,0.2 0.71,0.45 0.66,0.6 z"
           style="fill:#263238"
           id="path314" />
        <path
           d="m 106.58,178.23 c -0.2,0.26 -1,0 -2,0 -1,0 -1.78,0.18 -2,-0.1 -0.09,-0.13 0,-0.4 0.4,-0.65 a 2.83,2.83 0 0 1 3.17,0.11 c 0.41,0.24 0.52,0.51 0.43,0.64 z"
           style="fill:#263238"
           id="path315" />
        <path
           d="m 83.88,185.75 c -0.13,-0.06 -5.2,-1.55 -5,3.63 0.2,5.18 5.32,4 5.32,3.8 0,-0.2 -0.32,-7.43 -0.32,-7.43 z"
           style="fill:#ffbe9d"
           id="path316" />
        <path
           d="m 82.85,191.27 c 0,0 -0.08,0.07 -0.24,0.14 a 0.87,0.87 0 0 1 -0.67,0 2.23,2.23 0 0 1 -1.09,-2 3,3 0 0 1 0.21,-1.3 1.07,1.07 0 0 1 0.66,-0.71 0.47,0.47 0 0 1 0.54,0.23 c 0.07,0.14 0,0.25 0.07,0.26 0.07,0.01 0.11,-0.09 0.06,-0.31 a 0.54,0.54 0 0 0 -0.21,-0.31 0.65,0.65 0 0 0 -0.5,-0.12 1.27,1.27 0 0 0 -0.92,0.83 3,3 0 0 0 -0.27,1.45 2.35,2.35 0 0 0 1.38,2.2 1,1 0 0 0 0.82,-0.16 c 0.16,-0.08 0.18,-0.19 0.16,-0.2 z"
           style="fill:#eb996e"
           id="path317" />
        <path
           d="m 87.15,170.36 21.6,0.47 a 9.93,9.93 0 0 0 -3.18,-3.67 17,17 0 0 0 -9.77,-3.52 c -3.53,-0.06 -10.69,4.23 -13.25,6.66 -2,1.94 -2,3.63 -2,3.63 -0.33,2.79 1.24,6 1.86,8.73 0.32,1.41 0.94,5.7 0.94,5.7 v 0 c 1.19,0 1.64,-1 1.46,-2.12 l -0.23,-4.62 a 7,7 0 0 0 2.13,-8.14 c -0.33,-0.42 -0.98,-2.34 0.44,-3.12 z"
           style="fill:#455a64"
           id="path318" />
        <path
           d="m 91.69,186.73 a 0.13,0.13 0 0 1 -0.16,-0.11 0.13,0.13 0 0 1 0.1,-0.16 0.13,0.13 0 0 1 0.16,0.11 0.13,0.13 0 0 1 -0.1,0.16 z"
           style="fill:#aa6550"
           id="path319" />
        <path
           d="m 93.91,186.23 c -0.07,0 -0.14,0 -0.16,-0.13 -0.02,-0.13 0,-0.17 0.1,-0.18 0.1,-0.01 0.14,0 0.16,0.13 0.02,0.13 -0.01,0.17 -0.1,0.18 z"
           style="fill:#aa6550"
           id="path320" />
        <path
           d="m 95.41,186.2 c -0.07,0 -0.14,-0.08 -0.15,-0.19 -0.01,-0.11 0,-0.22 0.1,-0.23 0.1,-0.01 0.14,0.08 0.15,0.2 0.01,0.12 -0.03,0.21 -0.1,0.22 z"
           style="fill:#aa6550"
           id="path321" />
        <path
           d="m 92.78,188.13 c -0.07,0 -0.13,0 -0.13,-0.08 0,-0.08 0.06,-0.08 0.13,-0.08 0.07,0 0.13,0 0.13,0.08 0,0.08 -0.06,0.08 -0.13,0.08 z"
           style="fill:#aa6550"
           id="path322" />
        <path
           d="m 94.82,187.66 a 0.13,0.13 0 0 1 -0.14,-0.13 0.14,0.14 0 0 1 0.11,-0.16 0.14,0.14 0 0 1 0.14,0.14 0.12,0.12 0 0 1 -0.11,0.15 z"
           style="fill:#aa6550"
           id="path323" />
        <path
           d="m 105.43,186.42 a 0.15,0.15 0 0 1 -0.05,-0.29 0.13,0.13 0 0 1 0.15,0.12 0.14,0.14 0 0 1 -0.1,0.17 z"
           style="fill:#aa6550"
           id="path324" />
        <path
           d="m 107,186.28 a 0.14,0.14 0 0 1 -0.14,-0.15 0.14,0.14 0 0 1 0.11,-0.17 c 0.07,0 0.13,0.06 0.14,0.15 0.01,0.09 -0.11,0.17 -0.11,0.17 z"
           style="fill:#aa6550"
           id="path325" />
        <path
           d="m 104.1,186.45 a 0.12,0.12 0 0 1 -0.15,-0.08 0.12,0.12 0 0 1 0.1,-0.14 0.13,0.13 0 0 1 0.15,0.09 0.12,0.12 0 0 1 -0.1,0.13 z"
           style="fill:#aa6550"
           id="path326" />
        <path
           d="m 105.22,188 a 0.15,0.15 0 0 1 -0.12,-0.27 0.13,0.13 0 0 1 0.17,0.08 0.14,0.14 0 0 1 -0.05,0.19 z"
           style="fill:#aa6550"
           id="path327" />
        <path
           d="m 106.51,187.71 a 0.1,0.1 0 0 1 -0.09,-0.13 0.11,0.11 0 0 1 0.15,-0.07 0.1,0.1 0 0 1 0.09,0.13 0.11,0.11 0 0 1 -0.15,0.07 z"
           style="fill:#aa6550"
           id="path328" />
        <path
           d="m 82.41,170.6 a 6.39,6.39 0 0 1 6.38,-7.94 20.42,20.42 0 0 0 3,0.22 15.55,15.55 0 0 1 4.29,-0.33 c 2.08,0.2 5.12,1.53 6.64,1.83 1.52,0.3 2.56,-1.31 2.56,-1.31 0.1,0.8 -0.07,1.41 -0.67,1.71 1.58,0.15 2.8,-1.71 2.8,-1.71 a 2.48,2.48 0 0 1 -0.72,2.52 11.64,11.64 0 0 0 2.93,1.51 c 0,0 2.08,0.29 1.79,-0.87 0,0 3.61,4.89 -2,9.66 -1.57,1.33 -4.16,0.58 -6,-0.43 -1.63,-0.9 -3.09,-2.45 -4.95,-2.39 -1.86,0.06 -3.62,1.87 -5.51,1.5 a 5.45,5.45 0 0 1 -2.49,-1.67 4.27,4.27 0 0 0 -2.57,-1.48 c -1,-0.06 -1.9,0.38 -1.54,1.33 l -4,-2.15"
           style="fill:#263238"
           id="path329" />
        <path
           d="m 99.66,193.83 a 2.24,2.24 0 0 0 -0.93,-1.84 2,2 0 0 0 -2,-0.11 1.77,1.77 0 0 0 -0.87,1.82 2.08,2.08 0 0 0 3.08,1.23 1.5,1.5 0 0 0 0.71,-1.27"
           style="fill:#ff0000"
           id="path330" />
        <path
           d="m 96.4,191.73 c 0.16,0 0.32,1.08 1.38,1.74 1.06,0.66 2.24,0.37 2.27,0.52 0.03,0.15 -0.24,0.25 -0.74,0.34 a 2.79,2.79 0 0 1 -1.88,-0.38 2.41,2.41 0 0 1 -1.09,-1.46 c -0.11,-0.49 -0.02,-0.76 0.06,-0.76 z"
           style="fill:#263238"
           id="path331" />
        <path
           d="m 108.49,175.87 0.11,0.42 a 13.87,13.87 0 0 0 4,-4.43 6.89,6.89 0 0 0 0.42,-5.82 4.64,4.64 0 0 0 -4.83,-2.83 3.44,3.44 0 0 0 -5.21,-1.58 6.75,6.75 0 0 1 -1.6,1.15 c -1,0.35 -2,-0.25 -3,-0.63 a 5.56,5.56 0 0 0 -2.76,-0.39 3.65,3.65 0 0 0 -2.4,1.34 3.76,3.76 0 0 0 -0.11,4 5.92,5.92 0 0 0 3.34,2.53 14.4,14.4 0 0 0 4.24,0.55"
           style="fill:#263238"
           id="path332" />
        <path
           d="m 61.73,257.84 c 0,0 1.62,10.94 2.07,12.27 0.45,1.33 4.12,4.49 6.78,4.71 2.66,0.22 10.31,0 14,-3.22 5.31,-4.57 9.66,-18.7 9.66,-18.7 l 6.28,1.74 c 0,0 7.28,6.2 8.48,5.33 1.2,-0.87 -0.21,-2.13 -0.21,-2.13 l -4,-4.38 c 0,0 6.67,5 7.43,5.48 0.76,0.48 2,-0.29 1.68,-1.18 -0.32,-0.89 -6.29,-5.94 -6.29,-5.94 0,0 7.2,4.5 8.3,4.76 0.78,0.18 1.79,-0.45 1.35,-1.34 -0.44,-0.89 -9,-7.12 -9,-7.12 0,0 9.21,1.63 9.74,1.69 0.8,0.1 1.59,-1.4 0.55,-1.84 -1.04,-0.44 -15.43,-5.64 -15.43,-5.64 0,0 3.86,-3.86 3.71,-5.94 a 4.11,4.11 0 0 0 -1,-2.82 c 0,0 -0.19,-0.62 -1.58,1.92 a 8.23,8.23 0 0 1 -4.65,4.28 c -1.93,0.78 -11.72,4.49 -11.72,4.49 l -16.39,14.95 z"
           style="fill:#ffbe9d"
           id="path333" />
        <path
           d="m 75.64,240.77 a 9,9 0 0 1 0.24,2.23 48.86,48.86 0 0 1 -0.09,5.41 47.36,47.36 0 0 1 -0.68,5.36 9.26,9.26 0 0 1 -0.55,2.18 c -0.16,0 0.42,-3.39 0.71,-7.58 0.29,-4.19 0.21,-7.59 0.37,-7.6 z"
           style="fill:#455a64"
           id="path334" />
        <polygon
           points="120.41,250.87 115.41,266.08 127.04,262.04 131.72,246.55 131.3,245.76 "
           style="fill:#455a64"
           id="polygon334" />
        <path
           d="m 120.94,243.77 a 2.87,2.87 0 0 0 1.8,3.77 26.32,26.32 0 0 0 5.54,1.25 v 2.43 l -7.06,2.94 c 0,0 -0.64,-0.06 -1.34,-0.1 a 6.42,6.42 0 0 0 -2,0.13 c -0.31,0.27 -1.06,1.23 0.33,1.71 a 17.47,17.47 0 0 0 3.09,0.7 h -4.72 c 0,0 -1.53,1.91 1.12,2.4 a 11,11 0 0 1 2.73,0.68 l -4.82,-0.37 a 1.75,1.75 0 0 0 0.83,1.95 c 1.2,0.88 4,0.8 4,0.8 h 7.92 l 6.12,-6.2 a 4.94,4.94 0 0 0 0.86,-2.94 c -0.08,-1.68 -0.08,-1.84 -0.55,-2.23 -0.47,-0.39 -4.46,-3.92 -4.46,-3.92 L 123.81,245 Z"
           style="fill:#ffbe9d"
           id="path335" />
        <path
           d="m 107.69,342.92 a 3.35,3.35 0 0 1 0,-0.59 q 0,-0.66 0,-1.68 c 0,-1.46 -0.05,-3.58 -0.12,-6.19 -0.15,-5.22 -0.54,-12.43 -1.42,-20.35 -0.88,-7.92 -2.13,-15 -3.15,-20.15 -0.51,-2.57 -1,-4.63 -1.26,-6.06 l -0.35,-1.65 a 2.32,2.32 0 0 1 -0.08,-0.58 2.85,2.85 0 0 1 0.18,0.56 c 0.12,0.42 0.26,1 0.44,1.62 0.38,1.42 0.87,3.47 1.43,6 1.11,5.11 2.4,12.23 3.3,20.17 0.9,7.94 1.22,15.17 1.27,20.4 0,2.62 0,4.74 0,6.2 l -0.07,1.68 a 2.27,2.27 0 0 1 -0.17,0.62 z"
           style="fill:#455a64"
           id="path336" />
      </g>
    </g>
  </g>
</svg>
