<svg width="189" height="48" viewBox="0 0 189 48" fill="none" xmlns="http://www.w3.org/2000/svg">
<g opacity="0.84">
<path d="M25.6372 7.03315C22.513 3.90895 17.4477 3.90895 14.3235 7.03315L3.0098 18.3469C-0.114392 21.4711 -0.114392 26.5364 3.0098 29.6606L14.3235 40.9743C17.4477 44.0985 22.513 44.0985 25.6372 40.9743L31.0355 35.576C26.5415 33.8423 23.3534 29.4816 23.3534 24.3763C23.3534 19.0676 26.8007 14.564 31.5788 12.982C31.4854 12.8837 31.3905 12.7864 31.2941 12.69L25.6372 7.03315Z" fill="black"/>
<path opacity="0.7" d="M31.0358 35.5798C32.3755 36.0966 33.8312 36.3799 35.3531 36.3799C41.9806 36.3799 47.3531 31.0073 47.3531 24.3799C47.3531 17.7525 41.9806 12.3799 35.3531 12.3799C34.0347 12.3799 32.7659 12.5925 31.5791 12.9854C37.5415 19.2535 37.4466 29.169 31.2946 35.321L31.0358 35.5798Z" fill="white"/>
</g>
<g opacity="0.84">
<path d="M70.2736 33L68.8156 28.842H61.2826L59.7976 33H55.6666L62.9566 13.614H67.4386L74.6746 33H70.2736ZM65.0896 18.096L62.4436 25.575H67.6816L65.0896 18.096Z" fill="black"/>
<path d="M79.4123 33H75.6323V13.614H79.4123V33Z" fill="black"/>
<path d="M96.0888 25.791C96.0888 30.057 93.5778 33.27 89.6898 33.27C87.9888 33.27 86.5308 32.541 85.4508 31.137V38.211H81.6978V18.582H85.1538V20.688C86.2608 19.149 87.8538 18.312 89.6898 18.312C93.5778 18.312 96.0888 21.552 96.0888 25.791ZM92.2278 25.791C92.2278 23.091 90.6888 21.633 88.8528 21.633C87.0168 21.633 85.4778 23.064 85.4778 25.791C85.4778 28.518 87.0168 29.922 88.8528 29.922C90.6888 29.922 92.2278 28.545 92.2278 25.791Z" fill="black"/>
<path d="M101.167 25.143V33H97.4137V13.614H101.167V20.472C102.166 19.149 103.408 18.312 105.298 18.312C108.187 18.312 110.185 20.202 110.185 23.685V33H106.459V24.954C106.459 22.821 105.622 21.633 103.921 21.633C102.436 21.633 101.167 22.821 101.167 25.143Z" fill="black"/>
<path d="M120.925 33V31.218C119.98 32.568 118.549 33.27 116.578 33.27C113.581 33.27 111.583 31.515 111.583 28.815C111.583 26.007 113.851 24.495 118.063 24.495C118.873 24.495 119.575 24.549 120.466 24.657V23.793C120.466 22.173 119.548 21.228 117.982 21.228C116.362 21.228 115.39 22.173 115.255 23.793H111.88C112.096 20.472 114.499 18.312 117.982 18.312C121.762 18.312 123.976 20.391 123.976 23.928V33H120.925ZM115.12 28.707C115.12 29.922 115.984 30.678 117.388 30.678C119.305 30.678 120.466 29.625 120.466 27.951V26.925C119.575 26.79 118.954 26.736 118.306 26.736C116.173 26.736 115.12 27.411 115.12 28.707Z" fill="black"/>
<path d="M139.824 33L136.206 19.446L132.588 33H128.43L123.462 13.614H127.458L130.59 26.763L134.154 13.614H138.339L141.795 26.817L144.954 13.614H148.977L143.982 33H139.824Z" fill="black"/>
<path d="M157.393 33V31.218C156.448 32.568 155.017 33.27 153.046 33.27C150.049 33.27 148.05 31.515 148.05 28.815C148.05 26.007 150.318 24.495 154.53 24.495C155.34 24.495 156.042 24.549 156.933 24.657V23.793C156.933 22.173 156.016 21.228 154.45 21.228C152.83 21.228 151.857 22.173 151.722 23.793H148.347C148.563 20.472 150.967 18.312 154.45 18.312C158.23 18.312 160.443 20.391 160.443 23.928V33H157.393ZM151.588 28.707C151.588 29.922 152.451 30.678 153.855 30.678C155.772 30.678 156.933 29.625 156.933 27.951V26.925C156.042 26.79 155.421 26.736 154.773 26.736C152.64 26.736 151.588 27.411 151.588 28.707Z" fill="black"/>
<path d="M175.084 18.582L169.792 33H165.688L160.369 18.582H164.419L167.848 28.734L171.304 18.582H175.084Z" fill="black"/>
<path d="M181.413 33.243C177.093 33.243 174.204 30.246 174.204 25.737C174.204 21.444 177.201 18.312 181.359 18.312C185.922 18.312 188.946 22.011 188.271 26.709H178.038C178.281 29.058 179.415 30.354 181.332 30.354C182.979 30.354 184.086 29.544 184.518 28.113H188.244C187.434 31.38 184.923 33.243 181.413 33.243ZM181.278 21.066C179.523 21.066 178.416 22.2 178.092 24.333H184.302C184.194 22.335 183.06 21.066 181.278 21.066Z" fill="black"/>
</g>
</svg>
