<svg width="196" height="48" viewBox="0 0 196 48" fill="none" xmlns="http://www.w3.org/2000/svg">
<g opacity="0.84">
<path d="M19.0002 22.9265L36.2649 12.9654L19.0002 3L1.73505 12.9654L19.0002 22.9265Z" fill="black"/>
<path d="M17.765 25.0653L0.5 15.1043V35.0346L17.765 45V25.0653Z" fill="black"/>
<path opacity="0.5" d="M20.2363 25.0655V45.0002L37.5009 35.0348V15.1045L20.2363 25.0655Z" fill="black"/>
</g>
<g opacity="0.84">
<path d="M61.785 19.07V13.7759H66.348V32.9999H61.785V23.2239H54.063V32.9999H49.5V13.7759H54.063V19.07H61.785Z" fill="black"/>
<path fill-rule="evenodd" clip-rule="evenodd" d="M82.1839 26.4389V27.2759H71.8699C72.0139 28.2299 72.3649 28.9589 72.9229 29.4629C73.4809 29.9669 74.1919 30.2189 75.0559 30.2189C76.2628 30.2189 77.1335 29.8126 77.6679 29H81.7588C81.3482 30.2777 80.5809 31.305 79.4569 32.0819C78.2329 32.9099 76.7659 33.3239 75.0559 33.3239C72.8959 33.3239 71.1499 32.6579 69.8179 31.3259C68.4859 29.9939 67.8199 28.2299 67.8199 26.0339C67.8199 23.8199 68.4769 22.0559 69.7909 20.7419C71.0869 19.4099 72.8239 18.7439 75.0019 18.7439C77.1619 18.7439 78.9079 19.4369 80.2399 20.8229C81.5359 22.2269 82.1839 24.0989 82.1839 26.4389ZM74.9479 21.8489C73.2199 21.8489 72.2029 22.7669 71.8969 24.6029H78.0529C77.9089 23.7389 77.5669 23.0639 77.0269 22.5779C76.4869 22.0919 75.7939 21.8489 74.9479 21.8489Z" fill="black"/>
<path d="M90.9349 25.8179L95.7409 19.0679H91.0699L90.5569 19.7969C89.9629 20.6609 89.3329 21.6329 88.6669 22.7129C88.3969 22.2809 87.7579 21.3089 86.7499 19.7969L86.2369 19.0679H81.4309L86.2909 25.8719L81.1609 32.9999H85.8589L86.2099 32.4869C87.0739 31.1909 87.8569 30.0209 88.5589 28.9769C89.8189 30.9029 90.5929 32.0729 90.8809 32.4869L91.2319 32.9999H96.0109L90.9349 25.8179Z" fill="black"/>
<path fill-rule="evenodd" clip-rule="evenodd" d="M108.899 32.9999H104.876V31.4339C103.94 32.6939 102.455 33.3239 100.421 33.3239C98.8912 33.3239 97.6582 32.9459 96.7222 32.1899C95.8042 31.4339 95.3452 30.3899 95.3452 29.0579C95.3452 26.4659 97.1632 25.0169 100.799 24.7109L102.986 24.5219C104.192 24.3959 104.795 23.9369 104.795 23.1449C104.795 22.2089 104.084 21.7409 102.662 21.7409C101.798 21.7409 101.186 21.8759 100.826 22.1459C100.484 22.3979 100.277 22.8749 100.205 23.5769H96.0202C96.2722 20.3549 98.4952 18.7439 102.689 18.7439C106.829 18.7439 108.899 20.1749 108.899 23.0369V32.9999ZM101.69 30.4889C102.644 30.4889 103.4 30.2459 103.958 29.7599C104.516 29.2559 104.795 28.5089 104.795 27.5189V26.4929C104.543 26.7629 104.075 26.9429 103.391 27.0329L101.663 27.2219C100.313 27.3659 99.6382 27.9239 99.6382 28.8959C99.6382 29.3819 99.8182 29.7689 100.178 30.0569C100.538 30.3449 101.042 30.4889 101.69 30.4889Z" fill="black"/>
<path d="M122.551 20.0939C121.687 19.1939 120.517 18.7439 119.041 18.7439C117.259 18.7439 115.837 19.4639 114.775 20.9039V13.7759H110.563V32.9999H114.775V25.2239C114.775 24.3059 115.027 23.5949 115.531 23.0909C116.035 22.5869 116.665 22.3349 117.421 22.3349C118.915 22.3349 119.662 23.1269 119.662 24.7109V32.9999H123.874V23.8739C123.874 22.2359 123.433 20.9759 122.551 20.0939Z" fill="black"/>
<path fill-rule="evenodd" clip-rule="evenodd" d="M139.561 26.4389V27.2759H129.247C129.391 28.2299 129.742 28.9589 130.3 29.4629C130.858 29.9669 131.569 30.2189 132.433 30.2189C133.64 30.2189 134.511 29.8126 135.045 29H139.136C138.725 30.2777 137.958 31.305 136.834 32.0819C135.61 32.9099 134.143 33.3239 132.433 33.3239C130.273 33.3239 128.527 32.6579 127.195 31.3259C125.863 29.9939 125.197 28.2299 125.197 26.0339C125.197 23.8199 125.854 22.0559 127.168 20.7419C128.464 19.4099 130.201 18.7439 132.379 18.7439C134.539 18.7439 136.285 19.4369 137.617 20.8229C138.913 22.2269 139.561 24.0989 139.561 26.4389ZM132.325 21.8489C130.597 21.8489 129.58 22.7669 129.274 24.6029H135.43C135.286 23.7389 134.944 23.0639 134.404 22.5779C133.864 22.0919 133.171 21.8489 132.325 21.8489Z" fill="black"/>
<path fill-rule="evenodd" clip-rule="evenodd" d="M150.577 13.7759V20.7419C149.623 19.4099 148.264 18.7439 146.5 18.7439C144.628 18.7439 143.152 19.4009 142.072 20.7149C140.974 22.0289 140.425 23.8019 140.425 26.0339C140.425 28.2659 140.974 30.0389 142.072 31.3529C143.152 32.6669 144.628 33.3239 146.5 33.3239C148.354 33.3239 149.749 32.6129 150.685 31.1909V32.9999H154.789V13.7759H150.577ZM150.658 26.0339C150.658 28.6439 149.659 29.9489 147.661 29.9489C145.681 29.9489 144.691 28.6799 144.691 26.1419C144.691 24.8459 144.952 23.8559 145.474 23.1719C145.996 22.4699 146.725 22.1189 147.661 22.1189C149.659 22.1189 150.658 23.4239 150.658 26.0339Z" fill="black"/>
<path d="M164.74 18.8519C164.812 18.8519 165.118 18.8699 165.658 18.9059V22.7399H164.578C162.112 22.7399 160.879 23.9999 160.879 26.5199V32.9999H156.667V19.0679H160.771V21.6599C161.419 19.7879 162.742 18.8519 164.74 18.8519Z" fill="black"/>
<path fill-rule="evenodd" clip-rule="evenodd" d="M173.055 33.3239C175.269 33.3239 177.042 32.6579 178.374 31.3259C179.688 30.0119 180.345 28.2479 180.345 26.0339C180.345 23.8019 179.688 22.0289 178.374 20.7149C177.06 19.4009 175.287 18.7439 173.055 18.7439C170.823 18.7439 169.05 19.4009 167.736 20.7149C166.404 22.0469 165.738 23.8199 165.738 26.0339C165.738 28.2299 166.404 29.9939 167.736 31.3259C169.068 32.6579 170.841 33.3239 173.055 33.3239ZM175.296 28.9499C174.774 29.6159 174.027 29.9489 173.055 29.9489C172.065 29.9489 171.309 29.6159 170.787 28.9499C170.265 28.2839 170.004 27.3119 170.004 26.0339C170.004 24.7559 170.265 23.7839 170.787 23.1179C171.309 22.4519 172.065 22.1189 173.055 22.1189C174.027 22.1189 174.774 22.4519 175.296 23.1179C175.818 23.7839 176.079 24.7559 176.079 26.0339C176.079 27.3119 175.818 28.2839 175.296 28.9499Z" fill="black"/>
<path d="M190.143 18.7439C191.619 18.7439 192.789 19.1939 193.653 20.0939C194.535 20.9759 194.976 22.2359 194.976 23.8739V32.9999H190.764V24.7109C190.764 23.1269 190.017 22.3349 188.523 22.3349C187.767 22.3349 187.137 22.5869 186.633 23.0909C186.129 23.5949 185.877 24.3059 185.877 25.2239V32.9999H181.665V19.0679H185.769V21.0389C186.849 19.5089 188.307 18.7439 190.143 18.7439Z" fill="black"/>
</g>
</svg>
