<svg width="37" height="37" viewBox="0 0 37 37" fill="none" xmlns="http://www.w3.org/2000/svg">
<g id="quote-up-svgrepo-com 1">
<path id="Vector" d="M12.335 17.5106H5.29995C5.41995 10.5056 6.79995 9.35063 11.105 6.80063C11.6 6.50063 11.765 5.87063 11.465 5.36063C11.18 4.86563 10.535 4.70063 10.04 5.00063C4.96995 8.00063 3.19995 9.83063 3.19995 18.5456V26.6306C3.19995 29.1956 5.28495 31.2656 7.83495 31.2656H12.335C14.975 31.2656 16.97 29.2706 16.97 26.6306V22.1306C16.97 19.5056 14.975 17.5106 12.335 17.5106Z" fill="#4F378A"/>
<path id="Vector_2" d="M28.5628 17.5106H21.5278C21.6478 10.5056 23.0278 9.35063 27.3328 6.80063C27.8278 6.50063 27.9928 5.87063 27.6928 5.36063C27.3928 4.86563 26.7628 4.70063 26.2528 5.00063C21.1828 8.00063 19.4128 9.83063 19.4128 18.5606V26.6456C19.4128 29.2106 21.4978 31.2806 24.0478 31.2806H28.5478C31.1878 31.2806 33.1828 29.2856 33.1828 26.6456V22.1456C33.1978 19.5056 31.2028 17.5106 28.5628 17.5106Z" fill="#4F378A"/>
</g>
</svg>
