<svg width="37" height="37" viewBox="0 0 37 37" fill="none" xmlns="http://www.w3.org/2000/svg">
<g id="quote-up-svgrepo-com 1">
<path id="Vector" d="M12.335 17.596H5.29995C5.41995 10.5911 6.79995 9.43608 11.105 6.88608C11.6 6.58608 11.765 5.95608 11.465 5.44608C11.18 4.95108 10.535 4.78608 10.04 5.08608C4.96995 8.08608 3.19995 9.91608 3.19995 18.631V26.716C3.19995 29.281 5.28495 31.351 7.83495 31.351H12.335C14.975 31.351 16.97 29.356 16.97 26.716V22.216C16.97 19.591 14.975 17.596 12.335 17.596Z" fill="#1F4069"/>
<path id="Vector_2" d="M28.5628 17.596H21.5278C21.6478 10.5911 23.0278 9.43608 27.3328 6.88608C27.8278 6.58608 27.9928 5.95608 27.6928 5.44608C27.3928 4.95108 26.7628 4.78608 26.2528 5.08608C21.1828 8.08608 19.4128 9.91608 19.4128 18.646V26.731C19.4128 29.296 21.4978 31.366 24.0478 31.366H28.5478C31.1878 31.366 33.1828 29.371 33.1828 26.731V22.231C33.1978 19.591 31.2028 17.596 28.5628 17.596Z" fill="#1F4069"/>
</g>
</svg>
