<svg width="153" height="48" viewBox="0 0 153 48" fill="none" xmlns="http://www.w3.org/2000/svg">
<g opacity="0.84">
<path opacity="0.3" d="M20.3334 4C9.28761 4 0.333313 12.9543 0.333313 24.0001C0.333313 35.0458 9.28761 44.0002 20.3334 44.0002C30.2434 44.0002 38.47 36.7925 40.0569 27.3334H39.9134C38.4332 33.0842 33.2129 37.3335 27.0001 37.3335C19.6363 37.3335 13.6667 31.3639 13.6667 24.0001C13.6667 16.6362 19.6363 10.6667 27.0001 10.6667C33.2129 10.6667 38.4332 14.9159 39.9134 20.6667H40.0569C38.47 11.2076 30.2434 4 20.3334 4Z" fill="black"/>
<path d="M0.333313 24.0001C0.333313 12.9543 9.28765 4 20.3334 4C30.2434 4 38.47 11.2076 40.0569 20.6667H26.58C25.0999 14.9159 19.8795 10.6667 13.6667 10.6667C6.30287 10.6667 0.333313 16.6363 0.333313 24.0001Z" fill="black"/>
<path d="M0.333313 24.0002C0.333313 35.0459 9.28765 44.0002 20.3334 44.0002C30.2434 44.0002 38.47 36.7926 40.0569 27.3335H26.58C25.0999 33.0843 19.8795 37.3336 13.6667 37.3336C6.30287 37.3336 0.333313 31.364 0.333313 24.0002Z" fill="black"/>
</g>
<g opacity="0.84">
<path fill-rule="evenodd" clip-rule="evenodd" d="M66.1507 20.7018H70.0831L70.0656 20.5867C69.4185 16.3512 65.2485 13.3098 60.5417 13.3098C54.6846 13.3098 50.2337 17.8514 50.2337 23.8208C50.2337 29.8186 54.6841 34.3898 60.5417 34.3898C65.3699 34.3898 69.3014 31.3152 70.1231 26.8549L70.1448 26.7368H66.1764L66.1576 26.8128C65.5612 29.227 63.2574 30.8838 60.5417 30.8838C56.8042 30.8838 53.9427 27.832 53.9427 23.8208C53.9427 19.8394 56.8034 16.8158 60.5417 16.8158C63.2304 16.8158 65.477 18.3879 66.1297 20.6298L66.1507 20.7018Z" fill="black"/>
<path fill-rule="evenodd" clip-rule="evenodd" d="M86.7079 34.0998V19.7188H83.2599V22.0112C82.2062 20.3716 80.5049 19.4288 78.3139 19.4288C74.4519 19.4288 71.4279 22.7588 71.4279 26.8948C71.4279 31.0303 74.4514 34.3898 78.3139 34.3898C80.5049 34.3898 82.2062 33.4471 83.2599 31.8074V34.0998H86.7079ZM79.0099 31.1158C76.6591 31.1158 74.8179 29.2475 74.8179 26.8948C74.8179 24.5716 76.6586 22.7028 79.0099 22.7028C81.4202 22.7028 83.2309 24.5145 83.2309 26.8948C83.2309 29.3046 81.4197 31.1158 79.0099 31.1158Z" fill="black"/>
<path fill-rule="evenodd" clip-rule="evenodd" d="M94.1118 28.6058V22.9928H97.8238V19.7188H94.1118V15.9198H90.6638V19.7188H87.9668V22.9928H90.6638V28.6638C90.6638 30.4811 91.1917 31.8863 92.128 32.8375C93.0644 33.7887 94.3973 34.2738 95.9838 34.2738C96.5103 34.2738 97.2436 34.2155 97.7467 34.0972L97.8238 34.079V30.8819L97.6975 30.9163C97.3906 31 97.0236 31.0288 96.6798 31.0288C95.9104 31.0288 95.2703 30.8505 94.8238 30.4658C94.3799 30.0834 94.1118 29.4836 94.1118 28.6058Z" fill="black"/>
<path fill-rule="evenodd" clip-rule="evenodd" d="M113.387 34.0998V19.7188H109.939V22.0112C108.885 20.3716 107.184 19.4288 104.993 19.4288C101.131 19.4288 98.1068 22.7588 98.1068 26.8948C98.1068 31.0303 101.13 34.3898 104.993 34.3898C107.184 34.3898 108.885 33.4471 109.939 31.8074V34.0998H113.387ZM105.689 31.1158C103.338 31.1158 101.497 29.2475 101.497 26.8948C101.497 24.5716 103.337 22.7028 105.689 22.7028C108.099 22.7028 109.91 24.5145 109.91 26.8948C109.91 29.3046 108.099 31.1158 105.689 31.1158Z" fill="black"/>
<path fill-rule="evenodd" clip-rule="evenodd" d="M119.428 34.0998V13.5998H116.009V34.0998H119.428Z" fill="black"/>
<path fill-rule="evenodd" clip-rule="evenodd" d="M141.06 34.6538H137.642L137.647 34.7582C137.735 36.7856 138.826 38.1043 140.249 38.9117C141.668 39.7166 143.419 40.0158 144.851 40.0158C146.93 40.0158 148.76 39.3937 150.072 38.2624C151.385 37.1299 152.172 35.4924 152.172 33.4778V32.6788H152.201V19.7188H148.753V21.934C147.699 20.3452 145.998 19.4288 143.807 19.4288C139.948 19.4288 136.921 22.6691 136.921 26.6918C136.921 30.714 139.947 33.9838 143.807 33.9838C145.998 33.9838 147.699 33.0675 148.753 31.4544L148.724 33.5938C148.724 35.7002 146.957 37.1188 144.764 37.1188C143.763 37.1188 142.854 36.8968 142.189 36.4883C141.525 36.0811 141.107 35.4918 141.065 34.7483L141.06 34.6538ZM144.503 30.7968C142.15 30.7968 140.311 28.9553 140.311 26.6918C140.311 24.4293 142.149 22.6158 144.503 22.6158C146.916 22.6158 148.724 24.3722 148.724 26.6918C148.724 29.0124 146.916 30.7968 144.503 30.7968Z" fill="black"/>
<path fill-rule="evenodd" clip-rule="evenodd" d="M135.553 19.5639L135.601 19.4298H131.863L131.833 19.4694C131.08 20.4612 129.89 21.0866 128.542 21.0866C127.177 21.0866 126 20.4612 125.26 19.4701L125.23 19.4298H121.508L121.556 19.5636C122.586 22.4301 125.272 24.3896 128.542 24.3896C131.812 24.3896 134.516 22.4304 135.553 19.5639Z" fill="black"/>
<path fill-rule="evenodd" clip-rule="evenodd" d="M132.424 34.3898H135.873L135.888 34.3072C135.967 33.8606 136.008 33.3983 136.008 32.9236C136.008 28.6634 132.744 25.4286 128.542 25.4286C124.339 25.4286 121.105 28.6639 121.105 32.9236C121.105 33.3982 121.146 33.8605 121.224 34.3071L121.238 34.3898H124.682L124.641 34.2595C124.508 33.843 124.437 33.3943 124.437 32.9236C124.437 30.5402 126.222 28.7026 128.542 28.7026C130.834 28.7026 132.676 30.5415 132.676 32.9236C132.676 33.394 132.602 33.8424 132.467 34.2588L132.424 34.3898Z" fill="black"/>
</g>
</svg>
