<svg width="161" height="45" viewBox="0 0 161 45" fill="none" xmlns="http://www.w3.org/2000/svg">
<path d="M18.0002 21.4936L34.7983 12.1551L18.0002 2.8125L1.20167 12.1551L18.0002 21.4936Z" fill="#1570EF"/>
<path d="M16.7984 23.4987L0 14.1603V32.8449L16.7984 42.1875V23.4987Z" fill="#1570EF"/>
<path opacity="0.5" d="M19.2029 23.4989V42.1877L36.0009 32.8451V14.1605L19.2029 23.4989Z" fill="#1570EF"/>
<path d="M57.5083 18.138V12.9149H61.0399V31.8809H57.5083V22.2361H51.5316V31.8809H48V12.9149H51.5316V18.138H57.5083Z" fill="#0C111D"/>
<path fill-rule="evenodd" clip-rule="evenodd" d="M73.2965 25.408V26.2338H65.3137C65.4252 27.175 65.6968 27.8942 66.1287 28.3914C66.5606 28.8886 67.1109 29.1373 67.7796 29.1373C68.7137 29.1373 69.3876 28.7364 69.8012 27.9347H72.9674C72.6496 29.1953 72.0558 30.2088 71.1858 30.9753C70.2385 31.7922 69.1031 32.2006 67.7796 32.2006C66.1078 32.2006 64.7564 31.5435 63.7255 30.2294C62.6946 28.9153 62.1791 27.1749 62.1791 25.0084C62.1791 22.8241 62.6876 21.0838 63.7046 19.7874C64.7077 18.4733 66.0521 17.8162 67.7378 17.8162C69.4096 17.8162 70.7609 18.4999 71.7919 19.8673C72.7949 21.2525 73.2965 23.0994 73.2965 25.408ZM67.696 20.8796C66.3586 20.8796 65.5714 21.7852 65.3346 23.5966H70.0992C69.9877 22.7442 69.723 22.0783 69.3051 21.5988C68.8871 21.1193 68.3508 20.8796 67.696 20.8796Z" fill="#0C111D"/>
<path d="M80.0695 24.7953L83.7892 18.1359H80.1739L79.7769 18.8551C79.3172 19.7075 78.8296 20.6665 78.3141 21.732C78.1051 21.3058 77.6105 20.3468 76.8304 18.8551L76.4333 18.1359H72.7136L76.4751 24.8486L72.5046 31.8809H76.1408L76.4124 31.3748C77.0811 30.0962 77.6872 28.9419 78.2305 27.9119C79.2057 29.8121 79.8048 30.9664 80.0277 31.3748L80.2993 31.8809H83.9981L80.0695 24.7953Z" fill="#0C111D"/>
<path fill-rule="evenodd" clip-rule="evenodd" d="M93.9733 31.8809H90.8596V30.336C90.1352 31.5791 88.9858 32.2006 87.4116 32.2006C86.2274 32.2006 85.2731 31.8277 84.5487 31.0818C83.8381 30.336 83.4829 29.306 83.4829 27.9918C83.4829 25.4346 84.89 24.0051 87.7041 23.7032L89.3968 23.5167C90.3302 23.3924 90.7969 22.9396 90.7969 22.1582C90.7969 21.2347 90.2466 20.773 89.1461 20.773C88.4773 20.773 88.0037 20.9062 87.725 21.1726C87.4603 21.4212 87.3001 21.8918 87.2444 22.5844H84.0053C84.2004 19.4056 85.9209 17.8162 89.167 17.8162C92.3712 17.8162 93.9733 19.228 93.9733 22.0516V31.8809ZM88.3938 29.4036C89.1321 29.4036 89.7172 29.1639 90.1491 28.6844C90.581 28.1872 90.7969 27.4502 90.7969 26.4735V25.4613C90.6019 25.7276 90.2397 25.9052 89.7103 25.994L88.3729 26.1805C87.328 26.3225 86.8056 26.8731 86.8056 27.832C86.8056 28.3115 86.9449 28.6933 87.2235 28.9774C87.5021 29.2616 87.8922 29.4036 88.3938 29.4036Z" fill="#0C111D"/>
<path d="M104.539 19.1481C103.871 18.2602 102.965 17.8162 101.823 17.8162C100.443 17.8162 99.3429 18.5266 98.5209 19.9472V12.9149H95.2609V31.8809H98.5209V24.2093C98.5209 23.3036 98.716 22.6021 99.106 22.1049C99.4961 21.6077 99.9837 21.359 100.569 21.359C101.725 21.359 102.303 22.1404 102.303 23.7032V31.8809H105.563V22.8774C105.563 21.2614 105.222 20.0183 104.539 19.1481Z" fill="#0C111D"/>
<path fill-rule="evenodd" clip-rule="evenodd" d="M117.705 25.408V26.2338H109.722C109.833 27.175 110.105 27.8942 110.537 28.3914C110.969 28.8886 111.519 29.1373 112.188 29.1373C113.122 29.1373 113.796 28.7364 114.209 27.9347H117.376C117.058 29.1953 116.464 30.2088 115.594 30.9753C114.647 31.7922 113.511 32.2006 112.188 32.2006C110.516 32.2006 109.165 31.5435 108.134 30.2294C107.103 28.9153 106.587 27.1749 106.587 25.0084C106.587 22.8241 107.096 21.0838 108.113 19.7874C109.116 18.4733 110.46 17.8162 112.146 17.8162C113.818 17.8162 115.169 18.4999 116.2 19.8673C117.203 21.2525 117.705 23.0994 117.705 25.408ZM112.104 20.8796C110.767 20.8796 109.98 21.7852 109.743 23.5966H114.507C114.396 22.7442 114.131 22.0783 113.713 21.5988C113.295 21.1193 112.759 20.8796 112.104 20.8796Z" fill="#0C111D"/>
<path fill-rule="evenodd" clip-rule="evenodd" d="M126.231 12.9149V19.7874C125.492 18.4733 124.44 17.8162 123.075 17.8162C121.626 17.8162 120.484 18.4644 119.648 19.7608C118.798 21.0572 118.373 22.8064 118.373 25.0084C118.373 27.2105 118.798 28.9597 119.648 30.256C120.484 31.5524 121.626 32.2006 123.075 32.2006C124.51 32.2006 125.59 31.4991 126.314 30.0962V31.8809H129.49V12.9149H126.231ZM126.293 25.0084C126.293 27.5834 125.52 28.8709 123.974 28.8709C122.441 28.8709 121.675 27.6189 121.675 25.115C121.675 23.8364 121.877 22.8596 122.281 22.1848C122.685 21.4922 123.249 21.1459 123.974 21.1459C125.52 21.1459 126.293 22.4334 126.293 25.0084Z" fill="#0C111D"/>
<path d="M137.193 17.9228C137.249 17.9228 137.485 17.9405 137.903 17.9761V21.7586H137.068C135.159 21.7586 134.205 23.0017 134.205 25.4879V31.8809H130.945V18.1359H134.121V20.6931C134.623 18.8462 135.647 17.9228 137.193 17.9228Z" fill="#0C111D"/>
<path fill-rule="evenodd" clip-rule="evenodd" d="M143.628 32.2006C145.342 32.2006 146.714 31.5435 147.745 30.2294C148.762 28.933 149.271 27.1927 149.271 25.0084C149.271 22.8064 148.762 21.0572 147.745 19.7608C146.728 18.4644 145.356 17.8162 143.628 17.8162C141.901 17.8162 140.529 18.4644 139.512 19.7608C138.481 21.0749 137.965 22.8241 137.965 25.0084C137.965 27.1749 138.481 28.9153 139.512 30.2294C140.542 31.5435 141.915 32.2006 143.628 32.2006ZM145.363 27.8853C144.959 28.5424 144.381 28.8709 143.628 28.8709C142.862 28.8709 142.277 28.5424 141.873 27.8853C141.469 27.2282 141.267 26.2693 141.267 25.0084C141.267 23.7476 141.469 22.7886 141.873 22.1315C142.277 21.4745 142.862 21.1459 143.628 21.1459C144.381 21.1459 144.959 21.4745 145.363 22.1315C145.767 22.7886 145.969 23.7476 145.969 25.0084C145.969 26.2693 145.767 27.2282 145.363 27.8853Z" fill="#0C111D"/>
<path d="M156.853 17.8162C157.996 17.8162 158.901 18.2602 159.57 19.1481C160.253 20.0183 160.594 21.2614 160.594 22.8774V31.8809H157.334V23.7032C157.334 22.1404 156.756 21.359 155.6 21.359C155.015 21.359 154.527 21.6077 154.137 22.1049C153.747 22.6021 153.552 23.3036 153.552 24.2093V31.8809H150.292V18.1359H153.468V20.0804C154.304 18.571 155.432 17.8162 156.853 17.8162Z" fill="#0C111D"/>
</svg>
