<svg width="196" height="48" viewBox="0 0 196 48" fill="none" xmlns="http://www.w3.org/2000/svg">
<path d="M18.7001 22.9265L35.9649 12.9654L18.7001 3L1.435 12.9654L18.7001 22.9265Z" fill="#65558F"/>
<path d="M17.465 25.0653L0.199951 15.1043V35.0346L17.465 45V25.0653Z" fill="#65558F"/>
<path opacity="0.5" d="M19.9363 25.0655V45.0002L37.2009 35.0348V15.1045L19.9363 25.0655Z" fill="#65558F"/>
<path d="M61.485 19.07V13.7759H66.048V32.9999H61.485V23.2239H53.763V32.9999H49.2V13.7759H53.763V19.07H61.485Z" fill="#1D1B20"/>
<path fill-rule="evenodd" clip-rule="evenodd" d="M81.8839 26.4389V27.2759H71.5699C71.7139 28.2299 72.0649 28.9589 72.6229 29.4629C73.1809 29.9669 73.8919 30.2189 74.7559 30.2189C75.9628 30.2189 76.8334 29.8126 77.3678 29H81.4587C81.0481 30.2777 80.2808 31.305 79.1569 32.0819C77.9329 32.9099 76.4659 33.3239 74.7559 33.3239C72.5959 33.3239 70.8499 32.6579 69.5179 31.3259C68.1859 29.9939 67.5199 28.2299 67.5199 26.0339C67.5199 23.8199 68.1769 22.0559 69.4909 20.7419C70.7869 19.4099 72.5239 18.7439 74.7019 18.7439C76.8619 18.7439 78.6079 19.4369 79.9399 20.8229C81.2359 22.2269 81.8839 24.0989 81.8839 26.4389ZM74.6479 21.8489C72.9199 21.8489 71.9029 22.7669 71.5969 24.6029H77.7529C77.6089 23.7389 77.2669 23.0639 76.7269 22.5779C76.1869 22.0919 75.4939 21.8489 74.6479 21.8489Z" fill="#1D1B20"/>
<path d="M90.6348 25.8179L95.4408 19.0679H90.7698L90.2568 19.7969C89.6628 20.6609 89.0328 21.6329 88.3668 22.7129C88.0968 22.2809 87.4578 21.3089 86.4498 19.7969L85.9368 19.0679H81.1308L85.9908 25.8719L80.8608 32.9999H85.5588L85.9098 32.4869C86.7738 31.1909 87.5568 30.0209 88.2588 28.9769C89.5188 30.9029 90.2928 32.0729 90.5808 32.4869L90.9318 32.9999H95.7108L90.6348 25.8179Z" fill="#1D1B20"/>
<path fill-rule="evenodd" clip-rule="evenodd" d="M108.599 32.9999H104.576V31.4339C103.64 32.6939 102.155 33.3239 100.121 33.3239C98.5911 33.3239 97.3581 32.9459 96.4221 32.1899C95.5041 31.4339 95.0451 30.3899 95.0451 29.0579C95.0451 26.4659 96.8631 25.0169 100.499 24.7109L102.686 24.5219C103.892 24.3959 104.495 23.9369 104.495 23.1449C104.495 22.2089 103.784 21.7409 102.362 21.7409C101.498 21.7409 100.886 21.8759 100.526 22.1459C100.184 22.3979 99.9771 22.8749 99.9051 23.5769H95.7201C95.9721 20.3549 98.1951 18.7439 102.389 18.7439C106.529 18.7439 108.599 20.1749 108.599 23.0369V32.9999ZM101.39 30.4889C102.344 30.4889 103.1 30.2459 103.658 29.7599C104.216 29.2559 104.495 28.5089 104.495 27.5189V26.4929C104.243 26.7629 103.775 26.9429 103.091 27.0329L101.363 27.2219C100.013 27.3659 99.3381 27.9239 99.3381 28.8959C99.3381 29.3819 99.5181 29.7689 99.8781 30.0569C100.238 30.3449 100.742 30.4889 101.39 30.4889Z" fill="#1D1B20"/>
<path d="M122.251 20.0939C121.387 19.1939 120.217 18.7439 118.741 18.7439C116.959 18.7439 115.537 19.4639 114.475 20.9039V13.7759H110.263V32.9999H114.475V25.2239C114.475 24.3059 114.727 23.5949 115.231 23.0909C115.735 22.5869 116.365 22.3349 117.121 22.3349C118.615 22.3349 119.362 23.1269 119.362 24.7109V32.9999H123.574V23.8739C123.574 22.2359 123.133 20.9759 122.251 20.0939Z" fill="#1D1B20"/>
<path fill-rule="evenodd" clip-rule="evenodd" d="M139.261 26.4389V27.2759H128.947C129.091 28.2299 129.442 28.9589 130 29.4629C130.558 29.9669 131.269 30.2189 132.133 30.2189C133.34 30.2189 134.211 29.8126 134.745 29H138.836C138.425 30.2777 137.658 31.305 136.534 32.0819C135.31 32.9099 133.843 33.3239 132.133 33.3239C129.973 33.3239 128.227 32.6579 126.895 31.3259C125.563 29.9939 124.897 28.2299 124.897 26.0339C124.897 23.8199 125.554 22.0559 126.868 20.7419C128.164 19.4099 129.901 18.7439 132.079 18.7439C134.239 18.7439 135.985 19.4369 137.317 20.8229C138.613 22.2269 139.261 24.0989 139.261 26.4389ZM132.025 21.8489C130.297 21.8489 129.28 22.7669 128.974 24.6029H135.13C134.986 23.7389 134.644 23.0639 134.104 22.5779C133.564 22.0919 132.871 21.8489 132.025 21.8489Z" fill="#1D1B20"/>
<path fill-rule="evenodd" clip-rule="evenodd" d="M150.277 13.7759V20.7419C149.323 19.4099 147.964 18.7439 146.2 18.7439C144.328 18.7439 142.852 19.4009 141.772 20.7149C140.674 22.0289 140.125 23.8019 140.125 26.0339C140.125 28.2659 140.674 30.0389 141.772 31.3529C142.852 32.6669 144.328 33.3239 146.2 33.3239C148.054 33.3239 149.449 32.6129 150.385 31.1909V32.9999H154.489V13.7759H150.277ZM150.358 26.0339C150.358 28.6439 149.359 29.9489 147.361 29.9489C145.381 29.9489 144.391 28.6799 144.391 26.1419C144.391 24.8459 144.652 23.8559 145.174 23.1719C145.696 22.4699 146.425 22.1189 147.361 22.1189C149.359 22.1189 150.358 23.4239 150.358 26.0339Z" fill="#1D1B20"/>
<path d="M164.44 18.8519C164.512 18.8519 164.818 18.8699 165.358 18.9059V22.7399H164.278C161.812 22.7399 160.579 23.9999 160.579 26.5199V32.9999H156.367V19.0679H160.471V21.6599C161.119 19.7879 162.442 18.8519 164.44 18.8519Z" fill="#1D1B20"/>
<path fill-rule="evenodd" clip-rule="evenodd" d="M172.755 33.3239C174.969 33.3239 176.742 32.6579 178.074 31.3259C179.388 30.0119 180.045 28.2479 180.045 26.0339C180.045 23.8019 179.388 22.0289 178.074 20.7149C176.76 19.4009 174.987 18.7439 172.755 18.7439C170.523 18.7439 168.75 19.4009 167.436 20.7149C166.104 22.0469 165.438 23.8199 165.438 26.0339C165.438 28.2299 166.104 29.9939 167.436 31.3259C168.768 32.6579 170.541 33.3239 172.755 33.3239ZM174.996 28.9499C174.474 29.6159 173.727 29.9489 172.755 29.9489C171.765 29.9489 171.009 29.6159 170.487 28.9499C169.965 28.2839 169.704 27.3119 169.704 26.0339C169.704 24.7559 169.965 23.7839 170.487 23.1179C171.009 22.4519 171.765 22.1189 172.755 22.1189C173.727 22.1189 174.474 22.4519 174.996 23.1179C175.518 23.7839 175.779 24.7559 175.779 26.0339C175.779 27.3119 175.518 28.2839 174.996 28.9499Z" fill="#1D1B20"/>
<path d="M189.843 18.7439C191.319 18.7439 192.489 19.1939 193.353 20.0939C194.235 20.9759 194.676 22.2359 194.676 23.8739V32.9999H190.464V24.7109C190.464 23.1269 189.717 22.3349 188.223 22.3349C187.467 22.3349 186.837 22.5869 186.333 23.0909C185.829 23.5949 185.577 24.3059 185.577 25.2239V32.9999H181.365V19.0679H185.469V21.0389C186.549 19.5089 188.007 18.7439 189.843 18.7439Z" fill="#1D1B20"/>
</svg>
