<svg width="196" height="49" viewBox="0 0 196 49" fill="none" xmlns="http://www.w3.org/2000/svg">
<g opacity="0.84">
<path d="M19.0002 23.0754L36.2649 13.1143L19.0002 3.14893L1.73505 13.1143L19.0002 23.0754Z" fill="#1F4069"/>
<path d="M17.765 25.2142L0.5 15.2532V35.1835L17.765 45.1489V25.2142Z" fill="#1F4069"/>
<path opacity="0.5" d="M20.2363 25.2144V45.1491L37.5009 35.1837V15.2534L20.2363 25.2144Z" fill="#1F4069"/>
</g>
<g opacity="0.84">
<path d="M61.785 19.2189V13.9248H66.348V33.1488H61.785V23.3728H54.063V33.1488H49.5V13.9248H54.063V19.2189H61.785Z" fill="#1F4069"/>
<path fill-rule="evenodd" clip-rule="evenodd" d="M82.1839 26.5878V27.4248H71.8699C72.0139 28.3788 72.3649 29.1078 72.9229 29.6118C73.4809 30.1158 74.1919 30.3678 75.0559 30.3678C76.2628 30.3678 77.1335 29.9615 77.6679 29.1489H81.7588C81.3482 30.4267 80.5809 31.4539 79.4569 32.2308C78.2329 33.0588 76.7659 33.4728 75.0559 33.4728C72.8959 33.4728 71.1499 32.8068 69.8179 31.4748C68.4859 30.1428 67.8199 28.3788 67.8199 26.1828C67.8199 23.9688 68.4769 22.2048 69.7909 20.8908C71.0869 19.5588 72.8239 18.8928 75.0019 18.8928C77.1619 18.8928 78.9079 19.5858 80.2399 20.9718C81.5359 22.3758 82.1839 24.2478 82.1839 26.5878ZM74.9479 21.9978C73.2199 21.9978 72.2029 22.9158 71.8969 24.7518H78.0529C77.9089 23.8878 77.5669 23.2128 77.0269 22.7268C76.4869 22.2408 75.7939 21.9978 74.9479 21.9978Z" fill="#1F4069"/>
<path d="M90.9349 25.9668L95.7409 19.2168H91.0699L90.5569 19.9458C89.9629 20.8098 89.3329 21.7818 88.6669 22.8618C88.3969 22.4298 87.7579 21.4578 86.7499 19.9458L86.2369 19.2168H81.4309L86.2909 26.0208L81.1609 33.1488H85.8589L86.2099 32.6358C87.0739 31.3398 87.8569 30.1698 88.5589 29.1258C89.8189 31.0518 90.5929 32.2218 90.8809 32.6358L91.2319 33.1488H96.0109L90.9349 25.9668Z" fill="#1F4069"/>
<path fill-rule="evenodd" clip-rule="evenodd" d="M108.899 33.1488H104.876V31.5828C103.94 32.8428 102.455 33.4728 100.421 33.4728C98.8912 33.4728 97.6582 33.0948 96.7222 32.3388C95.8042 31.5828 95.3452 30.5388 95.3452 29.2068C95.3452 26.6148 97.1632 25.1658 100.799 24.8598L102.986 24.6708C104.192 24.5448 104.795 24.0858 104.795 23.2938C104.795 22.3578 104.084 21.8898 102.662 21.8898C101.798 21.8898 101.186 22.0248 100.826 22.2948C100.484 22.5468 100.277 23.0238 100.205 23.7258H96.0202C96.2722 20.5038 98.4952 18.8928 102.689 18.8928C106.829 18.8928 108.899 20.3238 108.899 23.1858V33.1488ZM101.69 30.6378C102.644 30.6378 103.4 30.3948 103.958 29.9088C104.516 29.4048 104.795 28.6578 104.795 27.6678V26.6418C104.543 26.9118 104.075 27.0918 103.391 27.1818L101.663 27.3708C100.313 27.5148 99.6382 28.0728 99.6382 29.0448C99.6382 29.5308 99.8182 29.9178 100.178 30.2058C100.538 30.4938 101.042 30.6378 101.69 30.6378Z" fill="#1F4069"/>
<path d="M122.551 20.2428C121.687 19.3428 120.517 18.8928 119.041 18.8928C117.259 18.8928 115.837 19.6128 114.775 21.0528V13.9248H110.563V33.1488H114.775V25.3728C114.775 24.4548 115.027 23.7438 115.531 23.2398C116.035 22.7358 116.665 22.4838 117.421 22.4838C118.915 22.4838 119.662 23.2758 119.662 24.8598V33.1488H123.874V24.0228C123.874 22.3848 123.433 21.1248 122.551 20.2428Z" fill="#1F4069"/>
<path fill-rule="evenodd" clip-rule="evenodd" d="M139.561 26.5878V27.4248H129.247C129.391 28.3788 129.742 29.1078 130.3 29.6118C130.858 30.1158 131.569 30.3678 132.433 30.3678C133.64 30.3678 134.511 29.9615 135.045 29.1489H139.136C138.725 30.4267 137.958 31.4539 136.834 32.2308C135.61 33.0588 134.143 33.4728 132.433 33.4728C130.273 33.4728 128.527 32.8068 127.195 31.4748C125.863 30.1428 125.197 28.3788 125.197 26.1828C125.197 23.9688 125.854 22.2048 127.168 20.8908C128.464 19.5588 130.201 18.8928 132.379 18.8928C134.539 18.8928 136.285 19.5858 137.617 20.9718C138.913 22.3758 139.561 24.2478 139.561 26.5878ZM132.325 21.9978C130.597 21.9978 129.58 22.9158 129.274 24.7518H135.43C135.286 23.8878 134.944 23.2128 134.404 22.7268C133.864 22.2408 133.171 21.9978 132.325 21.9978Z" fill="#1F4069"/>
<path fill-rule="evenodd" clip-rule="evenodd" d="M150.577 13.9248V20.8908C149.623 19.5588 148.264 18.8928 146.5 18.8928C144.628 18.8928 143.152 19.5498 142.072 20.8638C140.974 22.1778 140.425 23.9508 140.425 26.1828C140.425 28.4148 140.974 30.1878 142.072 31.5018C143.152 32.8158 144.628 33.4728 146.5 33.4728C148.354 33.4728 149.749 32.7618 150.685 31.3398V33.1488H154.789V13.9248H150.577ZM150.658 26.1828C150.658 28.7928 149.659 30.0978 147.661 30.0978C145.681 30.0978 144.691 28.8288 144.691 26.2908C144.691 24.9948 144.952 24.0048 145.474 23.3208C145.996 22.6188 146.725 22.2678 147.661 22.2678C149.659 22.2678 150.658 23.5728 150.658 26.1828Z" fill="#1F4069"/>
<path d="M164.74 19.0008C164.812 19.0008 165.118 19.0188 165.658 19.0548V22.8888H164.578C162.112 22.8888 160.879 24.1488 160.879 26.6688V33.1488H156.667V19.2168H160.771V21.8088C161.419 19.9368 162.742 19.0008 164.74 19.0008Z" fill="#1F4069"/>
<path fill-rule="evenodd" clip-rule="evenodd" d="M173.055 33.4728C175.269 33.4728 177.042 32.8068 178.374 31.4748C179.688 30.1608 180.345 28.3968 180.345 26.1828C180.345 23.9508 179.688 22.1778 178.374 20.8638C177.06 19.5498 175.287 18.8928 173.055 18.8928C170.823 18.8928 169.05 19.5498 167.736 20.8638C166.404 22.1958 165.738 23.9688 165.738 26.1828C165.738 28.3788 166.404 30.1428 167.736 31.4748C169.068 32.8068 170.841 33.4728 173.055 33.4728ZM175.296 29.0988C174.774 29.7648 174.027 30.0978 173.055 30.0978C172.065 30.0978 171.309 29.7648 170.787 29.0988C170.265 28.4328 170.004 27.4608 170.004 26.1828C170.004 24.9048 170.265 23.9328 170.787 23.2668C171.309 22.6008 172.065 22.2678 173.055 22.2678C174.027 22.2678 174.774 22.6008 175.296 23.2668C175.818 23.9328 176.079 24.9048 176.079 26.1828C176.079 27.4608 175.818 28.4328 175.296 29.0988Z" fill="#1F4069"/>
<path d="M190.143 18.8928C191.619 18.8928 192.789 19.3428 193.653 20.2428C194.535 21.1248 194.976 22.3848 194.976 24.0228V33.1488H190.764V24.8598C190.764 23.2758 190.017 22.4838 188.523 22.4838C187.767 22.4838 187.137 22.7358 186.633 23.2398C186.129 23.7438 185.877 24.4548 185.877 25.3728V33.1488H181.665V19.2168H185.769V21.1878C186.849 19.6578 188.307 18.8928 190.143 18.8928Z" fill="#1F4069"/>
</g>
</svg>
